<svg width="27" height="9" viewBox="0 0 27 9" fill="none" xmlns="http://www.w3.org/2000/svg">
<path d="M5.236 7.032V8H0.44V6.988L2.387 5.019C3.03967 4.35167 3.49067 3.853 3.74 3.523C3.98933 3.18567 4.114 2.83367 4.114 2.467C4.114 2.137 3.98567 1.85467 3.729 1.62C3.47233 1.38533 3.14233 1.268 2.739 1.268C2.39433 1.268 2.09733 1.37067 1.848 1.576C1.59867 1.78133 1.43733 2.03067 1.364 2.324L0.44 1.95C0.586667 1.488 0.869 1.09933 1.287 0.784C1.705 0.461333 2.19633 0.299999 2.761 0.299999C3.443 0.299999 4.01133 0.509 4.466 0.927C4.92067 1.345 5.148 1.85833 5.148 2.467C5.148 3.193 4.74833 3.97767 3.949 4.821L1.749 7.032H5.236ZM6.19884 4.238C6.19884 3.094 6.48118 2.15167 7.04584 1.411C7.61051 0.670333 8.33651 0.299999 9.22384 0.299999C10.1112 0.299999 10.8372 0.673999 11.4018 1.422C11.9665 2.16267 12.2488 3.10133 12.2488 4.238C12.2488 5.36733 11.9665 6.30967 11.4018 7.065C10.8372 7.80567 10.1112 8.176 9.22384 8.176C8.33651 8.176 7.61051 7.80567 7.04584 7.065C6.48118 6.30967 6.19884 5.36733 6.19884 4.238ZM11.2148 4.238C11.2148 3.37267 11.0315 2.66133 10.6648 2.104C10.3055 1.54667 9.82518 1.268 9.22384 1.268C8.62251 1.268 8.14218 1.54667 7.78284 2.104C7.41618 2.66133 7.23284 3.37267 7.23284 4.238C7.23284 5.10333 7.41618 5.81833 7.78284 6.383C8.14218 6.933 8.62251 7.208 9.22384 7.208C9.82518 7.208 10.3055 6.92933 10.6648 6.372C11.0315 5.80733 11.2148 5.096 11.2148 4.238ZM13.2135 4.238C13.2135 3.094 13.4958 2.15167 14.0605 1.411C14.6252 0.670333 15.3512 0.299999 16.2385 0.299999C17.1258 0.299999 17.8518 0.673999 18.4165 1.422C18.9812 2.16267 19.2635 3.10133 19.2635 4.238C19.2635 5.36733 18.9812 6.30967 18.4165 7.065C17.8518 7.80567 17.1258 8.176 16.2385 8.176C15.3512 8.176 14.6252 7.80567 14.0605 7.065C13.4958 6.30967 13.2135 5.36733 13.2135 4.238ZM18.2295 4.238C18.2295 3.37267 18.0462 2.66133 17.6795 2.104C17.3202 1.54667 16.8398 1.268 16.2385 1.268C15.6372 1.268 15.1568 1.54667 14.7975 2.104C14.4308 2.66133 14.2475 3.37267 14.2475 4.238C14.2475 5.10333 14.4308 5.81833 14.7975 6.383C15.1568 6.933 15.6372 7.208 16.2385 7.208C16.8398 7.208 17.3202 6.92933 17.6795 6.372C18.0462 5.80733 18.2295 5.096 18.2295 4.238ZM20.2281 4.238C20.2281 3.094 20.5105 2.15167 21.0751 1.411C21.6398 0.670333 22.3658 0.299999 23.2531 0.299999C24.1405 0.299999 24.8665 0.673999 25.4311 1.422C25.9958 2.16267 26.2781 3.10133 26.2781 4.238C26.2781 5.36733 25.9958 6.30967 25.4311 7.065C24.8665 7.80567 24.1405 8.176 23.2531 8.176C22.3658 8.176 21.6398 7.80567 21.0751 7.065C20.5105 6.30967 20.2281 5.36733 20.2281 4.238ZM25.2441 4.238C25.2441 3.37267 25.0608 2.66133 24.6941 2.104C24.3348 1.54667 23.8545 1.268 23.2531 1.268C22.6518 1.268 22.1715 1.54667 21.8121 2.104C21.4455 2.66133 21.2621 3.37267 21.2621 4.238C21.2621 5.10333 21.4455 5.81833 21.8121 6.383C22.1715 6.933 22.6518 7.208 23.2531 7.208C23.8545 7.208 24.3348 6.92933 24.6941 6.372C25.0608 5.80733 25.2441 5.096 25.2441 4.238Z" fill="white"/>
</svg>
