<svg width="75" height="47" viewBox="0 0 75 47" fill="none" xmlns="http://www.w3.org/2000/svg">
<path d="M47.47 2.33C46.75 1.51 45.68 1 44.5 1C43.38 1 42.36 1.46 41.63 2.21C41.21 2.64 40.89 3.16 40.7 3.74C40.57 4.14 40.5 4.56 40.5 5C40.5 5.75 40.71 6.46 41.08 7.06C41.28 7.4 41.54 7.71 41.84 7.97C42.54 8.61 43.47 9 44.5 9C44.94 9 45.36 8.93 45.75 8.79C46.67 8.5 47.44 7.87 47.92 7.06C48.13 6.72 48.29 6.33 48.38 5.93C48.46 5.63 48.5 5.32 48.5 5C48.5 3.98 48.11 3.04 47.47 2.33ZM45.99 5.73H45.25V6.51C45.25 6.92 44.91 7.26 44.5 7.26C44.09 7.26 43.75 6.92 43.75 6.51V5.73H43.01C42.6 5.73 42.26 5.39 42.26 4.98C42.26 4.57 42.6 4.23 43.01 4.23H43.75V3.52C43.75 3.11 44.09 2.77 44.5 2.77C44.91 2.77 45.25 3.11 45.25 3.52V4.23H45.99C46.4 4.23 46.74 4.57 46.74 4.98C46.74 5.39 46.41 5.73 45.99 5.73Z" fill="#B0B0B0"/>
<path d="M47.5 12C47.5 10.69 47.25 9.43 46.78 8.28C46.47 8.5 46.12 8.67 45.75 8.79C45.64 8.83 45.53 8.86 45.41 8.89C45.79 9.85 46 10.9 46 12C46 14.32 45.06 16.43 43.54 17.97C43.25 17.6 42.88 17.26 42.44 16.97C39.73 15.15 35.29 15.15 32.56 16.97C32.12 17.26 31.76 17.6 31.46 17.97C29.94 16.43 29 14.32 29 12C29 7.31 32.81 3.5 37.5 3.5C38.59 3.5 39.64 3.71 40.6 4.09C40.63 3.97 40.66 3.86 40.7 3.74C40.82 3.37 40.99 3.03 41.22 2.72C40.07 2.25 38.81 2 37.5 2C31.99 2 27.5 6.49 27.5 12C27.5 14.9 28.75 17.51 30.73 19.34C30.73 19.35 30.73 19.35 30.72 19.36C30.82 19.46 30.94 19.54 31.04 19.63C31.1 19.68 31.15 19.73 31.21 19.77C31.39 19.92 31.59 20.06 31.78 20.2C31.85 20.25 31.91 20.29 31.98 20.34C32.17 20.47 32.37 20.59 32.58 20.7C32.65 20.74 32.73 20.79 32.8 20.83C33 20.94 33.21 21.04 33.43 21.13C33.51 21.17 33.59 21.21 33.67 21.24C33.89 21.33 34.11 21.41 34.33 21.48C34.41 21.51 34.49 21.54 34.57 21.56C34.81 21.63 35.05 21.69 35.29 21.75C35.36 21.77 35.43 21.79 35.51 21.8C35.79 21.86 36.07 21.9 36.36 21.93C36.4 21.93 36.44 21.94 36.48 21.95C36.82 21.98 37.16 22 37.5 22C37.84 22 38.18 21.98 38.51 21.95C38.55 21.95 38.59 21.94 38.63 21.93C38.92 21.9 39.2 21.86 39.48 21.8C39.55 21.79 39.62 21.76 39.7 21.75C39.94 21.69 40.19 21.64 40.42 21.56C40.5 21.53 40.58 21.5 40.66 21.48C40.88 21.4 41.11 21.33 41.32 21.24C41.4 21.21 41.48 21.17 41.56 21.13C41.77 21.04 41.98 20.94 42.19 20.83C42.27 20.79 42.34 20.74 42.41 20.7C42.61 20.58 42.81 20.47 43.01 20.34C43.08 20.3 43.14 20.25 43.21 20.2C43.41 20.06 43.6 19.92 43.78 19.77C43.84 19.72 43.89 19.67 43.95 19.63C44.06 19.54 44.17 19.45 44.27 19.36C44.27 19.35 44.27 19.35 44.26 19.34C46.25 17.51 47.5 14.9 47.5 12Z" fill="#B0B0B0"/>
<path d="M37.5 6.92993C35.43 6.92993 33.75 8.60993 33.75 10.6799C33.75 12.7099 35.34 14.3599 37.45 14.4199C37.48 14.4199 37.52 14.4199 37.54 14.4199C37.56 14.4199 37.59 14.4199 37.61 14.4199C37.62 14.4199 37.63 14.4199 37.63 14.4199C39.65 14.3499 41.24 12.7099 41.25 10.6799C41.25 8.60993 39.57 6.92993 37.5 6.92993Z" fill="#B0B0B0"/>
<path d="M13.635 43V35.84H16.225C16.7917 35.84 17.2784 36.0267 17.685 36.4C18.0917 36.7667 18.295 37.23 18.295 37.79C18.295 38.4967 17.9717 38.9933 17.325 39.28V39.32C17.6917 39.44 17.985 39.65 18.205 39.95C18.425 40.2433 18.535 40.58 18.535 40.96C18.535 41.5467 18.3217 42.0333 17.895 42.42C17.4817 42.8067 16.9717 43 16.365 43H13.635ZM14.555 36.72V38.91H16.225C16.5517 38.91 16.825 38.8 17.045 38.58C17.265 38.3533 17.375 38.0967 17.375 37.81C17.375 37.53 17.2684 37.2767 17.055 37.05C16.8417 36.83 16.5784 36.72 16.265 36.72H14.555ZM14.555 39.77V42.12H16.405C16.7384 42.12 17.0217 42.0033 17.255 41.77C17.4817 41.5367 17.595 41.26 17.595 40.94C17.595 40.6267 17.4784 40.3533 17.245 40.12C17.0117 39.8867 16.7184 39.77 16.365 39.77H14.555ZM23.7125 43H22.8325V42.32H22.7925C22.6525 42.56 22.4359 42.76 22.1425 42.92C21.8559 43.08 21.5559 43.16 21.2425 43.16C20.6425 43.16 20.1792 42.99 19.8525 42.65C19.5325 42.3033 19.3725 41.8133 19.3725 41.18V38.1H20.2925V41.12C20.3125 41.92 20.7159 42.32 21.5025 42.32C21.8692 42.32 22.1759 42.1733 22.4225 41.88C22.6692 41.58 22.7925 41.2233 22.7925 40.81V38.1H23.7125V43ZM25.4536 41.5C25.4536 41.74 25.5536 41.94 25.7536 42.1C25.9603 42.26 26.2003 42.34 26.4736 42.34C26.8603 42.34 27.2036 42.1967 27.5036 41.91C27.8103 41.6233 27.9636 41.2867 27.9636 40.9C27.677 40.6733 27.277 40.56 26.7636 40.56C26.3903 40.56 26.077 40.65 25.8236 40.83C25.577 41.01 25.4536 41.2333 25.4536 41.5ZM26.6436 37.94C27.3236 37.94 27.8603 38.1233 28.2536 38.49C28.647 38.85 28.8436 39.3467 28.8436 39.98V43H27.9636V42.32H27.9236C27.5436 42.88 27.037 43.16 26.4036 43.16C25.8636 43.16 25.4103 43 25.0436 42.68C24.6836 42.36 24.5036 41.96 24.5036 41.48C24.5036 40.9733 24.6936 40.57 25.0736 40.27C25.4603 39.97 25.9736 39.82 26.6136 39.82C27.1603 39.82 27.6103 39.92 27.9636 40.12V39.91C27.9636 39.59 27.837 39.32 27.5836 39.1C27.3303 38.8733 27.0336 38.76 26.6936 38.76C26.1803 38.76 25.7736 38.9767 25.4736 39.41L24.6636 38.9C25.1103 38.26 25.7703 37.94 26.6436 37.94ZM31.7236 43.08C31.3236 43.08 30.9903 42.9567 30.7236 42.71C30.4636 42.4633 30.3303 42.12 30.3236 41.68V38.94H29.4636V38.1H30.3236V36.6H31.2436V38.1H32.4436V38.94H31.2436V41.38C31.2436 41.7067 31.307 41.93 31.4336 42.05C31.5603 42.1633 31.7036 42.22 31.8636 42.22C31.937 42.22 32.007 42.2133 32.0736 42.2C32.147 42.18 32.2136 42.1567 32.2736 42.13L32.5636 42.95C32.3236 43.0367 32.0436 43.08 31.7236 43.08ZM39.7933 41.09C39.7933 41.7167 39.5633 42.22 39.1033 42.6C38.6367 42.9733 38.07 43.16 37.4033 43.16C36.81 43.16 36.2867 42.9867 35.8333 42.64C35.38 42.2933 35.0667 41.82 34.8933 41.22L35.7733 40.86C35.8333 41.0733 35.9167 41.2667 36.0233 41.44C36.13 41.6133 36.2533 41.7633 36.3933 41.89C36.54 42.01 36.7 42.1067 36.8733 42.18C37.0467 42.2467 37.23 42.28 37.4233 42.28C37.8433 42.28 38.1867 42.1733 38.4533 41.96C38.72 41.74 38.8533 41.45 38.8533 41.09C38.8533 40.79 38.7433 40.5333 38.5233 40.32C38.3167 40.1133 37.93 39.9133 37.3633 39.72C36.79 39.5133 36.4333 39.3733 36.2933 39.3C35.5333 38.9133 35.1533 38.3433 35.1533 37.59C35.1533 37.0633 35.3633 36.6133 35.7833 36.24C36.21 35.8667 36.7333 35.68 37.3533 35.68C37.9 35.68 38.3733 35.82 38.7733 36.1C39.1733 36.3733 39.44 36.7167 39.5733 37.13L38.7133 37.49C38.6333 37.2233 38.4733 37.0033 38.2333 36.83C38 36.65 37.7133 36.56 37.3733 36.56C37.0133 36.56 36.71 36.66 36.4633 36.86C36.2167 37.0467 36.0933 37.29 36.0933 37.59C36.0933 37.8367 36.19 38.05 36.3833 38.23C36.5967 38.41 37.06 38.6233 37.7733 38.87C38.5 39.1167 39.0167 39.42 39.3233 39.78C39.6367 40.1333 39.7933 40.57 39.7933 41.09ZM45.3807 45.16H44.4607V43L44.5007 42.32H44.4607C44.3007 42.5733 44.0707 42.7767 43.7707 42.93C43.4773 43.0833 43.1507 43.16 42.7907 43.16C42.1507 43.16 41.6007 42.9067 41.1407 42.4C40.6873 41.8867 40.4607 41.27 40.4607 40.55C40.4607 39.83 40.6873 39.2133 41.1407 38.7C41.6007 38.1933 42.1507 37.94 42.7907 37.94C43.1507 37.94 43.4773 38.0167 43.7707 38.17C44.0707 38.3233 44.3007 38.5267 44.4607 38.78H44.5007V38.1H45.3807V45.16ZM42.9407 42.32C43.394 42.32 43.764 42.1567 44.0507 41.83C44.3507 41.5033 44.5007 41.0767 44.5007 40.55C44.5007 40.0367 44.3507 39.6133 44.0507 39.28C43.7573 38.9467 43.3873 38.78 42.9407 38.78C42.5007 38.78 42.1307 38.9467 41.8307 39.28C41.5307 39.6133 41.3807 40.0367 41.3807 40.55C41.3807 41.07 41.5307 41.4933 41.8307 41.82C42.1307 42.1533 42.5007 42.32 42.9407 42.32ZM50.7633 43H49.8833V42.32H49.8433C49.7033 42.56 49.4867 42.76 49.1933 42.92C48.9067 43.08 48.6067 43.16 48.2933 43.16C47.6933 43.16 47.23 42.99 46.9033 42.65C46.5833 42.3033 46.4233 41.8133 46.4233 41.18V38.1H47.3433V41.12C47.3633 41.92 47.7667 42.32 48.5533 42.32C48.92 42.32 49.2267 42.1733 49.4733 41.88C49.72 41.58 49.8433 41.2233 49.8433 40.81V38.1H50.7633V43ZM52.5044 41.5C52.5044 41.74 52.6044 41.94 52.8044 42.1C53.0111 42.26 53.2511 42.34 53.5244 42.34C53.9111 42.34 54.2544 42.1967 54.5544 41.91C54.8611 41.6233 55.0144 41.2867 55.0144 40.9C54.7277 40.6733 54.3277 40.56 53.8144 40.56C53.4411 40.56 53.1277 40.65 52.8744 40.83C52.6277 41.01 52.5044 41.2333 52.5044 41.5ZM53.6944 37.94C54.3744 37.94 54.9111 38.1233 55.3044 38.49C55.6977 38.85 55.8944 39.3467 55.8944 39.98V43H55.0144V42.32H54.9744C54.5944 42.88 54.0877 43.16 53.4544 43.16C52.9144 43.16 52.4611 43 52.0944 42.68C51.7344 42.36 51.5544 41.96 51.5544 41.48C51.5544 40.9733 51.7444 40.57 52.1244 40.27C52.5111 39.97 53.0244 39.82 53.6644 39.82C54.2111 39.82 54.6611 39.92 55.0144 40.12V39.91C55.0144 39.59 54.8877 39.32 54.6344 39.1C54.3811 38.8733 54.0844 38.76 53.7444 38.76C53.2311 38.76 52.8244 38.9767 52.5244 39.41L51.7144 38.9C52.1611 38.26 52.8211 37.94 53.6944 37.94ZM59.0832 42.32C59.5366 42.32 59.9066 42.1567 60.1932 41.83C60.4932 41.5033 60.6432 41.0767 60.6432 40.55C60.6432 40.0367 60.4932 39.6133 60.1932 39.28C59.8999 38.9467 59.5299 38.78 59.0832 38.78C58.6432 38.78 58.2732 38.9467 57.9732 39.28C57.6732 39.6133 57.5232 40.0367 57.5232 40.55C57.5232 41.07 57.6732 41.4933 57.9732 41.82C58.2732 42.1533 58.6432 42.32 59.0832 42.32ZM58.9332 43.16C58.2932 43.16 57.7432 42.9067 57.2832 42.4C56.8299 41.8867 56.6032 41.27 56.6032 40.55C56.6032 39.83 56.8299 39.2133 57.2832 38.7C57.7432 38.1933 58.2932 37.94 58.9332 37.94C59.2932 37.94 59.6199 38.0167 59.9132 38.17C60.2132 38.3233 60.4432 38.5267 60.6032 38.78H60.6432L60.6032 38.1V35.84H61.5232V43H60.6432V42.32H60.6032C60.4432 42.5733 60.2132 42.7767 59.9132 42.93C59.6199 43.0833 59.2932 43.16 58.9332 43.16Z" fill="#B0B0B0"/>
</svg>
