<svg width="15" height="15" viewBox="0 0 15 15" fill="none" xmlns="http://www.w3.org/2000/svg">
<path d="M7.96875 9.95001H8.375C8.78125 9.95001 9.11875 9.58751 9.11875 9.15001C9.11875 8.60626 8.925 8.50001 8.60625 8.38751L7.975 8.16876V9.95001H7.96875Z" fill="#F7B731"/>
<path d="M7.48129 1.18751C4.03129 1.20001 1.23754 4.00626 1.25004 7.45626C1.26254 10.9063 4.06879 13.7 7.51879 13.6875C10.9688 13.675 13.7625 10.8688 13.75 7.41876C13.7375 3.96876 10.9313 1.18126 7.48129 1.18751ZM8.91254 7.50001C9.40004 7.66876 10.0563 8.03126 10.0563 9.15001C10.0563 10.1125 9.30004 10.8875 8.37504 10.8875H7.96879V11.25C7.96879 11.5063 7.75629 11.7188 7.50004 11.7188C7.24379 11.7188 7.03129 11.5063 7.03129 11.25V10.8875H6.80629C5.78129 10.8875 4.95004 10.025 4.95004 8.96251C4.95004 8.70626 5.16254 8.49376 5.41879 8.49376C5.67504 8.49376 5.88754 8.70626 5.88754 8.96251C5.88754 9.50626 6.30004 9.95001 6.80629 9.95001H7.03129V7.83751L6.08754 7.50001C5.60004 7.33126 4.94379 6.96876 4.94379 5.85001C4.94379 4.88751 5.70004 4.11251 6.62504 4.11251H7.03129V3.75001C7.03129 3.49376 7.24379 3.28126 7.50004 3.28126C7.75629 3.28126 7.96879 3.49376 7.96879 3.75001V4.11251H8.19379C9.21879 4.11251 10.05 4.97501 10.05 6.03751C10.05 6.29376 9.83754 6.50626 9.58129 6.50626C9.32504 6.50626 9.11254 6.29376 9.11254 6.03751C9.11254 5.49376 8.70004 5.05001 8.19379 5.05001H7.96879V7.16251L8.91254 7.50001Z" fill="#F7B731"/>
<path d="M5.8877 5.85624C5.8877 6.39999 6.08145 6.50624 6.4002 6.61874L7.03145 6.83749V5.04999H6.6252C6.21895 5.04999 5.8877 5.41249 5.8877 5.85624Z" fill="#F7B731"/>
</svg>
