<svg width="27" height="37" viewBox="0 0 27 37" fill="none" xmlns="http://www.w3.org/2000/svg">
<path d="M2.02477 35H1.10477V27.84H2.02477V30.91H5.60477V27.84H6.52477V35H5.60477V31.77H2.02477V35ZM7.52023 32.55C7.52023 31.7967 7.7569 31.1733 8.23023 30.68C8.71023 30.1867 9.31357 29.94 10.0402 29.94C10.7669 29.94 11.3669 30.1867 11.8402 30.68C12.3202 31.1733 12.5602 31.7967 12.5602 32.55C12.5602 33.31 12.3202 33.9333 11.8402 34.42C11.3669 34.9133 10.7669 35.16 10.0402 35.16C9.31357 35.16 8.71023 34.9133 8.23023 34.42C7.7569 33.9267 7.52023 33.3033 7.52023 32.55ZM8.44023 32.55C8.44023 33.0767 8.59357 33.5033 8.90023 33.83C9.2069 34.1567 9.5869 34.32 10.0402 34.32C10.4936 34.32 10.8736 34.1567 11.1802 33.83C11.4869 33.5033 11.6402 33.0767 11.6402 32.55C11.6402 32.03 11.4869 31.6067 11.1802 31.28C10.8669 30.9467 10.4869 30.78 10.0402 30.78C9.59357 30.78 9.21357 30.9467 8.90023 31.28C8.59357 31.6067 8.44023 32.03 8.44023 32.55ZM14.2183 35H13.2983V30.1H14.1783V30.78H14.2183C14.3583 30.54 14.5716 30.34 14.8583 30.18C15.1516 30.02 15.4416 29.94 15.7283 29.94C16.0883 29.94 16.4049 30.0233 16.6783 30.19C16.9516 30.3567 17.1516 30.5867 17.2783 30.88C17.6849 30.2533 18.2483 29.94 18.9683 29.94C19.5349 29.94 19.9716 30.1133 20.2783 30.46C20.5849 30.8067 20.7383 31.3 20.7383 31.94V35H19.8183V32.08C19.8183 31.62 19.7349 31.29 19.5683 31.09C19.4016 30.8833 19.1216 30.78 18.7283 30.78C18.3749 30.78 18.0783 30.93 17.8383 31.23C17.5983 31.53 17.4783 31.8833 17.4783 32.29V35H16.5583V32.08C16.5583 31.62 16.4749 31.29 16.3083 31.09C16.1416 30.8833 15.8616 30.78 15.4683 30.78C15.1149 30.78 14.8183 30.93 14.5783 31.23C14.3383 31.53 14.2183 31.8833 14.2183 32.29V35ZM24.0139 35.16C23.2939 35.16 22.7006 34.9133 22.2339 34.42C21.7672 33.9267 21.5339 33.3033 21.5339 32.55C21.5339 31.8033 21.7606 31.1833 22.2139 30.69C22.6672 30.19 23.2472 29.94 23.9539 29.94C24.6806 29.94 25.2572 30.1767 25.6839 30.65C26.1172 31.1167 26.3339 31.7733 26.3339 32.62L26.3239 32.72H22.4739C22.4872 33.2 22.6472 33.5867 22.9539 33.88C23.2606 34.1733 23.6272 34.32 24.0539 34.32C24.6406 34.32 25.1006 34.0267 25.4339 33.44L26.2539 33.84C26.0339 34.2533 25.7272 34.5767 25.3339 34.81C24.9472 35.0433 24.5072 35.16 24.0139 35.16ZM22.5439 31.96H25.3539C25.3272 31.62 25.1872 31.34 24.9339 31.12C24.6872 30.8933 24.3539 30.78 23.9339 30.78C23.5872 30.78 23.2872 30.8867 23.0339 31.1C22.7872 31.3133 22.6239 31.6 22.5439 31.96Z" fill="#292A2E"/>
<path d="M11.1408 2.24838L6.87367 5.57338C6.16117 6.12755 5.58325 7.30713 5.58325 8.20171V14.068C5.58325 15.9046 7.0795 17.4088 8.91617 17.4088H18.0837C19.9203 17.4088 21.4166 15.9046 21.4166 14.0759V8.31255C21.4166 7.35463 20.7753 6.12755 19.9916 5.5813L15.0991 2.15338C13.9908 1.37755 12.2095 1.41713 11.1408 2.24838Z" stroke="#292D32" stroke-width="1.5" stroke-linecap="round" stroke-linejoin="round"/>
<path d="M13.5 14.2421V11.8671" stroke="#292D32" stroke-width="1.5" stroke-linecap="round" stroke-linejoin="round"/>
</svg>
