<svg width="75" height="47" viewBox="0 0 75 47" fill="none" xmlns="http://www.w3.org/2000/svg">
<path d="M43.03 7.77C42.96 7.76 42.89 7.76 42.82 7.77C41.27 7.72 40.04 6.45 40.04 4.89C40.04 3.3 41.33 2 42.93 2C44.52 2 45.82 3.29 45.82 4.89C45.81 6.45 44.58 7.72 43.03 7.77Z" fill="#B0B0B0"/>
<path d="M46.2896 14.6999C45.1696 15.4499 43.5996 15.7299 42.1496 15.5399C42.5296 14.7199 42.7296 13.8099 42.7396 12.8499C42.7396 11.8499 42.5196 10.8999 42.0996 10.0699C43.5796 9.86991 45.1496 10.1499 46.2796 10.8999C47.8596 11.9399 47.8596 13.6499 46.2896 14.6999Z" fill="#B0B0B0"/>
<path d="M31.9402 7.77C32.0102 7.76 32.0802 7.76 32.1502 7.77C33.7002 7.72 34.9302 6.45 34.9302 4.89C34.9302 3.29 33.6402 2 32.0402 2C30.4502 2 29.1602 3.29 29.1602 4.89C29.1602 6.45 30.3902 7.72 31.9402 7.77Z" fill="#B0B0B0"/>
<path d="M32.0501 12.8501C32.0501 13.8201 32.2601 14.7401 32.6401 15.5701C31.2301 15.7201 29.7601 15.4201 28.6801 14.7101C27.1001 13.6601 27.1001 11.9501 28.6801 10.9001C29.7501 10.1801 31.2601 9.8901 32.6801 10.0501C32.2701 10.8901 32.0501 11.8401 32.0501 12.8501Z" fill="#B0B0B0"/>
<path d="M37.6198 15.87C37.5398 15.86 37.4498 15.86 37.3598 15.87C35.5198 15.81 34.0498 14.3 34.0498 12.44C34.0598 10.54 35.5898 9 37.4998 9C39.3998 9 40.9398 10.54 40.9398 12.44C40.9298 14.3 39.4698 15.81 37.6198 15.87Z" fill="#B0B0B0"/>
<path d="M34.3698 17.9401C32.8598 18.9501 32.8598 20.6101 34.3698 21.6101C36.0898 22.7601 38.9098 22.7601 40.6298 21.6101C42.1398 20.6001 42.1398 18.9401 40.6298 17.9401C38.9198 16.7901 36.0998 16.7901 34.3698 17.9401Z" fill="#B0B0B0"/>
<path d="M12.8346 39.71C12.8346 40.71 12.5379 41.5067 11.9446 42.1C11.2779 42.8067 10.4013 43.16 9.31461 43.16C8.27461 43.16 7.39461 42.8 6.67461 42.08C5.95461 41.36 5.59461 40.4733 5.59461 39.42C5.59461 38.3667 5.95461 37.48 6.67461 36.76C7.39461 36.04 8.27461 35.68 9.31461 35.68C9.84128 35.68 10.3379 35.7733 10.8046 35.96C11.2713 36.1467 11.6546 36.41 11.9546 36.75L11.2946 37.41C11.0746 37.1433 10.7879 36.9367 10.4346 36.79C10.0879 36.6367 9.71461 36.56 9.31461 36.56C8.53461 36.56 7.87461 36.83 7.33461 37.37C6.80128 37.9167 6.53461 38.6 6.53461 39.42C6.53461 40.24 6.80128 40.9233 7.33461 41.47C7.87461 42.01 8.53461 42.28 9.31461 42.28C10.0279 42.28 10.6213 42.08 11.0946 41.68C11.5679 41.28 11.8413 40.73 11.9146 40.03H9.31461V39.17H12.7846C12.8179 39.3567 12.8346 39.5367 12.8346 39.71ZM14.3159 41.5C14.3159 41.74 14.4159 41.94 14.6159 42.1C14.8226 42.26 15.0626 42.34 15.3359 42.34C15.7226 42.34 16.0659 42.1967 16.3659 41.91C16.6726 41.6233 16.8259 41.2867 16.8259 40.9C16.5393 40.6733 16.1393 40.56 15.6259 40.56C15.2526 40.56 14.9393 40.65 14.6859 40.83C14.4393 41.01 14.3159 41.2333 14.3159 41.5ZM15.5059 37.94C16.1859 37.94 16.7226 38.1233 17.1159 38.49C17.5093 38.85 17.7059 39.3467 17.7059 39.98V43H16.8259V42.32H16.7859C16.4059 42.88 15.8993 43.16 15.2659 43.16C14.7259 43.16 14.2726 43 13.9059 42.68C13.5459 42.36 13.3659 41.96 13.3659 41.48C13.3659 40.9733 13.5559 40.57 13.9359 40.27C14.3226 39.97 14.8359 39.82 15.4759 39.82C16.0226 39.82 16.4726 39.92 16.8259 40.12V39.91C16.8259 39.59 16.6993 39.32 16.4459 39.1C16.1926 38.8733 15.8959 38.76 15.5559 38.76C15.0426 38.76 14.6359 38.9767 14.3359 39.41L13.5259 38.9C13.9726 38.26 14.6326 37.94 15.5059 37.94ZM21.3336 43.16C20.9736 43.16 20.6436 43.0833 20.3436 42.93C20.0503 42.7767 19.8236 42.5733 19.6636 42.32H19.6236V43H18.7436V35.84H19.6636V38.1L19.6236 38.78H19.6636C19.8236 38.5267 20.0503 38.3233 20.3436 38.17C20.6436 38.0167 20.9736 37.94 21.3336 37.94C21.9803 37.94 22.5269 38.1933 22.9736 38.7C23.4336 39.2133 23.6636 39.83 23.6636 40.55C23.6636 41.2767 23.4336 41.8933 22.9736 42.4C22.5269 42.9067 21.9803 43.16 21.3336 43.16ZM21.1836 42.32C21.6236 42.32 21.9936 42.1533 22.2936 41.82C22.5936 41.4933 22.7436 41.07 22.7436 40.55C22.7436 40.0367 22.5936 39.6133 22.2936 39.28C21.9936 38.9467 21.6236 38.78 21.1836 38.78C20.7369 38.78 20.3636 38.9467 20.0636 39.28C19.7703 39.6133 19.6236 40.0367 19.6236 40.55C19.6236 41.07 19.7703 41.4967 20.0636 41.83C20.3636 42.1567 20.7369 42.32 21.1836 42.32ZM28.7565 43H27.8765V42.32H27.8365C27.6965 42.56 27.4798 42.76 27.1865 42.92C26.8998 43.08 26.5998 43.16 26.2865 43.16C25.6865 43.16 25.2232 42.99 24.8965 42.65C24.5765 42.3033 24.4165 41.8133 24.4165 41.18V38.1H25.3365V41.12C25.3565 41.92 25.7598 42.32 26.5465 42.32C26.9132 42.32 27.2198 42.1733 27.4665 41.88C27.7132 41.58 27.8365 41.2233 27.8365 40.81V38.1H28.7565V43ZM29.8764 38.1H30.7564V38.78H30.7964C30.9364 38.54 31.1497 38.34 31.4364 38.18C31.7297 38.02 32.0331 37.94 32.3464 37.94C32.9464 37.94 33.4064 38.1133 33.7264 38.46C34.0531 38.8 34.2164 39.2867 34.2164 39.92V43H33.2964V39.98C33.2764 39.18 32.8731 38.78 32.0864 38.78C31.7197 38.78 31.4131 38.93 31.1664 39.23C30.9197 39.5233 30.7964 39.8767 30.7964 40.29V43H29.8764V38.1ZM37.4475 42.32C37.9008 42.32 38.2708 42.1567 38.5575 41.83C38.8575 41.5033 39.0075 41.0767 39.0075 40.55C39.0075 40.0367 38.8575 39.6133 38.5575 39.28C38.2642 38.9467 37.8942 38.78 37.4475 38.78C37.0075 38.78 36.6375 38.9467 36.3375 39.28C36.0375 39.6133 35.8875 40.0367 35.8875 40.55C35.8875 41.07 36.0375 41.4933 36.3375 41.82C36.6375 42.1533 37.0075 42.32 37.4475 42.32ZM37.4175 45.32C37.1442 45.32 36.8875 45.2833 36.6475 45.21C36.4075 45.1433 36.1875 45.0467 35.9875 44.92C35.7942 44.7933 35.6275 44.6433 35.4875 44.47C35.3475 44.2967 35.2408 44.1033 35.1675 43.89L36.0375 43.53C36.1375 43.8167 36.3108 44.0467 36.5575 44.22C36.8042 44.3933 37.0908 44.48 37.4175 44.48C37.9175 44.48 38.3075 44.33 38.5875 44.03C38.8675 43.73 39.0075 43.3167 39.0075 42.79V42.32H38.9675C38.7942 42.58 38.5575 42.7867 38.2575 42.94C37.9642 43.0867 37.6442 43.16 37.2975 43.16C36.6575 43.16 36.1075 42.91 35.6475 42.41C35.1942 41.8967 34.9675 41.2767 34.9675 40.55C34.9675 39.8233 35.1942 39.2067 35.6475 38.7C36.1075 38.1933 36.6575 37.94 37.2975 37.94C37.6442 37.94 37.9642 38.0167 38.2575 38.17C38.5575 38.3167 38.7942 38.52 38.9675 38.78H39.0075V38.1H39.8875V42.79C39.8875 43.5767 39.6642 44.1933 39.2175 44.64C38.7642 45.0933 38.1642 45.32 37.4175 45.32ZM47.4837 41.09C47.4837 41.7167 47.2538 42.22 46.7938 42.6C46.3271 42.9733 45.7604 43.16 45.0938 43.16C44.5004 43.16 43.9771 42.9867 43.5238 42.64C43.0704 42.2933 42.7571 41.82 42.5838 41.22L43.4638 40.86C43.5238 41.0733 43.6071 41.2667 43.7138 41.44C43.8204 41.6133 43.9438 41.7633 44.0838 41.89C44.2304 42.01 44.3904 42.1067 44.5638 42.18C44.7371 42.2467 44.9204 42.28 45.1138 42.28C45.5338 42.28 45.8771 42.1733 46.1438 41.96C46.4104 41.74 46.5438 41.45 46.5438 41.09C46.5438 40.79 46.4338 40.5333 46.2138 40.32C46.0071 40.1133 45.6204 39.9133 45.0538 39.72C44.4804 39.5133 44.1238 39.3733 43.9838 39.3C43.2238 38.9133 42.8438 38.3433 42.8438 37.59C42.8438 37.0633 43.0538 36.6133 43.4738 36.24C43.9004 35.8667 44.4238 35.68 45.0438 35.68C45.5904 35.68 46.0638 35.82 46.4638 36.1C46.8638 36.3733 47.1304 36.7167 47.2638 37.13L46.4038 37.49C46.3238 37.2233 46.1638 37.0033 45.9238 36.83C45.6904 36.65 45.4038 36.56 45.0638 36.56C44.7038 36.56 44.4004 36.66 44.1538 36.86C43.9071 37.0467 43.7838 37.29 43.7838 37.59C43.7838 37.8367 43.8804 38.05 44.0738 38.23C44.2871 38.41 44.7504 38.6233 45.4638 38.87C46.1904 39.1167 46.7071 39.42 47.0138 39.78C47.3271 40.1333 47.4837 40.57 47.4837 41.09ZM53.0711 45.16H52.1511V43L52.1911 42.32H52.1511C51.9911 42.5733 51.7611 42.7767 51.4611 42.93C51.1678 43.0833 50.8411 43.16 50.4811 43.16C49.8411 43.16 49.2911 42.9067 48.8311 42.4C48.3778 41.8867 48.1511 41.27 48.1511 40.55C48.1511 39.83 48.3778 39.2133 48.8311 38.7C49.2911 38.1933 49.8411 37.94 50.4811 37.94C50.8411 37.94 51.1678 38.0167 51.4611 38.17C51.7611 38.3233 51.9911 38.5267 52.1511 38.78H52.1911V38.1H53.0711V45.16ZM50.6311 42.32C51.0844 42.32 51.4544 42.1567 51.7411 41.83C52.0411 41.5033 52.1911 41.0767 52.1911 40.55C52.1911 40.0367 52.0411 39.6133 51.7411 39.28C51.4478 38.9467 51.0778 38.78 50.6311 38.78C50.1911 38.78 49.8211 38.9467 49.5211 39.28C49.2211 39.6133 49.0711 40.0367 49.0711 40.55C49.0711 41.07 49.2211 41.4933 49.5211 41.82C49.8211 42.1533 50.1911 42.32 50.6311 42.32ZM58.4538 43H57.5738V42.32H57.5338C57.3938 42.56 57.1771 42.76 56.8838 42.92C56.5971 43.08 56.2971 43.16 55.9838 43.16C55.3838 43.16 54.9204 42.99 54.5938 42.65C54.2738 42.3033 54.1138 41.8133 54.1138 41.18V38.1H55.0338V41.12C55.0538 41.92 55.4571 42.32 56.2438 42.32C56.6104 42.32 56.9171 42.1733 57.1638 41.88C57.4104 41.58 57.5338 41.2233 57.5338 40.81V38.1H58.4538V43ZM60.1948 41.5C60.1948 41.74 60.2948 41.94 60.4948 42.1C60.7015 42.26 60.9415 42.34 61.2148 42.34C61.6015 42.34 61.9448 42.1967 62.2448 41.91C62.5515 41.6233 62.7048 41.2867 62.7048 40.9C62.4182 40.6733 62.0182 40.56 61.5048 40.56C61.1315 40.56 60.8182 40.65 60.5648 40.83C60.3182 41.01 60.1948 41.2333 60.1948 41.5ZM61.3848 37.94C62.0648 37.94 62.6015 38.1233 62.9948 38.49C63.3882 38.85 63.5848 39.3467 63.5848 39.98V43H62.7048V42.32H62.6648C62.2848 42.88 61.7782 43.16 61.1448 43.16C60.6048 43.16 60.1515 43 59.7848 42.68C59.4248 42.36 59.2448 41.96 59.2448 41.48C59.2448 40.9733 59.4348 40.57 59.8148 40.27C60.2015 39.97 60.7148 39.82 61.3548 39.82C61.9015 39.82 62.3515 39.92 62.7048 40.12V39.91C62.7048 39.59 62.5782 39.32 62.3248 39.1C62.0715 38.8733 61.7748 38.76 61.4348 38.76C60.9215 38.76 60.5148 38.9767 60.2148 39.41L59.4048 38.9C59.8515 38.26 60.5115 37.94 61.3848 37.94ZM66.7737 42.32C67.227 42.32 67.597 42.1567 67.8837 41.83C68.1837 41.5033 68.3337 41.0767 68.3337 40.55C68.3337 40.0367 68.1837 39.6133 67.8837 39.28C67.5903 38.9467 67.2203 38.78 66.7737 38.78C66.3337 38.78 65.9637 38.9467 65.6637 39.28C65.3637 39.6133 65.2137 40.0367 65.2137 40.55C65.2137 41.07 65.3637 41.4933 65.6637 41.82C65.9637 42.1533 66.3337 42.32 66.7737 42.32ZM66.6237 43.16C65.9837 43.16 65.4337 42.9067 64.9737 42.4C64.5203 41.8867 64.2937 41.27 64.2937 40.55C64.2937 39.83 64.5203 39.2133 64.9737 38.7C65.4337 38.1933 65.9837 37.94 66.6237 37.94C66.9837 37.94 67.3103 38.0167 67.6037 38.17C67.9037 38.3233 68.1337 38.5267 68.2937 38.78H68.3337L68.2937 38.1V35.84H69.2137V43H68.3337V42.32H68.2937C68.1337 42.5733 67.9037 42.7767 67.6037 42.93C67.3103 43.0833 66.9837 43.16 66.6237 43.16Z" fill="#B0B0B0"/>
</svg>
