<svg width="58" height="37" viewBox="0 0 58 37" fill="none" xmlns="http://www.w3.org/2000/svg">
<path d="M5.86891 35H1.84891V27.84H2.76891V34.12H5.86891V35ZM8.86938 35.16C8.14938 35.16 7.55604 34.9133 7.08938 34.42C6.62271 33.9267 6.38938 33.3033 6.38938 32.55C6.38938 31.8033 6.61604 31.1833 7.06938 30.69C7.52271 30.19 8.10271 29.94 8.80938 29.94C9.53604 29.94 10.1127 30.1767 10.5394 30.65C10.9727 31.1167 11.1894 31.7733 11.1894 32.62L11.1794 32.72H7.32938C7.34271 33.2 7.50271 33.5867 7.80938 33.88C8.11604 34.1733 8.48271 34.32 8.90938 34.32C9.49604 34.32 9.95604 34.0267 10.2894 33.44L11.1094 33.84C10.8894 34.2533 10.5827 34.5767 10.1894 34.81C9.80271 35.0433 9.36271 35.16 8.86938 35.16ZM7.39938 31.96H10.2094C10.1827 31.62 10.0427 31.34 9.78938 31.12C9.54271 30.8933 9.20938 30.78 8.78938 30.78C8.44271 30.78 8.14271 30.8867 7.88938 31.1C7.64271 31.3133 7.47938 31.6 7.39938 31.96ZM12.7495 33.5C12.7495 33.74 12.8495 33.94 13.0495 34.1C13.2562 34.26 13.4962 34.34 13.7695 34.34C14.1562 34.34 14.4995 34.1967 14.7995 33.91C15.1062 33.6233 15.2595 33.2867 15.2595 32.9C14.9729 32.6733 14.5729 32.56 14.0595 32.56C13.6862 32.56 13.3729 32.65 13.1195 32.83C12.8729 33.01 12.7495 33.2333 12.7495 33.5ZM13.9395 29.94C14.6195 29.94 15.1562 30.1233 15.5495 30.49C15.9429 30.85 16.1395 31.3467 16.1395 31.98V35H15.2595V34.32H15.2195C14.8395 34.88 14.3329 35.16 13.6995 35.16C13.1595 35.16 12.7062 35 12.3395 34.68C11.9795 34.36 11.7995 33.96 11.7995 33.48C11.7995 32.9733 11.9895 32.57 12.3695 32.27C12.7562 31.97 13.2695 31.82 13.9095 31.82C14.4562 31.82 14.9062 31.92 15.2595 32.12V31.91C15.2595 31.59 15.1329 31.32 14.8795 31.1C14.6262 30.8733 14.3295 30.76 13.9895 30.76C13.4762 30.76 13.0695 30.9767 12.7695 31.41L11.9595 30.9C12.4062 30.26 13.0662 29.94 13.9395 29.94ZM19.3284 34.32C19.7817 34.32 20.1517 34.1567 20.4384 33.83C20.7384 33.5033 20.8884 33.0767 20.8884 32.55C20.8884 32.0367 20.7384 31.6133 20.4384 31.28C20.145 30.9467 19.775 30.78 19.3284 30.78C18.8884 30.78 18.5184 30.9467 18.2184 31.28C17.9184 31.6133 17.7684 32.0367 17.7684 32.55C17.7684 33.07 17.9184 33.4933 18.2184 33.82C18.5184 34.1533 18.8884 34.32 19.3284 34.32ZM19.1784 35.16C18.5384 35.16 17.9884 34.9067 17.5284 34.4C17.075 33.8867 16.8484 33.27 16.8484 32.55C16.8484 31.83 17.075 31.2133 17.5284 30.7C17.9884 30.1933 18.5384 29.94 19.1784 29.94C19.5384 29.94 19.865 30.0167 20.1584 30.17C20.4584 30.3233 20.6884 30.5267 20.8484 30.78H20.8884L20.8484 30.1V27.84H21.7684V35H20.8884V34.32H20.8484C20.6884 34.5733 20.4584 34.7767 20.1584 34.93C19.865 35.0833 19.5384 35.16 19.1784 35.16ZM25.0413 35.16C24.3213 35.16 23.7279 34.9133 23.2613 34.42C22.7946 33.9267 22.5613 33.3033 22.5613 32.55C22.5613 31.8033 22.7879 31.1833 23.2413 30.69C23.6946 30.19 24.2746 29.94 24.9813 29.94C25.7079 29.94 26.2846 30.1767 26.7113 30.65C27.1446 31.1167 27.3613 31.7733 27.3613 32.62L27.3513 32.72H23.5013C23.5146 33.2 23.6746 33.5867 23.9813 33.88C24.2879 34.1733 24.6546 34.32 25.0813 34.32C25.6679 34.32 26.1279 34.0267 26.4613 33.44L27.2812 33.84C27.0613 34.2533 26.7546 34.5767 26.3613 34.81C25.9746 35.0433 25.5346 35.16 25.0413 35.16ZM23.5713 31.96H26.3813C26.3546 31.62 26.2146 31.34 25.9613 31.12C25.7146 30.8933 25.3813 30.78 24.9613 30.78C24.6146 30.78 24.3146 30.8867 24.0613 31.1C23.8146 31.3133 23.6513 31.6 23.5713 31.96ZM29.1226 35H28.2026V30.1H29.0826V30.9H29.1226C29.2159 30.64 29.4059 30.42 29.6926 30.24C29.9859 30.0533 30.2726 29.96 30.5526 29.96C30.8192 29.96 31.0459 30 31.2326 30.08L30.9526 30.97C30.8392 30.9233 30.6592 30.9 30.4126 30.9C30.0659 30.9 29.7626 31.04 29.5026 31.32C29.2492 31.6 29.1226 31.9267 29.1226 32.3V35ZM34.4742 35.16C34.1142 35.16 33.7842 35.0833 33.4842 34.93C33.1909 34.7767 32.9642 34.5733 32.8042 34.32H32.7642V35H31.8842V27.84H32.8042V30.1L32.7642 30.78H32.8042C32.9642 30.5267 33.1909 30.3233 33.4842 30.17C33.7842 30.0167 34.1142 29.94 34.4742 29.94C35.1209 29.94 35.6676 30.1933 36.1142 30.7C36.5742 31.2133 36.8042 31.83 36.8042 32.55C36.8042 33.2767 36.5742 33.8933 36.1142 34.4C35.6676 34.9067 35.1209 35.16 34.4742 35.16ZM34.3242 34.32C34.7642 34.32 35.1342 34.1533 35.4342 33.82C35.7342 33.4933 35.8842 33.07 35.8842 32.55C35.8842 32.0367 35.7342 31.6133 35.4342 31.28C35.1342 30.9467 34.7642 30.78 34.3242 30.78C33.8776 30.78 33.5042 30.9467 33.2042 31.28C32.9109 31.6133 32.7642 32.0367 32.7642 32.55C32.7642 33.07 32.9109 33.4967 33.2042 33.83C33.5042 34.1567 33.8776 34.32 34.3242 34.32ZM37.3659 32.55C37.3659 31.7967 37.6026 31.1733 38.0759 30.68C38.5559 30.1867 39.1593 29.94 39.8859 29.94C40.6126 29.94 41.2126 30.1867 41.6859 30.68C42.1659 31.1733 42.4059 31.7967 42.4059 32.55C42.4059 33.31 42.1659 33.9333 41.6859 34.42C41.2126 34.9133 40.6126 35.16 39.8859 35.16C39.1593 35.16 38.5559 34.9133 38.0759 34.42C37.6026 33.9267 37.3659 33.3033 37.3659 32.55ZM38.2859 32.55C38.2859 33.0767 38.4393 33.5033 38.7459 33.83C39.0526 34.1567 39.4326 34.32 39.8859 34.32C40.3393 34.32 40.7193 34.1567 41.0259 33.83C41.3326 33.5033 41.4859 33.0767 41.4859 32.55C41.4859 32.03 41.3326 31.6067 41.0259 31.28C40.7126 30.9467 40.3326 30.78 39.8859 30.78C39.4393 30.78 39.0593 30.9467 38.7459 31.28C38.4393 31.6067 38.2859 32.03 38.2859 32.55ZM43.9116 33.5C43.9116 33.74 44.0116 33.94 44.2116 34.1C44.4183 34.26 44.6583 34.34 44.9316 34.34C45.3183 34.34 45.6616 34.1967 45.9616 33.91C46.2683 33.6233 46.4216 33.2867 46.4216 32.9C46.135 32.6733 45.735 32.56 45.2216 32.56C44.8483 32.56 44.535 32.65 44.2816 32.83C44.035 33.01 43.9116 33.2333 43.9116 33.5ZM45.1016 29.94C45.7816 29.94 46.3183 30.1233 46.7116 30.49C47.105 30.85 47.3016 31.3467 47.3016 31.98V35H46.4216V34.32H46.3816C46.0016 34.88 45.495 35.16 44.8616 35.16C44.3216 35.16 43.8683 35 43.5016 34.68C43.1416 34.36 42.9616 33.96 42.9616 33.48C42.9616 32.9733 43.1516 32.57 43.5316 32.27C43.9183 31.97 44.4316 31.82 45.0716 31.82C45.6183 31.82 46.0683 31.92 46.4216 32.12V31.91C46.4216 31.59 46.295 31.32 46.0416 31.1C45.7883 30.8733 45.4916 30.76 45.1516 30.76C44.6383 30.76 44.2316 30.9767 43.9316 31.41L43.1216 30.9C43.5683 30.26 44.2283 29.94 45.1016 29.94ZM49.2593 35H48.3393V30.1H49.2193V30.9H49.2593C49.3526 30.64 49.5426 30.42 49.8293 30.24C50.1226 30.0533 50.4093 29.96 50.6893 29.96C50.956 29.96 51.1826 30 51.3693 30.08L51.0893 30.97C50.976 30.9233 50.796 30.9 50.5493 30.9C50.2026 30.9 49.8993 31.04 49.6393 31.32C49.386 31.6 49.2593 31.9267 49.2593 32.3V35ZM53.8694 34.32C54.3227 34.32 54.6927 34.1567 54.9794 33.83C55.2794 33.5033 55.4294 33.0767 55.4294 32.55C55.4294 32.0367 55.2794 31.6133 54.9794 31.28C54.686 30.9467 54.316 30.78 53.8694 30.78C53.4294 30.78 53.0594 30.9467 52.7594 31.28C52.4594 31.6133 52.3094 32.0367 52.3094 32.55C52.3094 33.07 52.4594 33.4933 52.7594 33.82C53.0594 34.1533 53.4294 34.32 53.8694 34.32ZM53.7194 35.16C53.0794 35.16 52.5294 34.9067 52.0694 34.4C51.616 33.8867 51.3894 33.27 51.3894 32.55C51.3894 31.83 51.616 31.2133 52.0694 30.7C52.5294 30.1933 53.0794 29.94 53.7194 29.94C54.0794 29.94 54.406 30.0167 54.6994 30.17C54.9994 30.3233 55.2294 30.5267 55.3894 30.78H55.4294L55.3894 30.1V27.84H56.3094V35H55.4294V34.32H55.3894C55.2294 34.5733 54.9994 34.7767 54.6994 34.93C54.406 35.0833 54.0794 35.16 53.7194 35.16Z" fill="#F3001F"/>
<path d="M24.2803 11.0834H22.1666C21.2958 11.0834 20.5833 11.7959 20.5833 12.6667V16.625C20.5833 17.0605 20.9395 17.4167 21.3749 17.4167H24.2803C24.7158 17.4167 25.072 17.0605 25.072 16.625V11.875C25.072 11.4396 24.7158 11.0834 24.2803 11.0834Z" fill="#F3001F"/>
<path d="M29.5528 7.91663H27.439C26.5682 7.91663 25.8557 8.62913 25.8557 9.49996V16.625C25.8557 17.0604 26.212 17.4166 26.6474 17.4166H30.3445C30.7799 17.4166 31.1361 17.0604 31.1361 16.625V9.49996C31.1361 8.62913 30.4315 7.91663 29.5528 7.91663Z" fill="#F3001F"/>
<path d="M34.8334 13.4584H32.7196C32.2842 13.4584 31.928 13.8146 31.928 14.25V16.625C31.928 17.0605 32.2842 17.4167 32.7196 17.4167H35.6251C36.0605 17.4167 36.4167 17.0605 36.4167 16.625V15.0417C36.4167 14.1709 35.7042 13.4584 34.8334 13.4584Z" fill="#F3001F"/>
<path d="M30.883 3.83955C31.1284 3.59413 31.2234 3.30121 31.1442 3.04788C31.0651 2.79455 30.8196 2.61246 30.4713 2.55705L29.7113 2.43038C29.6796 2.43038 29.6084 2.37496 29.5926 2.3433L29.173 1.50413C28.8563 0.862881 28.1359 0.862881 27.8192 1.50413L27.3996 2.3433C27.3917 2.37496 27.3205 2.43038 27.2888 2.43038L26.5288 2.55705C26.1805 2.61246 25.943 2.79455 25.8559 3.04788C25.7767 3.30121 25.8717 3.59413 26.1171 3.83955L26.703 4.4333C26.7346 4.45705 26.7584 4.55205 26.7505 4.58371L26.5842 5.31205C26.4576 5.8583 26.6634 6.10371 26.798 6.19871C26.9326 6.29371 27.2255 6.42038 27.7084 6.13538L28.4209 5.7158C28.4526 5.69205 28.5555 5.69205 28.5871 5.7158L29.2917 6.13538C29.5134 6.26996 29.6955 6.30955 29.838 6.30955C30.0042 6.30955 30.123 6.24621 30.1942 6.19871C30.3288 6.10371 30.5346 5.8583 30.408 5.31205L30.2417 4.58371C30.2338 4.54413 30.2576 4.45705 30.2892 4.4333L30.883 3.83955Z" fill="#F3001F"/>
</svg>
