<svg width="19" height="19" viewBox="0 0 19 19" fill="none" xmlns="http://www.w3.org/2000/svg">
<path d="M7.91699 14.9888C7.91699 15.8566 8.62949 16.5666 9.50033 16.5666C10.3712 16.5666 11.0837 15.8566 11.0837 14.9888C11.0837 14.1211 10.3712 13.4111 9.50033 13.4111C8.62949 13.4111 7.91699 14.1211 7.91699 14.9888Z" fill="#B0B0B0"/>
<path d="M7.91699 3.94438C7.91699 4.81216 8.62949 5.52216 9.50033 5.52216C10.3712 5.52216 11.0837 4.81216 11.0837 3.94438C11.0837 3.0766 10.3712 2.3666 9.50033 2.3666C8.62949 2.3666 7.91699 3.0766 7.91699 3.94438Z" fill="#B0B0B0"/>
<path d="M7.91699 9.46672C7.91699 10.3345 8.62949 11.0445 9.50033 11.0445C10.3712 11.0445 11.0837 10.3345 11.0837 9.46672C11.0837 8.59894 10.3712 7.88894 9.50033 7.88894C8.62949 7.88894 7.91699 8.59894 7.91699 9.46672Z" fill="#B0B0B0"/>
</svg>
