<svg width="20" height="20" viewBox="0 0 20 20" fill="none" xmlns="http://www.w3.org/2000/svg">
<path d="M9.74544 2.79189C7.06165 2.79189 4.88057 4.97297 4.88057 7.65676V10C4.88057 10.4946 4.66976 11.2486 4.41841 11.6703L3.48598 13.2189C2.9103 14.1757 3.3076 15.2378 4.36165 15.5946C7.85625 16.7622 11.6265 16.7622 15.1211 15.5946C16.1022 15.2703 16.5319 14.1108 15.9968 13.2189L15.0644 11.6703C14.8211 11.2486 14.6103 10.4946 14.6103 10V7.65676C14.6103 4.98108 12.4211 2.79189 9.74544 2.79189Z" stroke="white" stroke-width="1.5" stroke-miterlimit="10" stroke-linecap="round"/>
<path d="M11.2461 3.02703C10.9947 2.95406 10.7353 2.8973 10.4677 2.86487C9.68934 2.76757 8.94339 2.82433 8.24609 3.02703C8.48123 2.42703 9.06501 2.00541 9.74609 2.00541C10.4272 2.00541 11.011 2.42703 11.2461 3.02703Z" stroke="white" stroke-width="1.5" stroke-miterlimit="10" stroke-linecap="round" stroke-linejoin="round"/>
<path d="M12.1783 15.8865C12.1783 17.2243 11.0837 18.3189 9.74591 18.3189C9.08104 18.3189 8.46483 18.0432 8.02699 17.6054C7.58915 17.1676 7.31348 16.5514 7.31348 15.8865" stroke="white" stroke-width="1.5" stroke-miterlimit="10"/>
</svg>
