<svg width="306" height="182" viewBox="0 0 306 182" fill="none" xmlns="http://www.w3.org/2000/svg">
<g clip-path="url(#clip0_126_1521)">
<path d="M17.8027 182C6.09882 182 -2.3958 168.795 0.609065 155.33C4.55718 137.641 9.8968 125.32 33.6225 111.076C54.1909 98.7146 70.6791 80.5988 81.0464 58.9713C95.7041 28.4088 102.825 0 130.366 0C171.118 0 171.333 37.1663 183.484 40.946C195.634 44.7256 236.364 33.501 245.462 66.6328C262.28 127.877 284.854 98.3528 302.374 145.515C303.468 148.489 304.411 151.517 305.198 154.586C308.728 168.206 300.159 181.999 288.184 181.999L17.8027 182Z" fill="#F3F5FD"/>
<path d="M170.425 5.58936H111.18C105.105 5.58936 100.18 10.5142 100.18 16.5894V115.27C100.18 121.345 105.105 126.27 111.18 126.27H170.425C176.5 126.27 181.425 121.345 181.425 115.27V16.5894C181.425 10.5142 176.5 5.58936 170.425 5.58936Z" fill="#ECF0F3"/>
<path d="M174.41 37.8313H110.337C108.288 37.8313 106.626 39.4912 106.626 41.5389C106.626 43.5865 108.288 45.2465 110.337 45.2465H174.41C176.46 45.2465 178.121 43.5865 178.121 41.5389C178.121 39.4912 176.46 37.8313 174.41 37.8313Z" fill="white"/>
<path d="M178.122 41.5383C178.122 42.0249 178.026 42.5069 177.84 42.9566C177.654 43.4064 177.381 43.8151 177.037 44.1595C176.693 44.5039 176.284 44.7772 175.834 44.9638C175.384 45.1503 174.902 45.2466 174.415 45.247H162.462V37.8318H174.41C174.897 37.8316 175.379 37.9272 175.83 38.1134C176.28 38.2995 176.689 38.5724 177.034 38.9165C177.379 39.2606 177.652 39.6692 177.839 40.1189C178.026 40.5686 178.122 41.0507 178.122 41.5375L178.122 41.5383Z" fill="#E6E6E6"/>
<path d="M171.632 5.63452H110.107C104.625 5.63452 100.18 10.0791 100.18 15.5619H181.559C181.559 10.0791 177.115 5.63452 171.632 5.63452Z" fill="#E6E6E6"/>
<path d="M174.285 12.56C174.995 12.56 175.57 11.9869 175.57 11.28C175.57 10.5731 174.995 10 174.285 10C173.575 10 173 10.5731 173 11.28C173 11.9869 173.575 12.56 174.285 12.56Z" fill="#F3001F"/>
<path d="M134.836 86.3032C134.553 86.303 134.274 86.2414 134.017 86.1226C133.76 86.0038 133.533 85.8306 133.35 85.6152C133.167 85.3997 133.033 85.1471 132.958 84.8748C132.883 84.6026 132.867 84.3172 132.913 84.0385L135.697 67.3766C135.782 66.8679 136.065 66.4136 136.486 66.1139C136.906 65.8141 137.428 65.6934 137.937 65.7782C138.447 65.8631 138.901 66.1466 139.201 66.5663C139.502 66.9861 139.622 67.5078 139.537 68.0166L136.754 84.6784C136.678 85.1321 136.444 85.5443 136.093 85.8418C135.742 86.1392 135.296 86.3027 134.836 86.3032V86.3032Z" fill="#B0B0B0"/>
<path d="M138.765 68.5234C135.989 68.5254 133.315 67.474 131.285 65.5819C129.255 63.6897 128.02 61.0979 127.83 58.3307C127.639 55.5635 128.508 52.8275 130.26 50.6758C132.013 48.5241 134.517 47.1175 137.268 46.7403C140.019 46.3632 142.81 47.0437 145.078 48.6442C147.346 50.2447 148.92 52.6458 149.483 55.3618C150.046 58.0779 149.556 60.9062 148.111 63.2748C146.666 65.6435 144.375 67.3756 141.701 68.1209C140.745 68.3871 139.758 68.5225 138.765 68.5234V68.5234ZM136.868 50.7921C135.295 51.2297 133.923 52.1987 132.985 53.5339C132.047 54.869 131.601 56.4878 131.724 58.1143C131.847 59.7408 132.531 61.2744 133.658 62.4539C134.786 63.6333 136.289 64.3856 137.909 64.5826C139.53 64.7795 141.169 64.4089 142.547 63.5339C143.925 62.6589 144.957 61.3337 145.467 59.784C145.976 58.2343 145.932 56.5561 145.342 55.0353C144.752 53.5144 143.652 52.2451 142.23 51.4435C141.423 50.9861 140.534 50.6931 139.614 50.5812C138.694 50.4694 137.76 50.5411 136.868 50.7921V50.7921Z" fill="#B0B0B0"/>
<path d="M118.864 179.097L113.263 178.432C113.515 176.314 113.8 173.77 113.82 173.353C113.82 173.38 113.82 173.402 113.82 173.419H119.46C119.459 173.588 119.459 174.102 118.864 179.097Z" fill="#E98862"/>
<path d="M96.3904 179.771L90.7502 179.752C90.7502 179.752 90.769 173.934 90.769 173.419H96.4092C96.4092 173.936 96.3904 179.771 96.3904 179.771Z" fill="#E98862"/>
<path d="M120.945 177.149C120.478 165.341 120.45 152.939 120.304 141.1C118.363 128.331 117.344 114.326 114.949 101.646L114.878 101.667L114.668 100.237L94.2353 98.9784C94.2353 98.9784 93.7024 108.98 93.5165 112.313C92.5207 130.179 90.4996 158.895 89.2966 176.999L99.1986 177.834C100.967 160.03 103.851 131.666 105.449 114.117C107.203 123.059 108.857 133.128 110.414 142.176C110.754 153.734 111.04 165.779 111.009 177.318L120.945 177.149Z" fill="#262626"/>
<path d="M103.247 181.95C103.539 181.949 103.819 181.831 104.025 181.624C104.231 181.416 104.346 181.135 104.345 180.843C104.345 180.816 104.345 180.789 104.342 180.762C104.325 180.553 104.249 180.353 104.123 180.185C103.996 180.017 103.825 179.889 103.628 179.816L97.0628 177.619C96.9356 177.577 96.8009 177.563 96.6677 177.578C96.5346 177.592 96.4063 177.636 96.2915 177.705C95.3889 178.33 94.3093 178.65 93.2114 178.617C92.3562 178.556 91.5354 178.257 90.8425 177.752C90.7816 177.702 90.7078 177.671 90.6296 177.661C90.5515 177.652 90.4722 177.665 90.4011 177.698C90.33 177.732 90.2699 177.785 90.2279 177.852C90.1859 177.918 90.1637 177.996 90.1638 178.074V181.281C90.1638 181.472 90.2396 181.654 90.3745 181.789C90.5094 181.924 90.6923 182 90.8831 182H90.8858L103.247 181.95Z" fill="#C1D8ED"/>
<path d="M125.736 181.95C125.881 181.949 126.024 181.92 126.158 181.864C126.291 181.808 126.412 181.726 126.514 181.624C126.616 181.521 126.697 181.399 126.752 181.265C126.807 181.131 126.834 180.988 126.834 180.843C126.834 180.816 126.834 180.789 126.831 180.763C126.814 180.553 126.738 180.353 126.612 180.185C126.485 180.017 126.314 179.889 126.117 179.816L119.552 177.619C119.425 177.577 119.29 177.563 119.157 177.578C119.024 177.592 118.895 177.636 118.78 177.705C117.878 178.33 116.798 178.65 115.7 178.617C114.845 178.556 114.024 178.257 113.331 177.752C113.27 177.702 113.197 177.671 113.118 177.661C113.04 177.652 112.961 177.665 112.89 177.698C112.819 177.732 112.759 177.785 112.717 177.852C112.675 177.918 112.652 177.996 112.653 178.074V181.281C112.653 181.472 112.728 181.654 112.863 181.789C112.998 181.924 113.181 182 113.372 182H113.375L125.736 181.95Z" fill="#C1D8ED"/>
<path d="M100.856 71.4681C100.856 71.4681 102.932 70.368 102.469 64.7186L106.76 63.9236C106.76 63.9236 106.276 68.9889 108.448 70.5969L100.856 71.4681Z" fill="#E98862"/>
<path d="M100.034 62.5278C100.331 64.2418 101.267 65.865 102.781 66.4183C104.578 67.0756 105.909 67.1202 107.98 67.1202C110.807 67.1202 110.713 64.175 110.793 61.207C110.873 58.2288 110.635 55.0311 109.518 53.9927C107.289 51.9203 100.743 53.2326 99.9466 56.6992C99.5354 58.4922 99.7503 60.8963 100.034 62.5278Z" fill="#E98862"/>
<path d="M112.539 53.96C112.067 52.2276 110.593 51.3813 108.156 52.0177C106.422 52.4704 106.203 52.0634 104.735 51.3574C103.894 50.9531 101.136 51.1377 100.453 53.0027C99.7217 55.0005 97.4583 53.3826 97.248 56.6372C97.0721 59.3613 97.9939 63.2552 99.846 65.4465C100.487 66.205 101.533 67.1143 102.344 67.3391C103.14 67.5602 106.58 67.3659 106.914 67.169C108.557 66.1945 108.389 61.7251 108.128 58.8579C108.085 58.3863 108.172 57.6023 109.384 57.6023C110.217 57.6023 110.678 57.5824 111.108 57.2728C111.107 57.2728 113.013 55.6922 112.539 53.96Z" fill="#0F1011"/>
<path d="M109.755 61.7698C109.788 62.2039 109.648 62.6334 109.365 62.9644C109.082 63.2954 108.679 63.5011 108.244 63.5365C107.81 63.572 107.379 63.4343 107.046 63.1535C106.713 62.8728 106.505 62.4718 106.467 62.0381C106.446 61.8262 106.467 61.6123 106.528 61.4086C106.59 61.2048 106.692 61.0152 106.827 60.8506C106.962 60.686 107.128 60.5496 107.316 60.4492C107.504 60.3488 107.71 60.2863 107.922 60.2654C107.94 60.2635 107.958 60.2619 107.976 60.2608C109.152 60.2235 109.681 60.8626 109.755 61.7698Z" fill="#E98862"/>
<path d="M88.2219 108.645C88.2219 109.445 88.6447 112.118 87.9649 112.309C87.5572 112.423 87.0759 110.43 87.0759 110.43" fill="#E98862"/>
<path d="M85.0132 108.225C85.0132 108.225 82.7937 113.622 85.325 116.722C85.3896 116.801 85.4765 116.859 85.5744 116.888C85.6722 116.917 85.7765 116.915 85.8735 116.884C85.9706 116.852 86.0559 116.793 86.1184 116.712C86.1809 116.631 86.2176 116.534 86.2237 116.432C86.347 114.342 86.7689 110.048 88.1486 110.55V107.179" fill="#E98862"/>
<path d="M135.061 79.4724C135.061 79.4724 138.228 75.6168 138.623 74.796C140.013 71.9072 139.319 70.5836 138.74 70.1608C138.057 69.6607 134.889 73.9122 134.889 73.9122C134.889 73.9122 135.164 72.3829 134.571 72.2823C134.328 72.2412 134.134 72.4803 133.753 73.5626C133.319 74.7968 132.45 76.6524 132.45 76.6524L135.061 79.4724Z" fill="#E98862"/>
<path d="M131.797 76.2021L122.628 86.5072L115.457 73.6835C114.778 71.6575 113.233 70.3004 110.08 70.1655C109.001 70.1193 103.74 70.1118 99.8871 70.1118C97.2991 70.1118 95.1743 70.9052 93.9472 72.1308C93.3292 72.7394 92.8667 73.4876 92.5989 74.3122L92.5619 74.2985L86.3966 91.0437C86.3277 91.2316 86.2781 91.4259 86.2486 91.6238L83.7603 108.369L89.5532 109.228L91.9973 92.7791L94.487 86.0159C94.7463 87.0555 94.888 88.1208 94.9095 89.1919C94.9095 94.8263 92.358 97.3532 92.546 100.246C92.8414 104.793 114.953 103.718 116.08 101.136C117.24 98.4726 114.886 96.8316 114.989 88.1205C115 87.1723 115.073 86.1807 115.174 85.1708L119.525 92.9517C119.753 93.3591 120.075 93.7062 120.465 93.9638C120.854 94.2215 121.3 94.3822 121.764 94.4327C121.87 94.4444 121.976 94.4503 122.082 94.4502C122.495 94.4502 122.904 94.3626 123.281 94.1934C123.658 94.0241 123.995 93.7769 124.27 93.4682L136.325 79.3821L131.797 76.2021Z" fill="#A8091E"/>
<path d="M170.882 41.9606L170.388 42.1914L171.219 43.9677L171.713 43.7369L170.882 41.9606Z" fill="white"/>
<path d="M170.203 42.5087C169.9 42.5088 169.603 42.4188 169.35 42.2503C169.098 42.0818 168.901 41.8422 168.785 41.5619C168.668 41.2817 168.638 40.9732 168.697 40.6757C168.756 40.3781 168.903 40.1048 169.117 39.8902C169.332 39.6757 169.606 39.5296 169.904 39.4704C170.201 39.4112 170.51 39.4416 170.791 39.5577C171.071 39.6738 171.311 39.8704 171.48 40.1226C171.649 40.3749 171.739 40.6714 171.739 40.9748C171.738 41.3814 171.576 41.7712 171.288 42.0587C171.001 42.3463 170.61 42.5081 170.203 42.5087V42.5087ZM170.203 39.9863C170.008 39.9863 169.816 40.0443 169.654 40.153C169.491 40.2616 169.364 40.416 169.289 40.5966C169.214 40.7773 169.195 40.9761 169.233 41.1679C169.271 41.3596 169.365 41.5358 169.504 41.6741C169.642 41.8123 169.818 41.9065 170.01 41.9446C170.202 41.9828 170.401 41.9632 170.582 41.8884C170.763 41.8135 170.917 41.6868 171.026 41.5242C171.135 41.3617 171.193 41.1705 171.193 40.975C171.193 40.7129 171.088 40.4616 170.903 40.2762C170.717 40.0909 170.466 39.9866 170.203 39.9863V39.9863Z" fill="white"/>
<path d="M264.432 181.457C269.926 180.545 275.331 179.109 280.806 173.776C281.929 172.684 283.041 171.24 282.717 169.705C282.474 168.549 281.428 167.688 280.295 167.35C279.872 167.228 279.436 167.156 278.997 167.135C278.994 167.135 278.992 167.135 278.991 167.133C278.314 167.111 277.636 167.15 276.966 167.251L276.775 167.278C273.58 167.732 270.47 168.654 267.545 170.015C267.28 170.137 266.981 170.166 266.698 170.098C266.414 170.029 266.162 169.866 265.983 169.636C265.803 169.405 265.707 169.121 265.711 168.829C265.714 168.538 265.816 168.256 266 168.029C266.335 167.619 266.712 167.244 267.123 166.91C267.729 166.429 268.378 166.006 269.062 165.645C269.973 165.154 270.931 164.736 271.871 164.304C275.367 162.696 278.728 160.811 281.923 158.668C284.203 157.136 286.466 155.399 287.78 152.987C288.384 151.878 288.77 150.557 288.396 149.351C287.776 147.37 285.372 146.511 283.294 146.622C279.655 146.816 276.466 149.028 273.599 151.274C271.221 153.141 268.56 155.205 265.548 154.929C265.031 154.907 264.532 154.734 264.113 154.432C263.329 153.799 263.273 152.571 263.707 151.662C264.141 150.753 264.95 150.09 265.73 149.453C270.261 145.756 274.752 141.88 278.027 137.041C281.302 132.201 283.276 126.228 282.246 120.475C281.944 118.793 281.372 117.119 280.307 115.78C279.241 114.442 277.623 113.474 275.91 113.469C273.577 113.458 271.586 115.155 270.153 116.992C265.225 123.293 264.323 131.715 262.127 139.404C261.512 141.557 260.746 143.746 259.191 145.375C259.047 145.532 258.87 145.657 258.673 145.74C257.511 146.217 256.716 144.828 256.457 143.707C255.436 139.27 255.697 134.391 253.315 130.51C252.405 129.032 251.013 127.711 249.291 127.487C247.189 127.215 245.15 128.723 244.263 130.647C243.375 132.571 243.444 134.802 243.828 136.885C244.542 140.749 246.274 144.367 248.45 147.638C249.598 149.364 250.921 151.131 251.053 153.197C251.084 153.897 250.935 154.594 250.621 155.221C250.307 155.848 249.838 156.385 249.258 156.779C248.988 156.956 248.685 157.078 248.367 157.135C248.05 157.193 247.723 157.187 247.408 157.116C246.727 156.959 246.152 156.523 245.597 156.099C245.364 155.921 245.131 155.741 244.896 155.563C243.97 154.855 243.044 154.146 242.117 153.436C239.763 151.633 236.883 149.726 234.052 150.616C232.606 151.072 231.546 152.21 230.93 153.599C230.377 154.859 230.187 156.249 230.382 157.612C230.802 160.448 234.758 168.721 236.55 170.96C238.642 173.578 245.635 184.581 264.432 181.457Z" fill="#3B5998"/>
<path d="M33.5871 180.292C28.2677 178.645 23.1066 176.493 18.4041 170.47C17.4391 169.235 16.5321 167.654 17.0612 166.177C17.4592 165.065 18.6106 164.352 19.7803 164.171C20.2161 164.107 20.6577 164.095 21.0963 164.135C21.0985 164.135 21.1006 164.135 21.1014 164.135C21.7756 164.204 22.4421 164.334 23.0924 164.525L23.2783 164.578C26.3819 165.459 29.3384 166.793 32.0522 168.537C32.2981 168.693 32.5898 168.762 32.8799 168.732C33.1699 168.702 33.4412 168.575 33.6498 168.371C33.8583 168.168 33.9917 167.9 34.0284 167.611C34.065 167.322 34.0028 167.029 33.8517 166.78C33.5748 166.328 33.2526 165.905 32.8902 165.519C32.3555 164.96 31.7698 164.453 31.1406 164.003C30.3043 163.394 29.4121 162.849 28.5389 162.293C25.2928 160.227 22.2175 157.905 19.3425 155.349C17.2906 153.523 15.284 151.497 14.3085 148.929C13.8605 147.749 13.6567 146.388 14.1912 145.244C15.0732 143.366 17.5715 142.839 19.6148 143.229C23.1947 143.914 26.0548 146.536 28.591 149.149C30.6943 151.32 33.051 153.724 36.0728 153.858C36.5879 153.906 37.1057 153.802 37.5624 153.559C38.4245 153.038 38.6461 151.829 38.3388 150.87C38.0316 149.91 37.3207 149.143 36.6344 148.407C32.6458 144.134 28.7207 139.686 26.1306 134.448C23.5404 129.211 22.3936 123.026 24.1933 117.465C24.7208 115.839 25.5136 114.257 26.7507 113.076C27.9878 111.895 29.722 111.154 31.42 111.38C33.7332 111.684 35.4755 113.634 36.6476 115.648C40.6763 122.558 40.43 131.024 41.5647 138.94C41.8822 141.155 42.3436 143.428 43.665 145.252C43.7869 145.428 43.9449 145.575 44.1286 145.684C45.2158 146.313 46.1913 145.045 46.5995 143.968C48.211 139.711 48.6139 134.842 51.4989 131.318C52.6001 129.976 54.1579 128.855 55.8942 128.866C58.016 128.88 59.8303 130.65 60.4491 132.676C61.0679 134.702 60.6975 136.904 60.0347 138.916C58.804 142.647 56.5982 145.999 53.9991 148.945C52.6294 150.501 51.0794 152.072 50.6688 154.101C50.5429 154.791 50.5957 155.501 50.8219 156.165C51.0481 156.829 51.4404 157.424 51.9614 157.893C52.2051 158.105 52.4888 158.266 52.7959 158.366C53.1029 158.467 53.4269 158.504 53.7488 158.477C54.445 158.413 55.0745 158.059 55.6826 157.714C55.9372 157.569 56.1929 157.422 56.4499 157.278C57.4632 156.702 58.4767 156.125 59.4905 155.547C62.0675 154.078 65.1796 152.577 67.8637 153.842C69.2335 154.489 70.1308 155.76 70.553 157.219C70.9308 158.543 70.9308 159.946 70.553 161.27C69.7535 164.024 64.7138 171.687 62.635 173.663C60.2065 175.971 51.7882 185.927 33.5871 180.292Z" fill="#3B5998"/>
</g>
<defs>
<clipPath id="clip0_126_1521">
<rect width="306" height="182" fill="white"/>
</clipPath>
</defs>
</svg>
