<svg width="293" height="167" viewBox="0 0 293 167" fill="none" xmlns="http://www.w3.org/2000/svg">
<g clip-path="url(#clip0_126_570)">
<path d="M293 167H0C3.21055 158.774 9.13938 151.796 17.4974 149.725C29.7237 146.701 42.6625 155.016 54.8624 151.89C61.7932 150.115 67.2496 144.944 72.983 140.65C94.6136 124.446 124.256 119.657 149.851 128.234C163.23 132.715 175.422 140.55 189.128 143.883C206.85 148.192 225.384 144.618 243.608 144.03C261.357 143.456 286.789 150.722 293 167Z" fill="#F3F5FD"/>
<path d="M256.711 125.596C255.299 129.896 250.423 133.718 251.879 136.88C252.433 138.082 252.989 139.339 253.245 140.624C253.411 141.39 253.439 142.179 253.327 142.955C252.801 146.304 249.682 148.528 246.782 150.26C246.603 150.367 246.422 150.475 246.241 150.584C243.493 152.238 240.614 154.143 239.732 157.197C239.242 158.894 239.458 160.708 239.255 162.462C239.062 164.075 238.517 165.624 237.659 167H219.137C217.492 165.179 217.629 162.119 218.881 159.972C220.22 157.674 222.483 156.113 224.525 154.414C226.289 152.946 228.008 151.178 228.681 149.023C228.788 148.681 228.867 148.332 228.918 147.978C229.081 146.811 228.993 140.852 231.006 137.184C234.118 131.52 239.166 132.915 240.709 129.719C241.301 128.495 241.811 113.451 251.645 116.23C252.604 116.488 253.5 116.939 254.28 117.556C255.06 118.173 255.707 118.943 256.181 119.82C256.655 120.696 256.946 121.66 257.037 122.653C257.129 123.646 257.018 124.647 256.711 125.596Z" fill="#DEE8F5"/>
<path d="M274.699 149.118C274.417 149.313 274.113 149.475 273.794 149.601C271.141 150.602 263.762 150.491 262.682 153.123C262.175 154.361 262.053 155.727 261.618 156.993C260.632 159.865 258.027 162.019 255.113 162.828C254.065 163.119 252.979 163.254 251.941 163.578C249.937 164.206 248.277 165.467 246.818 167H222.897C222.886 165.406 223.276 163.835 224.031 162.434C224.786 161.032 225.881 159.844 227.214 158.981C229.874 157.295 233.234 156.98 235.845 155.219C237.567 154.057 238.805 152.378 239.788 150.522C240.412 149.307 240.964 148.057 241.44 146.776C242.171 144.871 242.935 142.826 244.595 141.647C245.385 141.086 246.321 140.771 247.259 140.525C249.656 139.894 251.499 140.265 253.245 140.625C255.364 141.059 257.342 141.474 259.998 140.057C264.708 137.542 271.595 125.001 278.478 136.917C281.237 141.695 277.43 147.282 274.699 149.118Z" fill="#3B5998"/>
<path d="M37.0333 125.596C38.4461 129.896 43.3222 133.718 41.8661 136.88C41.3121 138.082 40.7558 139.339 40.4997 140.624C40.3336 141.39 40.3059 142.179 40.4181 142.955C40.9435 146.304 44.0626 148.528 46.9629 150.26C47.1418 150.367 47.3227 150.475 47.5037 150.584C50.2519 152.238 53.1302 154.143 54.0133 157.197C54.5033 158.894 54.2869 160.708 54.4901 162.462C54.6826 164.075 55.2275 165.624 56.086 167H74.608C76.2524 165.179 76.1156 162.119 74.8639 159.972C73.5249 157.674 71.2615 156.113 69.2198 154.414C67.4559 152.946 65.7364 151.178 65.0632 149.023C64.9563 148.681 64.8774 148.332 64.8272 147.978C64.6638 146.811 64.7521 140.852 62.7391 137.184C59.6252 131.52 54.5775 132.915 53.035 129.719C52.4434 128.495 51.9335 113.451 42.0998 116.23C41.1409 116.488 40.2442 116.939 39.4644 117.556C38.6846 118.173 38.038 118.943 37.564 119.82C37.09 120.696 36.7985 121.66 36.7072 122.653C36.616 123.646 36.7269 124.647 37.0333 125.596Z" fill="#DEE8F5"/>
<path d="M19.0456 149.118C19.328 149.313 19.6317 149.475 19.9507 149.601C22.6039 150.602 29.9832 150.491 31.0625 153.123C31.5702 154.361 31.6916 155.727 32.1265 156.993C33.1132 159.865 35.7178 162.019 38.6315 162.828C39.6801 163.119 40.7655 163.254 41.8036 163.578C43.8078 164.206 45.4677 165.468 46.9267 167H70.8479C70.8585 165.406 70.4683 163.836 69.7136 162.434C68.9588 161.032 67.8639 159.844 66.5304 158.981C63.8705 157.295 60.5108 156.98 57.8996 155.219C56.1778 154.057 54.9395 152.378 53.9573 150.522C53.3325 149.307 52.7806 148.057 52.3045 146.776C51.5739 144.871 50.8101 142.826 49.1502 141.647C48.36 141.086 47.424 140.771 46.4859 140.525C44.0888 139.894 42.2456 140.265 40.4996 140.625C38.3798 141.059 36.4028 141.473 33.7458 140.056C29.0352 137.541 22.1482 124.999 15.2658 136.916C12.5073 141.695 16.3152 147.282 19.0456 149.118Z" fill="#3B5998"/>
<path d="M225.338 34.24C223.728 33.7152 221.995 33.7152 220.385 34.24C219.46 34.5502 218.634 35.103 217.992 35.8413C217.174 36.8156 216.57 38.1646 216.63 39.4567C216.672 40.1252 216.883 40.772 217.242 41.3364C217.601 41.9009 218.096 42.3645 218.682 42.6839C219.721 43.2187 221.283 43.3297 222.192 42.4737C222.885 41.8221 222.849 40.7028 222.402 39.9261C221.688 38.6849 220.128 38.1802 218.773 38.353C218.001 38.4643 217.259 38.7304 216.591 39.1356C215.923 39.5407 215.343 40.0766 214.885 40.7114C214.453 41.3121 214.14 41.9907 213.963 42.7102C213.798 43.378 213.731 44.144 213.992 44.7968C214.039 44.9509 214.143 45.081 214.283 45.1606C214.422 45.2402 214.587 45.2632 214.743 45.225C215.033 45.1449 215.292 44.78 215.169 44.471C215.093 44.2971 215.051 44.1106 215.043 43.9209C215.032 43.6869 215.051 43.4523 215.098 43.2229C215.206 42.6927 215.404 42.1848 215.681 41.721C216.244 40.7969 217.112 40.1019 218.135 39.7588C219.113 39.4302 220.267 39.4334 221.052 40.1779C221.198 40.31 221.317 40.4692 221.404 40.6467C221.415 40.6666 221.45 40.7564 221.409 40.6507C221.427 40.6986 221.444 40.7476 221.458 40.7978C221.468 40.8289 221.476 40.8609 221.483 40.892C221.493 40.934 221.508 41.1308 221.499 40.9515C221.501 41.0004 221.544 41.2895 221.498 41.3172C221.484 41.3254 221.534 41.143 221.506 41.2502C221.501 41.2689 221.501 41.2886 221.495 41.3069C221.484 41.359 221.469 41.4103 221.452 41.4606C221.374 41.5882 221.256 41.6868 221.117 41.7412C221.206 41.6991 221.025 41.7733 221.026 41.7729C220.988 41.7845 220.95 41.7939 220.912 41.8032C220.8 41.8327 220.685 41.8504 220.57 41.8562C220.371 41.8702 220.172 41.8649 219.974 41.8404C219.763 41.8026 219.556 41.7405 219.359 41.6554C218.926 41.4442 218.558 41.1205 218.293 40.7179C218.027 40.3154 217.873 39.8487 217.848 39.3663C217.86 38.8178 217.983 38.2775 218.21 37.7783C218.3 37.5758 218.403 37.3792 218.518 37.1897C218.618 37.0206 218.731 36.8593 218.856 36.7073C218.983 36.5564 219.119 36.4137 219.264 36.2802C219.334 36.2152 219.406 36.1525 219.481 36.0921C219.626 35.9739 219.387 36.1579 219.537 36.0488C219.583 36.0156 219.629 35.983 219.675 35.9512C219.837 35.8416 220.004 35.7418 220.177 35.6523C220.267 35.6059 220.358 35.5624 220.449 35.521C220.469 35.5121 220.558 35.4764 220.455 35.5182C220.514 35.4943 220.573 35.4712 220.633 35.4491C221.031 35.3062 221.443 35.2026 221.861 35.1399C222.036 35.1119 221.734 35.1514 221.91 35.1338C221.962 35.1285 222.014 35.122 222.068 35.117C222.172 35.1071 222.277 35.0993 222.381 35.0938C222.588 35.0829 222.794 35.0802 223 35.0859C223.199 35.0909 223.398 35.1032 223.596 35.1228C223.639 35.1273 223.934 35.1649 223.766 35.1405C223.858 35.1537 223.95 35.1676 224.041 35.1836C224.37 35.24 224.695 35.3193 225.013 35.4207C225.763 35.6614 226.083 34.4782 225.337 34.2385L225.338 34.24Z" fill="#C4C4C4"/>
<path d="M108.822 11.7546C110.379 11.1926 112.002 12.3291 112.735 13.7208C113.455 15.0926 113.287 17.0521 111.877 17.9297C111.277 18.3025 110.438 18.4276 109.915 17.949C109.37 17.4498 109.403 16.8278 109.942 16.3286C110.068 16.2149 110.206 16.1146 110.353 16.0292C110.438 15.9775 110.525 15.9286 110.614 15.8836C110.647 15.8672 110.68 15.8514 110.713 15.8359C110.803 15.7938 110.581 15.8836 110.745 15.8222C110.877 15.7722 111.012 15.7301 111.149 15.6961C111.214 15.6804 111.279 15.6664 111.345 15.654C111.383 15.6469 111.421 15.6406 111.459 15.6345C111.334 15.6545 111.52 15.6288 111.529 15.628C111.839 15.5993 112.152 15.6045 112.46 15.6435C112.564 15.6566 112.378 15.6301 112.481 15.6473C112.522 15.6542 112.563 15.661 112.603 15.6683C112.674 15.6815 112.745 15.6964 112.816 15.7131C112.988 15.7537 113.158 15.8037 113.325 15.863C113.372 15.8798 113.516 15.9351 113.515 15.9347C113.464 15.9136 113.559 15.9544 113.557 15.9538C113.595 15.9712 113.633 15.9891 113.671 16.0076C113.831 16.0857 113.986 16.1732 114.136 16.2697C114.393 16.4328 114.626 16.632 114.827 16.8612C115.024 17.0839 115.188 17.3346 115.313 17.6053C115.337 17.6552 115.358 17.7068 115.375 17.7598C115.413 17.8632 115.445 17.9685 115.476 18.0751C115.542 18.3035 115.592 18.5364 115.625 18.7721C115.732 19.6389 115.594 20.5183 115.228 21.3104C114.862 22.1025 114.282 22.7755 113.554 23.2527C113.264 23.4352 112.934 23.5454 112.593 23.5744C112.251 23.6034 111.908 23.5502 111.592 23.4192C111.504 23.3767 111.419 23.3275 111.339 23.2721C111.243 23.2073 111.384 23.3175 111.329 23.2656C111.315 23.2521 111.3 23.2391 111.286 23.2248C111.268 23.2057 111.251 23.1857 111.234 23.1664C111.393 23.3429 111.252 23.1991 111.262 23.1947C111.248 23.1727 111.236 23.1498 111.225 23.1262C111.259 23.1794 111.252 23.2326 111.236 23.1439C111.232 23.1228 111.197 22.9444 111.208 23.0449C111.219 23.1392 111.211 22.9852 111.21 22.9547C111.209 22.9242 111.214 22.895 111.215 22.8649C111.215 22.8883 111.184 22.998 111.213 22.8893C111.231 22.8172 111.245 22.7451 111.268 22.6739C111.28 22.6379 111.342 22.4948 111.294 22.5982C111.326 22.5295 111.361 22.4624 111.398 22.3968C111.439 22.327 111.482 22.2596 111.529 22.1938C111.534 22.1868 111.597 22.1046 111.55 22.1654C111.578 22.1307 111.607 22.0971 111.636 22.0641C111.888 21.7792 112.183 21.5355 112.511 21.3418C112.611 21.2809 112.714 21.2222 112.818 21.169C112.854 21.151 113.018 21.0808 112.884 21.1337C113.012 21.0828 113.144 21.0394 113.277 21.0038C113.547 20.9226 113.828 20.8841 114.11 20.8897C114.269 20.8872 114.428 20.8932 114.587 20.9075C114.641 20.9087 114.694 20.9158 114.746 20.9286C114.842 20.9464 114.938 20.9664 115.034 20.9916C115.351 21.0644 115.65 21.2021 115.912 21.3961C116.396 21.7889 116.736 22.3313 116.88 22.9387C117.044 23.5717 117.059 24.2342 116.924 24.874C116.798 25.5068 116.522 26.0997 116.119 26.6025C115.915 26.8515 115.675 27.0683 115.407 27.2455C114.752 27.6749 115.363 28.7379 116.023 28.3043C117.535 27.3132 118.345 25.4544 118.226 23.6628C118.183 22.754 117.879 21.8772 117.35 21.1386C116.779 20.3836 115.939 19.8807 115.007 19.7359C113.247 19.446 111.366 20.1504 110.392 21.7021C110.007 22.3159 109.815 23.1552 110.209 23.8138C110.709 24.6493 111.917 24.8858 112.806 24.7756C113.9 24.6409 114.801 23.9769 115.486 23.1338C116.247 22.2341 116.725 21.1272 116.857 19.9541C116.977 18.8624 116.77 17.7597 116.263 16.7866C115.837 16.0428 115.21 15.4356 114.454 15.0354C113.008 14.2545 111.137 14.1042 109.703 14.99C108.764 15.5695 108.029 16.5915 108.381 17.7415C108.548 18.2591 108.877 18.7086 109.318 19.0233C109.76 19.3381 110.291 19.5011 110.832 19.4883C113.154 19.4488 114.617 17.0079 114.347 14.8639C114.065 12.64 112.255 10.6477 110 10.3959C109.493 10.3394 108.979 10.3992 108.498 10.571C108.344 10.6178 108.214 10.7221 108.135 10.8625C108.055 11.0029 108.033 11.1686 108.072 11.3252C108.116 11.4812 108.219 11.6135 108.36 11.6936C108.5 11.7737 108.666 11.7951 108.822 11.7534L108.822 11.7546Z" fill="#C4C4C4"/>
<path d="M176.62 28.1488C178.397 27.9809 180.068 27.2224 181.369 25.9932C182.116 25.2612 182.637 24.3277 182.869 23.3052C183.157 22.0415 183.042 20.5417 182.322 19.4418C181.986 18.9508 181.543 18.5426 181.028 18.2478C180.512 17.9529 179.937 17.7791 179.345 17.7391C178.214 17.691 176.769 18.1946 176.284 19.3142C175.896 20.2096 176.376 21.2722 177.145 21.793C178.364 22.6193 179.954 22.4287 181.161 21.6842C181.817 21.2591 182.381 20.7054 182.819 20.0562C183.257 19.407 183.56 18.6757 183.71 17.906C183.974 16.5444 183.815 14.855 182.79 13.8353C182.556 13.602 182.12 13.6978 181.932 13.9366C181.835 14.0657 181.792 14.2273 181.811 14.3878C181.829 14.5483 181.909 14.6954 182.033 14.7985C181.942 14.7074 182.076 14.8533 182.082 14.8615C182.108 14.8945 182.133 14.9286 182.156 14.963C182.202 15.0253 182.241 15.0923 182.272 15.1629C182.372 15.3782 182.448 15.6038 182.499 15.8356C182.598 16.3282 182.62 16.8336 182.562 17.333C182.432 18.4229 181.918 19.4302 181.115 20.1739C180.356 20.8675 179.319 21.3371 178.302 21.0134C178.097 20.9559 177.907 20.854 177.745 20.7147C177.714 20.6887 177.683 20.6615 177.654 20.6334C177.748 20.7236 177.624 20.5972 177.614 20.5842C177.591 20.5562 177.57 20.5281 177.55 20.5001C177.529 20.4707 177.423 20.2815 177.501 20.437C177.448 20.3319 177.425 20.1972 177.368 20.098C177.371 20.1037 177.385 20.2416 177.374 20.1159C177.363 20.0525 177.36 19.988 177.366 19.924C177.396 19.7211 177.356 19.9439 177.391 19.8352C177.395 19.8205 177.457 19.6913 177.42 19.7566C177.451 19.7092 177.484 19.6637 177.52 19.6204C177.534 19.6013 177.63 19.4989 177.557 19.5696C177.707 19.4323 177.875 19.3174 178.058 19.2286C178.424 19.0307 178.837 18.9363 179.252 18.9554C179.166 18.9522 179.299 18.961 179.319 18.9633C179.372 18.9694 179.425 18.9741 179.477 18.9818C179.584 18.9967 179.689 19.0178 179.793 19.0449C179.721 19.0258 179.825 19.0548 179.831 19.0567C179.894 19.0777 179.956 19.0987 180.017 19.1241C180.131 19.1705 180.242 19.2226 180.351 19.2803C180.745 19.495 181.082 19.7992 181.338 20.1686C181.886 21.0094 181.874 22.1888 181.661 23.1207C181.635 23.2335 181.619 23.2888 181.602 23.3466C181.57 23.4475 181.535 23.5472 181.496 23.6455C181.42 23.8368 181.333 24.0229 181.233 24.2028C181.138 24.3756 181.296 24.1082 181.191 24.2744C181.17 24.3084 181.148 24.342 181.126 24.3753C181.072 24.4582 181.014 24.5393 180.955 24.6188C180.825 24.7913 180.684 24.9555 180.534 25.1104C180.506 25.1384 180.479 25.1661 180.451 25.1932C180.542 25.1037 180.397 25.2422 180.378 25.2588C180.299 25.3299 180.218 25.3987 180.135 25.4654C179.956 25.6097 179.769 25.7441 179.575 25.868C179.487 25.9245 179.398 25.9773 179.308 26.0309C179.282 26.0466 179.172 26.108 179.279 26.0489C179.23 26.0761 179.18 26.1021 179.13 26.128C178.933 26.2292 178.733 26.3218 178.528 26.4059C178.167 26.5528 177.796 26.6757 177.418 26.7737C177.385 26.7825 177.274 26.8071 177.406 26.7771C177.36 26.7876 177.313 26.7981 177.267 26.8082C177.177 26.8275 177.086 26.845 176.995 26.8609C176.827 26.8904 176.659 26.9134 176.489 26.9301C175.706 27.0081 175.835 28.2275 176.617 28.1493L176.62 28.1488Z" fill="#C4C4C4"/>
<path d="M126.192 -0.000741504L124.256 1.24976L127.204 5.8559L129.14 4.6054L126.192 -0.000741504Z" fill="#C4C4C4"/>
<path d="M164.438 40.2768L161.109 45.3269L163.028 46.6037L166.357 41.5536L164.438 40.2768Z" fill="#C4C4C4"/>
<path d="M56.6658 14.7983L53.7483 19.2856L55.675 20.5502L58.5924 16.0629L56.6658 14.7983Z" fill="#C4C4C4"/>
<path d="M239.616 60.9297L237.382 61.4839L238.81 67.2963L241.044 66.7422L239.616 60.9297Z" fill="#C4C4C4"/>
<path d="M244.222 14.7755L242.328 16.0876L245.839 21.2055L247.733 19.8933L244.222 14.7755Z" fill="#C4C4C4"/>
<path d="M75.8134 37.8034L71.511 42.9214L73.2691 44.4133L77.5715 39.2953L75.8134 37.8034Z" fill="#C4C4C4"/>
<path d="M111.136 74.8217L106.978 79.1102L108.626 80.7236L112.784 76.435L111.136 74.8217Z" fill="#C4C4C4"/>
<path d="M200.724 69.3508L198.788 70.6013L201.736 75.2075L203.671 73.957L200.724 69.3508Z" fill="#C4C4C4"/>
<path d="M253.602 37.8311C254.078 34.7423 253.136 32.6491 251.637 31.357C250.158 30.0826 245.183 28.4392 242.707 31.929C241.091 34.206 241.463 35.1578 240.54 39.0463C239.616 42.9348 238.183 43.149 236.104 47.7231C234.473 51.311 240.312 54.187 245.641 54.7835C250.97 55.3801 254.501 54.6872 255.295 51.3425C256.434 46.5429 252.67 43.8843 253.602 37.8311Z" fill="#0F1011"/>
<path d="M249.215 45.9261C249.215 45.9261 247.746 44.8276 248.772 40.508L245.562 39.3828C245.562 39.3828 245.334 43.3623 243.472 44.3498L249.215 45.9261Z" fill="#E98862"/>
<g opacity="0.15">
<path opacity="0.15" d="M244.275 43.6341L247.342 41.948L245.19 41.593C245.014 42.3247 244.703 43.0169 244.275 43.6341Z" fill="black"/>
</g>
<path d="M250.905 39.1008C250.474 40.3929 249.561 41.5391 248.33 41.7874C246.982 42.0979 245.58 42.0725 244.244 41.7134C240.673 40.8575 242.651 32.7053 244.613 31.3655C246.576 30.0257 251.46 31.8193 251.663 34.5981C251.767 36.0353 251.316 37.8712 250.905 39.1008Z" fill="#E98862"/>
<path d="M245.934 37.284C246.102 37.284 246.237 37.1476 246.237 36.9794C246.237 36.8112 246.102 36.6748 245.934 36.6748C245.767 36.6748 245.631 36.8112 245.631 36.9794C245.631 37.1476 245.767 37.284 245.934 37.284Z" fill="#0F1011"/>
<path d="M243.6 36.7244C243.767 36.7244 243.903 36.588 243.903 36.4198C243.903 36.2516 243.767 36.1152 243.6 36.1152C243.433 36.1152 243.297 36.2516 243.297 36.4198C243.297 36.588 243.433 36.7244 243.6 36.7244Z" fill="#0F1011"/>
<path d="M243.996 35.8123C243.989 35.8124 243.982 35.8119 243.975 35.8108L243.18 35.6984C243.161 35.6963 243.143 35.6905 243.126 35.6812C243.109 35.6719 243.094 35.6593 243.083 35.6441C243.071 35.629 243.062 35.6116 243.057 35.5931C243.052 35.5745 243.051 35.5551 243.054 35.5361C243.057 35.5171 243.063 35.4988 243.073 35.4823C243.083 35.4658 243.096 35.4515 243.111 35.4402C243.127 35.4289 243.144 35.4209 243.163 35.4165C243.181 35.4122 243.201 35.4117 243.22 35.415L244.015 35.5275C244.05 35.5326 244.083 35.5511 244.105 35.5792C244.128 35.6073 244.139 35.643 244.136 35.679C244.134 35.7151 244.118 35.7488 244.092 35.7736C244.066 35.7983 244.031 35.8121 243.995 35.8123H243.996Z" fill="#0F1011"/>
<path d="M246.686 36.5352C246.667 36.5353 246.649 36.5316 246.632 36.5245L245.879 36.2147C245.861 36.2079 245.845 36.1976 245.831 36.1844C245.817 36.1712 245.806 36.1554 245.799 36.1379C245.791 36.1203 245.787 36.1015 245.787 36.0824C245.787 36.0633 245.79 36.0443 245.797 36.0266C245.805 36.009 245.815 35.9929 245.829 35.9794C245.842 35.966 245.858 35.9553 245.876 35.9482C245.894 35.941 245.912 35.9375 245.931 35.9378C245.95 35.938 245.969 35.9422 245.987 35.9498L246.74 36.2599C246.77 36.2724 246.796 36.2952 246.811 36.3244C246.827 36.3536 246.832 36.3874 246.826 36.4199C246.819 36.4525 246.802 36.4818 246.776 36.5028C246.751 36.5239 246.719 36.5353 246.686 36.5352H246.686Z" fill="#0F1011"/>
<path d="M245.433 39.3285C245.433 39.3285 244.309 39.2751 243.576 38.8833C243.576 38.8833 243.47 39.6163 244.334 39.8233C245.198 40.0303 245.433 39.3285 245.433 39.3285Z" fill="white"/>
<path d="M248.998 35.2864C248.302 38.3634 248.163 41.5409 248.586 44.6674C248.586 44.6674 251.778 40.6911 252.728 37.115C253.618 33.7627 251.425 31.3641 249.794 30.7249C243.594 28.2921 242.474 32.9288 242.474 32.9288C242.659 34.5928 249.519 36.6023 249.519 36.6023" fill="#0F1011"/>
<path d="M247.249 38.51C247.207 38.6758 247.199 38.8481 247.225 39.017C247.25 39.1859 247.308 39.3481 247.397 39.4942C247.485 39.6402 247.601 39.7673 247.738 39.8679C247.876 39.9685 248.032 40.0407 248.197 40.0804C248.363 40.12 248.534 40.1262 248.702 40.0988C248.87 40.0713 249.031 40.0106 249.175 39.9203C249.319 39.83 249.444 39.7117 249.543 39.5725C249.641 39.4333 249.711 39.2758 249.749 39.1091C249.791 38.9441 249.8 38.7722 249.774 38.6037C249.749 38.4353 249.69 38.2737 249.601 38.1285C249.512 37.9834 249.395 37.8577 249.257 37.7589C249.119 37.6602 248.963 37.5904 248.797 37.5536C247.896 37.3842 247.413 37.8164 247.249 38.51Z" fill="#E98862"/>
<g opacity="0.15">
<path opacity="0.15" d="M244.365 38.4454C244.349 38.4454 244.333 38.4418 244.319 38.4349L243.632 38.1011C243.619 38.0946 243.607 38.0853 243.597 38.0739C243.588 38.0624 243.581 38.0491 243.577 38.0348C243.573 38.0205 243.572 38.0055 243.574 37.9908C243.577 37.9761 243.582 37.962 243.59 37.9496L244.226 36.9616C244.242 36.9382 244.265 36.9218 244.292 36.9159C244.319 36.9101 244.348 36.9153 244.371 36.9304C244.394 36.9456 244.411 36.9694 244.417 36.9966C244.422 37.0239 244.417 37.0524 244.402 37.0758L243.83 37.9639L244.411 38.2459C244.432 38.2563 244.449 38.2736 244.459 38.2951C244.47 38.3166 244.472 38.3409 244.467 38.364C244.462 38.3872 244.449 38.4079 244.43 38.4227C244.412 38.4376 244.389 38.4456 244.365 38.4456L244.365 38.4454Z" fill="black"/>
</g>
<path d="M274.649 92.9568L256.887 96.2092C256.361 96.3057 255.818 96.2498 255.323 96.0479C254.827 95.8461 254.399 95.5067 254.088 95.0693L253.954 94.8801L246.101 83.8052L253.109 79.7401L258.003 90.5166L274.001 88.5916L274.649 92.9568Z" fill="#E98862"/>
<path d="M277.942 97.8308C277.969 97.9462 277.973 98.0661 277.953 98.1831C277.932 98.3 277.888 98.4114 277.823 98.5104C277.757 98.6094 277.673 98.6938 277.573 98.7583C277.474 98.8229 277.363 98.8662 277.246 98.8856C277.085 98.9124 276.919 98.8922 276.768 98.8276C276.618 98.7629 276.489 98.6563 276.397 98.5205L273.509 93.9438C273.454 93.8551 273.418 93.7553 273.404 93.6514C273.391 93.5474 273.4 93.4418 273.431 93.3416C273.736 92.5385 273.777 91.6581 273.547 90.8299C273.342 90.1914 272.962 89.6238 272.451 89.1918C272.402 89.1549 272.364 89.1047 272.342 89.047C272.32 88.9894 272.315 88.9267 272.328 88.8663C272.34 88.8058 272.369 88.7502 272.412 88.7058C272.454 88.6614 272.509 88.6302 272.568 88.6157L274.996 88.0143C275.068 87.9965 275.142 87.9932 275.215 88.0044C275.288 88.0156 275.358 88.0412 275.421 88.0797C275.484 88.1182 275.539 88.1688 275.583 88.2286C275.626 88.2885 275.657 88.3563 275.675 88.4284L277.942 97.8308Z" fill="#C1D8ED"/>
<path d="M236.075 98.0321L242.511 122.97L238.296 124.213L230.293 99.762L236.075 98.0321Z" fill="#E98862"/>
<path d="M233.733 127.843C233.621 127.882 233.502 127.896 233.384 127.886C233.266 127.876 233.152 127.842 233.048 127.786C232.944 127.729 232.852 127.652 232.779 127.558C232.706 127.465 232.653 127.357 232.624 127.242C232.583 127.083 232.588 126.915 232.639 126.759C232.689 126.603 232.783 126.464 232.909 126.359L237.187 123.059C237.27 122.996 237.366 122.951 237.468 122.928C237.57 122.905 237.675 122.904 237.777 122.926C238.601 123.16 239.477 123.122 240.277 122.818C240.892 122.555 241.421 122.124 241.803 121.574C241.835 121.521 241.882 121.479 241.937 121.452C241.992 121.425 242.054 121.415 242.115 121.421C242.176 121.428 242.233 121.453 242.281 121.491C242.329 121.53 242.365 121.581 242.385 121.64L243.198 124.015C243.222 124.085 243.232 124.159 243.228 124.233C243.223 124.307 243.204 124.38 243.172 124.446C243.139 124.513 243.094 124.572 243.039 124.621C242.983 124.67 242.919 124.707 242.849 124.731L233.733 127.843Z" fill="#C1D8ED"/>
<path d="M234.362 65.925C234.362 65.925 228.835 83.8143 227.324 88.9209C223.906 100.472 230.293 109.097 230.293 109.097C230.293 109.097 238.934 110.335 243.23 104.583C251.176 93.9455 261.346 101.349 261.782 89.5586C255.997 88.462 249.509 67.3899 249.509 67.3899L234.362 65.925Z" fill="#262626"/>
<path d="M43.7461 47.6573C43.7461 47.6573 45.3196 46.7166 44.7421 42.3138L48.05 41.5266C48.05 41.5266 47.8692 45.5086 49.6191 46.6834L43.7461 47.6573Z" fill="#E98862"/>
<g opacity="0.15">
<path opacity="0.15" d="M48.8955 45.8888L46.0176 43.8945L48.1946 43.7639C48.2944 44.5099 48.5321 45.2306 48.8955 45.8888Z" fill="black"/>
</g>
<path d="M42.7643 40.6934C43.0612 42.0231 43.8522 43.2578 45.0506 43.6322C46.4732 44.0772 47.5107 44.0608 49.1225 43.9811C51.3217 43.8722 51.1361 41.5714 51.084 39.246C51.0317 36.9113 50.7246 34.4196 49.8156 33.65C48.0011 32.1141 42.9591 33.3932 42.4723 36.1363C42.221 37.5549 42.4817 39.4276 42.7643 40.6934Z" fill="#E98862"/>
<path d="M52.0517 34.8905C52.0517 34.8905 52.9425 34.6439 52.6515 33.7537C52.4588 33.1632 51.7021 33.3333 51.7021 33.3333C51.7021 33.3333 52.4182 33.1651 52.3871 32.531C52.3676 32.1316 52.0291 31.4701 51.1266 31.9025C50.0678 32.4097 48.8319 32.4124 47.8867 32.3004C47.3506 32.21 46.8085 32.1602 46.2649 32.1516H46.2622C45.6388 32.1714 45.022 32.2855 44.4325 32.4902C42.7814 33.0769 40.3192 34.712 41.0261 38.108C41.815 41.8981 43.6707 43.2707 44.4781 43.6993C44.5259 43.7251 44.5789 43.7397 44.6331 43.7419C44.6874 43.7441 44.7414 43.7338 44.7911 43.712C44.8408 43.6901 44.8849 43.6572 44.9201 43.6156C44.9553 43.5741 44.9806 43.5251 44.9942 43.4723C45.1825 42.7454 45.4775 40.9251 45.1877 37.2161C50.3265 36.7074 51.8048 36.5571 51.8048 36.5571C51.8048 36.5571 53.0197 36.5426 52.9764 35.6533C52.9331 34.7639 52.0517 34.8905 52.0517 34.8905Z" fill="#0F1011"/>
<path d="M47.9267 39.4019C48.0941 39.4019 48.2298 39.2655 48.2298 39.0973C48.2298 38.9291 48.0941 38.7927 47.9267 38.7927C47.7593 38.7927 47.6235 38.9291 47.6235 39.0973C47.6235 39.2655 47.7593 39.4019 47.9267 39.4019Z" fill="#0F1011"/>
<path d="M50.3056 39.0869C50.473 39.0869 50.6087 38.9506 50.6087 38.7824C50.6087 38.6141 50.473 38.4778 50.3056 38.4778C50.1382 38.4778 50.0024 38.6141 50.0024 38.7824C50.0024 38.9506 50.1382 39.0869 50.3056 39.0869Z" fill="#0F1011"/>
<path d="M49.9889 38.1378C49.952 38.1372 49.9167 38.1223 49.8905 38.096C49.8643 38.0698 49.8493 38.0344 49.8487 37.9973C49.848 37.9602 49.8617 37.9242 49.8869 37.8971C49.9121 37.8699 49.9468 37.8536 49.9837 37.8517L50.7862 37.8221C50.8237 37.8211 50.8601 37.835 50.8875 37.8608C50.9148 37.8866 50.9309 37.9222 50.9323 37.9599C50.9337 37.9976 50.9202 38.0343 50.8948 38.062C50.8694 38.0898 50.8342 38.1064 50.7967 38.1082L49.9942 38.1378H49.9889Z" fill="#0F1011"/>
<path d="M47.2399 38.5786C47.2057 38.5784 47.1727 38.566 47.1469 38.5434C47.1211 38.5208 47.1042 38.4897 47.0993 38.4557C47.0945 38.4217 47.102 38.387 47.1205 38.3581C47.1389 38.3292 47.1671 38.3079 47.1999 38.2981L47.9816 38.0669C48.0175 38.0572 48.0559 38.062 48.0883 38.0804C48.1208 38.0987 48.1448 38.1291 48.1553 38.165C48.1657 38.2009 48.1618 38.2395 48.1442 38.2726C48.1267 38.3056 48.097 38.3304 48.0615 38.3417L47.2801 38.5718C47.2671 38.576 47.2535 38.5783 47.2399 38.5786Z" fill="#0F1011"/>
<path d="M46.3879 39.9197C46.4126 40.0891 46.4035 40.2617 46.3612 40.4275C46.3189 40.5933 46.2442 40.7491 46.1415 40.8856C46.0387 41.0222 45.91 41.1368 45.7627 41.2229C45.6154 41.309 45.4526 41.3649 45.2837 41.3872C45.1147 41.4095 44.9431 41.3978 44.7787 41.3528C44.6143 41.3078 44.4604 41.2305 44.3261 41.1252C44.1917 41.02 44.0795 40.8889 43.996 40.7397C43.9125 40.5905 43.8594 40.4261 43.8397 40.256C43.8147 40.0875 43.8238 39.9156 43.8663 39.7507C43.9088 39.5858 43.9839 39.4311 44.0871 39.2959C44.1903 39.1607 44.3196 39.0478 44.4671 38.9638C44.6147 38.8798 44.7775 38.8265 44.946 38.8071C45.859 38.7329 46.2952 39.2128 46.3879 39.9197Z" fill="#E98862"/>
<g opacity="0.15">
<path opacity="0.15" d="M49.3483 40.7183C49.3238 40.7182 49.3002 40.7094 49.2815 40.6935C49.2628 40.6776 49.2502 40.6556 49.246 40.6314C49.2417 40.6071 49.2461 40.5822 49.2583 40.5608C49.2705 40.5395 49.2898 40.5232 49.3127 40.5146L49.9195 40.2941L49.4416 39.3516C49.4347 39.3393 49.4303 39.3256 49.4287 39.3115C49.4272 39.2974 49.4285 39.2832 49.4325 39.2696C49.4366 39.256 49.4434 39.2434 49.4524 39.2326C49.4615 39.2217 49.4726 39.2127 49.4852 39.2063C49.4977 39.1999 49.5115 39.196 49.5255 39.1951C49.5396 39.1941 49.5538 39.196 49.5671 39.2007C49.5804 39.2053 49.5927 39.2126 49.6031 39.2222C49.6135 39.2317 49.6219 39.2433 49.6278 39.2562L50.1596 40.3049C50.1665 40.3181 50.1704 40.3328 50.1712 40.3477C50.1719 40.3627 50.1695 40.3776 50.1641 40.3915C50.1586 40.4055 50.1503 40.4181 50.1396 40.4285C50.1289 40.4389 50.1161 40.4469 50.1021 40.452L49.3843 40.7129C49.3727 40.7168 49.3605 40.7187 49.3483 40.7183Z" fill="black"/>
</g>
<path d="M48.1841 41.4864C48.1841 41.4864 49.3075 41.5494 50.0774 41.2356C50.0774 41.2356 50.1076 41.9755 49.2268 42.0922C48.346 42.2088 48.1841 41.4864 48.1841 41.4864Z" fill="white"/>
<path d="M56.6813 27.5871L58.9044 26.4882C58.9044 26.4882 58.8678 23.268 56.0286 21.8582C55.0871 21.3909 54.5451 22.4513 54.7403 22.7591C55.3855 23.7762 56.1211 24.6973 56.2148 25.7294C55.8403 25.4444 55.3053 25.0856 55.1754 25.2501C54.8342 25.6831 56.6813 27.5871 56.6813 27.5871Z" fill="#E98862"/>
<path d="M19.809 93.5792C19.6811 93.5473 19.292 93.4495 15.6248 92.049L17.1859 87.923C18.7401 88.5164 20.6107 89.2155 20.9224 89.3103C20.9025 89.3042 20.8858 89.3002 20.8728 89.2968L19.809 93.5792Z" fill="#E98862"/>
<path d="M12.4749 96.8711C12.442 96.9852 12.4329 97.1048 12.448 97.2225C12.4632 97.3402 12.5024 97.4535 12.5631 97.5554C12.6238 97.6572 12.7048 97.7454 12.801 97.8143C12.8971 97.8833 13.0064 97.9316 13.122 97.9562C13.2822 97.9904 13.4488 97.9778 13.6021 97.9201C13.7555 97.8623 13.8892 97.7617 13.9875 97.6302L17.0774 93.1895C17.1368 93.1033 17.1771 93.0053 17.1954 92.902C17.2137 92.7988 17.2096 92.6928 17.1834 92.5913C16.9144 91.7752 16.9131 90.8939 17.1799 90.0771C17.4138 89.4486 17.8188 88.8988 18.3487 88.4905C18.3995 88.4558 18.4393 88.4073 18.4637 88.3507C18.4881 88.2941 18.4959 88.2318 18.4863 88.1709C18.4768 88.11 18.4501 88.0531 18.4096 88.0068C18.369 87.9605 18.3162 87.9268 18.2573 87.9095L15.8581 87.1984C15.7873 87.1774 15.7132 87.1707 15.6398 87.1786C15.5665 87.1866 15.4954 87.209 15.4307 87.2445C15.366 87.2801 15.3089 87.3282 15.2627 87.386C15.2166 87.4438 15.1822 87.5102 15.1616 87.5814L12.4749 96.8711Z" fill="#C1D8ED"/>
<path d="M37.773 107.449L37.0249 103.1C38.6637 102.815 40.6279 102.46 40.9441 102.381C40.9231 102.386 40.9074 102.391 40.8947 102.395L42.1485 106.626C42.0223 106.664 41.6382 106.778 37.773 107.449Z" fill="#E98862"/>
<path d="M37.5055 113.211C37.535 113.326 37.5877 113.434 37.6605 113.527C37.7332 113.621 37.8244 113.698 37.9282 113.755C38.0321 113.812 38.1465 113.846 38.2642 113.856C38.3819 113.866 38.5005 113.852 38.6125 113.814C38.7676 113.762 38.9046 113.666 39.0073 113.537C39.11 113.409 39.174 113.254 39.192 113.091L39.6003 107.688C39.6079 107.584 39.5929 107.479 39.5563 107.381C39.5198 107.282 39.4625 107.193 39.3884 107.119C38.7437 106.555 38.2964 105.797 38.1122 104.957C37.9949 104.297 38.0648 103.617 38.3139 102.994C38.34 102.938 38.3498 102.876 38.3421 102.815C38.3344 102.754 38.3096 102.696 38.2704 102.648C38.2313 102.601 38.1795 102.566 38.1211 102.546C38.0627 102.527 38.0002 102.525 37.9407 102.541L35.5163 103.156C35.4448 103.174 35.3776 103.206 35.3184 103.251C35.2593 103.295 35.2095 103.351 35.1718 103.414C35.1341 103.478 35.1094 103.549 35.0989 103.622C35.0885 103.695 35.0925 103.77 35.1109 103.842L37.5055 113.211Z" fill="#C1D8ED"/>
<path d="M61.5521 99.451L61.5311 99.2732C60.9811 94.6799 57.9179 72.2882 57.5561 69.9214H41.7166C41.7166 69.9214 35.5532 90.1604 35.3147 90.7212L20.1722 87.4774L18.2717 95.0169L36.9145 100.526C37.904 100.817 38.9641 100.751 39.9097 100.338C40.8554 99.9244 41.6265 99.1905 42.0885 98.2642C42.0885 98.2642 48.8567 80.8932 48.9925 80.5732L53.1709 97.166L39.0361 101.208L41.1552 108.688L58.7725 103.65C59.6572 103.397 60.423 102.835 60.9324 102.065C61.4418 101.296 61.6615 100.369 61.5521 99.451Z" fill="#262626"/>
<path d="M27.3731 31.4048L25.0032 32.1306C25.0032 32.1306 23 29.3154 24.1115 26.3359C24.48 25.3479 25.5969 25.7492 25.6647 26.1078C25.8863 27.2931 25.8143 28.9119 26.4488 29.7289C26.5281 29.2635 26.6739 28.6342 26.8809 28.6649C27.4248 28.746 27.3731 31.4048 27.3731 31.4048Z" fill="#E98862"/>
<path d="M236.346 23.0078L234.022 22.144C234.022 22.144 233.729 18.9372 236.409 17.2418C237.297 16.6797 237.945 17.6786 237.783 18.005C237.245 19.0831 236.607 20.0755 236.62 21.1118C236.963 20.7895 237.458 20.3773 237.605 20.5276C237.988 20.923 236.346 23.0078 236.346 23.0078Z" fill="#E98862"/>
<path d="M264.54 29.354L267.013 29.5072C267.013 29.5072 268.31 26.3017 266.541 23.6626C265.955 22.7882 264.96 23.4388 264.978 23.8033C265.036 25.0079 265.48 26.5655 265.052 27.5084C264.867 27.0742 264.58 26.4961 264.386 26.5743C263.875 26.7795 264.54 29.354 264.54 29.354Z" fill="#E98862"/>
<path d="M268.467 28.8516L265.9 42.3842C265.838 42.7082 265.708 43.0151 265.518 43.2839C265.327 43.5527 265.082 43.777 264.797 43.9416L255.054 49.5814C255.18 52.9402 251.86 56.7721 251.253 60.2722C250.5 64.6233 252.121 66.9145 251.592 69.1215C250.757 72.5922 233.93 68.7978 233.411 66.6517C232.876 64.4427 234.903 63.4903 235.987 56.7536C236.503 53.546 236.221 49.5375 237.06 46.7692L229.244 36.7847C229.014 36.4907 228.859 36.1447 228.793 35.7769C228.727 35.4091 228.751 35.0306 228.863 34.6743L233.213 20.9272L237.56 22.3146L233.577 34.9055L240.342 43.5489C240.943 43.4639 241.552 43.4653 242.152 43.5531C242.282 43.5699 242.491 43.6014 242.761 43.6435C242.619 44.7933 249.638 46.0166 249.989 44.8795C250.881 45.0257 251.743 45.319 252.539 45.7476L261.615 40.4947L263.985 27.9941L268.467 28.8516Z" fill="#A8091E"/>
<path d="M164.829 147.513C149.118 140.427 147.631 111.815 148.367 109.097C148.639 108.092 148.16 107.831 147.45 107.901C146.501 107.79 144.742 108.685 144.169 108.994C143.596 108.685 141.836 107.789 140.888 107.901C140.177 107.831 139.699 108.092 139.971 109.097C140.707 111.815 139.219 140.427 123.508 147.513C120.207 149.002 121.344 150.775 121.344 150.775H166.994C166.994 150.775 168.13 149.002 164.829 147.513Z" fill="#F7B731"/>
<g opacity="0.09">
<path opacity="0.09" d="M166.992 150.776H164.063C164.063 150.776 165.201 149.002 161.9 147.514C146.188 140.428 146.793 111.816 147.529 109.098C147.743 108.308 147.492 107.978 147.027 107.906C147.167 107.889 147.308 107.888 147.448 107.902C148.159 107.832 148.638 108.093 148.366 109.098C147.63 111.816 149.117 140.428 164.829 147.514C168.131 149.001 166.992 150.776 166.992 150.776Z" fill="black"/>
</g>
<path d="M206.954 73.7904C202.379 80.9393 196.843 82.9362 190.665 84.6977C184.592 86.4297 179.347 87.9242 176.027 93.5386C175.214 94.8715 174.613 96.323 174.244 97.8414V97.8456C174.159 98.2085 174.092 98.5756 174.044 98.9454C173.989 99.4292 173.818 99.8925 173.546 100.296C173.315 100.636 173.001 100.912 172.634 101.096C172.267 101.281 171.859 101.368 171.449 101.35C170.214 101.35 169.493 100.848 169.074 100.224C168.7 99.6496 168.549 98.9575 168.648 98.2784C168.667 98.1332 168.689 97.9876 168.713 97.8414C169.137 95.3302 170.032 92.9228 171.351 90.7472C175.776 83.262 182.897 81.2315 189.179 79.4385C194.941 77.7968 198.916 76.2455 202.379 70.835C204.101 68.1403 205.935 61.9541 203.741 57.0375C202.031 53.2119 199.234 50.9691 195.429 50.3679C185.039 48.7283 180.158 58.8978 179.956 59.3308C179.644 59.9739 179.093 60.4685 178.423 60.7084C177.752 60.9482 177.014 60.9143 176.368 60.6138C175.722 60.3133 175.219 59.7702 174.967 59.1011C174.715 58.4321 174.734 57.6904 175.02 57.0354C176.296 54.4803 178.001 52.1661 180.062 50.1955C184.638 45.8234 190.245 44.0178 196.272 44.97C201.849 45.8486 206.264 49.34 208.703 54.801C211.483 61.0271 209.898 69.1913 206.954 73.7904Z" fill="#F7B731"/>
<path d="M81.393 73.7904C85.9684 80.9393 91.9226 82.9362 98.1006 84.6977C104.174 86.4297 109.419 87.9242 112.739 93.5386C113.552 94.8715 114.153 96.323 114.522 97.8414V97.8456C114.607 98.2085 114.674 98.5756 114.722 98.9454C114.777 99.4292 114.948 99.8924 115.219 100.296C115.451 100.636 115.765 100.912 116.132 101.096C116.499 101.281 116.907 101.368 117.317 101.35C118.551 101.35 119.273 100.848 119.692 100.224C120.066 99.6495 120.217 98.9574 120.118 98.2784C120.098 98.1332 120.077 97.9876 120.053 97.8414C119.629 95.3302 118.733 92.9228 117.415 90.7472C112.99 83.262 105.869 81.2315 99.586 79.4385C93.8243 77.7968 89.4309 76.2455 85.9684 70.835C84.2466 68.1403 82.8303 61.9541 85.0249 57.0375C86.7342 53.2119 89.5313 50.9691 93.3369 50.3679C103.726 48.7283 108.607 58.8978 108.81 59.3308C109.122 59.9739 109.672 60.4685 110.343 60.7084C111.014 60.9482 111.752 60.9143 112.398 60.6138C113.044 60.3133 113.547 59.7702 113.799 59.1011C114.051 58.4321 114.032 57.6904 113.745 57.0354C112.47 54.4803 110.764 52.1661 108.703 50.1955C104.128 45.8234 98.5211 44.0178 92.4937 44.97C86.9162 45.8486 82.5018 49.34 80.0624 54.801C77.2826 61.0271 78.4494 69.1913 81.393 73.7904Z" fill="#F7B731"/>
<path d="M178.976 41.6748C178.868 40.7309 178.419 39.8596 177.714 39.2272C177.008 38.5947 176.095 38.2453 175.15 38.2456H113.56C112.614 38.2453 111.702 38.5947 110.996 39.2272C110.29 39.8596 109.841 40.7309 109.734 41.6748C108.743 50.4731 106.972 74.0665 114.502 87.0842C123.881 103.299 138.114 109.097 141.18 109.097H147.529C150.594 109.097 164.828 103.299 174.206 87.0842C181.737 74.0669 179.967 50.4731 178.976 41.6748Z" fill="#F7B731"/>
<g opacity="0.09">
<path opacity="0.3" d="M178.976 41.6748C178.868 40.7309 178.419 39.8596 177.714 39.2272C177.008 38.5947 176.095 38.2453 175.15 38.2456H162.813C162.813 38.2456 164.91 70.6018 160.984 86.8159C157.057 103.03 147.42 109.097 147.53 109.097C150.596 109.097 164.829 103.299 174.207 87.0842C181.737 74.0669 179.967 50.4731 178.976 41.6748Z" fill="black"/>
</g>
<path d="M166.994 150.775H121.364V161.73H166.994V150.775Z" fill="#0F1011"/>
<path d="M169.773 161.73H118.584V164.365H169.773V161.73Z" fill="#0F1011"/>
<path d="M172.404 164.365H115.953V167H172.404V164.365Z" fill="#0F1011"/>
<path d="M153.887 79.6334L144.319 74.5779L134.744 79.6334L136.576 68.9305L128.833 61.3479L139.531 59.7895L144.319 50.0493L149.095 59.7895L159.798 61.3479L152.055 68.9305L153.887 79.6334Z" fill="white"/>
<path d="M64.6602 37.197L59.5927 25.2117L55.3942 27.0036L59.9067 37.6765L52.8981 45.8423C52.3016 45.7306 51.6923 45.7043 51.0885 45.7641C50.9587 45.7746 50.7495 45.7977 50.4776 45.8272C50.3267 45.8442 50.1522 45.8646 49.9654 45.8865L49.7075 44.512L42.82 45.445L43.0102 46.7642C41.5346 46.9856 40.3099 47.517 39.4618 48.2285L29.6418 42.8995L28.0449 30.4379L23.5205 31.0233L25.2668 44.6503C25.3131 45.0109 25.4441 45.3553 25.649 45.655C25.8539 45.9547 26.1269 46.2011 26.4453 46.3739L37.9967 52.6414C38.4801 55.6559 40.8595 59.0237 41.2447 62.0544C41.8012 66.4349 40.0793 68.6504 40.5082 70.8785C41.1861 74.3823 58.1656 71.3578 58.7807 69.239C59.4146 67.0529 57.4334 66.0122 56.653 59.2314C56.2813 56.0048 56.7447 52.0123 56.0311 49.2093L64.288 39.5895C64.5662 39.2654 64.7486 38.8696 64.8144 38.4467C64.8802 38.0238 64.8267 37.5909 64.6602 37.197Z" fill="url(#paint0_linear_126_570)"/>
<path d="M249.989 44.8793C249.638 46.0165 247.33 47.6434 244.824 47.0317C242.945 46.5756 242.619 44.7931 242.761 43.6433C244.219 43.8745 247.485 44.44 249.983 44.8772C249.984 44.877 249.985 44.8772 249.986 44.8775C249.987 44.8779 249.988 44.8785 249.989 44.8793Z" fill="#E98862"/>
</g>
<defs>
<linearGradient id="paint0_linear_126_570" x1="44.1811" y1="25.2117" x2="44.1811" y2="72.4816" gradientUnits="userSpaceOnUse">
<stop stop-color="#A8091E"/>
<stop offset="1" stop-color="#A8091E"/>
</linearGradient>
<clipPath id="clip0_126_570">
<rect width="293" height="167" fill="white"/>
</clipPath>
</defs>
</svg>
