<svg width="205" height="178" viewBox="0 0 205 178" fill="none" xmlns="http://www.w3.org/2000/svg">
<path d="M205 178H0C2.24624 171.049 6.39434 165.15 12.2421 163.4C20.7965 160.844 29.8491 167.871 38.3843 165.229C43.2336 163.73 47.051 159.359 51.0627 155.728C66.196 142.034 86.9359 137.987 104.844 145.235C114.205 149.022 122.735 155.644 132.324 158.461C144.724 162.103 157.691 159.083 170.442 158.585C182.861 158.101 200.654 164.244 205 178Z" fill="#F3F5FD"/>
<path d="M174.541 160.897C177.021 160.187 178.888 157.975 179.63 155.511C180.372 153.048 180.11 150.375 179.387 147.906C178.795 145.891 177.899 143.944 177.678 141.856C176.943 134.905 183.707 127.802 180.524 121.575C179.495 119.561 177.503 117.988 177.147 115.755C176.853 113.909 177.766 112.115 178.219 110.301C178.844 107.805 178.527 104.973 176.903 102.974C175.278 100.975 172.208 100.102 169.97 101.382C167.042 103.056 166.788 107.189 167.541 110.469C168.294 113.749 169.688 117.124 168.768 120.361C167.892 123.447 165.04 125.77 164.529 128.936C164.103 131.568 165.393 134.135 165.96 136.74C166.85 140.835 165.944 145.08 165.905 149.27C165.867 153.46 167.052 158.159 174.541 160.897Z" fill="#CED6E0"/>
<path d="M178.369 161.295C179.844 160.827 181.169 159.976 182.206 158.83C183.243 157.683 183.955 156.282 184.269 154.771C184.755 152.278 184.159 149.477 185.527 147.334C187.382 144.432 189.284 144.104 191.594 141.545C195.144 137.612 195.269 135.869 195.034 128.584C194.935 125.503 199.203 122.028 197.7 119.067C196.376 116.459 192.351 116.445 190.068 118.28C187.786 120.116 186.784 123.057 185.789 125.808C184.794 128.559 183.54 131.467 181.019 132.96C179.507 133.855 177.528 134.269 176.693 135.812C176.023 137.051 176.36 138.564 176.63 139.947C177.308 143.422 177.138 147.662 174.212 149.669C172.892 150.575 171.163 150.886 170.078 152.062C169.005 153.224 168.832 154.946 168.905 156.524C169.047 159.557 169.886 162.518 171.355 165.178" fill="#3B5998"/>
<path d="M174.84 163.715C177.474 160.715 177.846 155.962 175.711 152.59C173.92 149.761 170.582 147.812 169.881 144.541C169.257 141.627 170.988 138.615 170.47 135.681C169.906 132.49 166.949 130.396 164.6 128.157C163.989 127.612 163.463 126.979 163.04 126.279C162.007 124.425 162.295 122.151 161.944 120.06C161.272 116.053 157.962 112.502 153.943 111.84C150.417 111.259 147.893 113.278 147.893 116.995C147.893 121.4 151.202 123.287 152.891 125.282C155.316 128.169 156.603 131.838 156.511 135.602C156.392 139.806 154.596 144.283 156.515 148.029C157.923 150.778 160.93 152.244 163.293 154.239C165.079 155.764 166.532 157.637 167.564 159.743C168.596 161.85 169.185 164.144 169.294 166.486" fill="#3B5998"/>
<path d="M184.728 156.81H163.471V178H184.728V156.81Z" fill="#E6E6E6"/>
<path opacity="0.42" d="M184.728 160.942H163.471V165.078H184.728V160.942Z" fill="white"/>
<path d="M141.216 2.67822H66.4942C60.7722 2.67822 56.1335 7.3023 56.1335 13.0064V164.994C56.1335 170.698 60.7722 175.322 66.4942 175.322H141.216C146.938 175.322 151.577 170.698 151.577 164.994V13.0064C151.577 7.3023 146.938 2.67822 141.216 2.67822Z" fill="white"/>
<path d="M141.216 178H66.4935C63.0344 177.996 59.718 176.624 57.272 174.186C54.826 171.748 53.4501 168.442 53.446 164.993V13.0066C53.4501 9.55816 54.8261 6.25212 57.2722 3.81376C59.7184 1.37541 63.0349 0.00385605 66.4941 0L141.217 0C144.676 0.0040167 147.992 1.37564 150.438 3.81398C152.884 6.25232 154.26 9.55826 154.264 13.0066V164.993C154.26 168.442 152.884 171.748 150.438 174.186C147.992 176.625 144.675 177.996 141.216 178ZM66.4941 5.35623C64.4599 5.3588 62.5097 6.16551 61.0712 7.59945C59.6328 9.03339 58.8235 10.9775 58.8209 13.0054V164.993C58.8234 167.021 59.6327 168.965 61.0711 170.399C62.5096 171.833 64.4599 172.64 66.4941 172.643H141.217C143.251 172.64 145.201 171.833 146.639 170.399C148.078 168.965 148.887 167.021 148.89 164.993V13.0066C148.887 10.9787 148.078 9.03467 146.639 7.60075C145.201 6.16683 143.251 5.36009 141.217 5.35744L66.4941 5.35623Z" fill="#E6E6E6"/>
<path d="M87.4943 2.67822H120.216V9.00668C120.216 9.62882 120.093 10.2449 119.854 10.8196C119.615 11.3944 119.265 11.9167 118.824 12.3566C118.383 12.7965 117.859 13.1454 117.282 13.3835C116.705 13.6215 116.087 13.744 115.463 13.744H92.2459C90.9855 13.744 89.7768 13.2449 88.8855 12.3565C87.9943 11.468 87.4937 10.2631 87.4937 9.00668V2.67822H87.4943Z" fill="#E6E6E6"/>
<path d="M50.8708 139.429C45.336 138.035 44.7916 137.827 44.6125 137.759L46.8987 131.806C46.8807 131.799 46.8573 131.79 46.8289 131.781C47.279 131.929 50.0901 132.658 52.4368 133.249L50.8708 139.429Z" fill="#E98862"/>
<path d="M50.6221 147.754C50.5666 147.916 50.4782 148.065 50.3623 148.192C50.2464 148.319 50.1056 148.42 49.9486 148.49C49.7917 148.56 49.6219 148.597 49.4499 148.599C49.278 148.6 49.1075 148.567 48.9492 148.5C48.7298 148.407 48.5416 148.253 48.4067 148.057C48.2719 147.862 48.196 147.631 48.188 147.394L48.1922 139.569C48.1928 139.418 48.2263 139.269 48.2902 139.131C48.3542 138.994 48.4472 138.872 48.5628 138.774C49.5613 138.032 50.2947 136.99 50.6553 135.802C50.8985 134.864 50.8722 133.877 50.5795 132.953C50.5481 132.869 50.5411 132.779 50.5592 132.692C50.5773 132.605 50.6198 132.525 50.6817 132.461C50.7437 132.397 50.8226 132.352 50.9092 132.331C50.9958 132.31 51.0866 132.314 51.1711 132.343L54.6213 133.496C54.7231 133.53 54.8171 133.584 54.898 133.654C54.9789 133.724 55.0451 133.81 55.0928 133.906C55.1404 134.002 55.1686 134.106 55.1757 134.213C55.1828 134.32 55.1686 134.427 55.1341 134.528L50.6221 147.754Z" fill="#C1D8ED"/>
<path d="M35.7191 175.074C35.7191 175.074 35.6978 168.473 35.6978 167.888H42.0921C42.0921 168.471 42.1134 175.053 42.1134 175.053L35.7191 175.074Z" fill="#E98862"/>
<path d="M52.4734 83.6714C48.3706 79.5815 29.3085 85.098 29.3085 85.098L29.2912 85.2164L28.9005 84.9979C24.0524 94.7132 17.1873 109.251 12.4363 119.154C12.0734 119.835 11.8547 120.583 11.7939 121.351C11.733 122.12 11.8313 122.893 12.0825 123.622C12.3338 124.351 12.7327 125.021 13.2545 125.59C13.7763 126.159 14.4098 126.615 15.1158 126.93L35.867 136.134C34.8012 147.801 33.5778 159.46 32.5593 171.109L43.7387 172.5C45.7703 158.602 47.8594 144.72 49.7247 130.805L50.0292 130.123L49.8285 130.034C50.9725 121.461 52.0294 112.875 52.9325 104.263C53.1064 102.513 53.2593 100.608 53.3345 98.7566C53.3342 98.7563 54.6806 85.8708 52.4734 83.6714ZM25.506 119.246C29.5067 112.599 34.2127 104.765 38.2877 98.1156C38.0785 106.846 37.5596 115.571 36.8773 124.29L25.506 119.246Z" fill="#262626"/>
<path d="M27.9524 177.668C27.7805 177.667 27.6105 177.631 27.4532 177.562C27.2959 177.493 27.1546 177.392 27.0382 177.266C26.9217 177.14 26.8326 176.991 26.7763 176.829C26.7201 176.667 26.6979 176.495 26.7113 176.324C26.7297 176.087 26.8157 175.861 26.9591 175.671C27.1025 175.481 27.2973 175.336 27.5206 175.253L34.9633 172.768C35.1075 172.72 35.2603 172.704 35.4112 172.721C35.5621 172.738 35.7077 172.787 35.8378 172.865C36.8609 173.573 38.085 173.934 39.3298 173.897C40.2993 173.828 41.23 173.489 42.0157 172.919C42.0847 172.862 42.1684 172.827 42.2571 172.816C42.3457 172.805 42.4356 172.819 42.5163 172.858C42.597 172.896 42.6651 172.956 42.7127 173.031C42.7603 173.107 42.7854 173.194 42.7851 173.283V176.911C42.7851 177.018 42.7639 177.124 42.7227 177.223C42.6816 177.322 42.6212 177.411 42.5451 177.487C42.469 177.562 42.3788 177.622 42.2794 177.663C42.1801 177.704 42.0737 177.724 41.9664 177.724L27.9524 177.668Z" fill="#C1D8ED"/>
<path d="M21.8372 60.7753C21.8372 60.7753 18.6571 57.9205 18.4799 56.9543C18.3027 55.9882 20.7739 54.2632 20.7739 54.2632C20.7739 54.2632 20.1409 53.5432 19.5283 52.7297C18.8209 51.7915 18.1404 50.7288 18.4902 50.5048C18.8276 50.289 19.6589 51.0876 20.4871 52.0528C21.5528 53.2943 22.6106 54.8126 22.6106 54.8126C22.6106 54.8126 22.1993 53.1337 22.846 53.0654C23.1115 53.0375 23.3027 53.3082 23.6432 54.4984C24.0296 55.8555 24.8423 57.9117 24.8423 57.9117L21.8372 60.7753Z" fill="#E98862"/>
<path d="M28.2016 76.6023C27.5411 76.6023 26.8957 76.4059 26.3478 76.0382C25.8 75.6705 25.3746 75.1482 25.1262 74.5382L19.1597 59.888L25.3104 57.399L27.1173 61.8346L28.5356 54.7688L35.0459 56.067L31.4575 73.9454C31.3175 74.6432 30.9555 75.2774 30.4253 75.7538C29.8951 76.2303 29.225 76.5237 28.5143 76.5904C28.4089 76.5977 28.3054 76.6023 28.2016 76.6023Z" fill="#A8091E"/>
<path d="M17.4281 64.7246L21.1191 64.1375C21.2641 64.1144 21.4026 64.061 21.5255 63.9808C21.6484 63.9006 21.7529 63.7955 21.8322 63.6723C21.9116 63.5491 21.964 63.4106 21.986 63.2659C22.0079 63.1211 21.999 62.9734 21.9598 62.8323L19.6375 54.5239C19.5687 54.2778 19.4115 54.0655 19.1958 53.9275C18.9801 53.7895 18.721 53.7354 18.4679 53.7757L14.7769 54.3612C14.6318 54.3843 14.4933 54.4377 14.3704 54.5179C14.2475 54.598 14.143 54.7031 14.0636 54.8263C13.9843 54.9495 13.9319 55.088 13.9099 55.2328C13.888 55.3776 13.8969 55.5253 13.9362 55.6664L16.2597 63.9764C16.3285 64.2222 16.4855 64.4344 16.7009 64.5723C16.9164 64.7103 17.1752 64.7645 17.4281 64.7246Z" fill="#C1D8ED"/>
<path d="M23.3721 62.547L21.1953 65.4914C21.1953 65.4914 15.3442 64.3221 14.7955 59.8289C14.7321 59.3129 14.787 57.8802 15.4297 58.0723C17.1044 58.5725 19.1884 61.1341 20.65 61.475C20.3165 60.8794 19.9097 60.0389 20.1719 59.8853C20.8622 59.481 22.7178 61.9218 23.3721 62.547Z" fill="#E98862"/>
<path d="M52.7988 53.3013C51.4072 51.9141 49.0048 51.0187 46.0756 51.0156C45.8564 52.7185 35.4853 52.7245 35.4062 51.0551C35.0103 51.0612 34.7028 51.0672 34.511 51.0763C27.472 51.3799 27.4924 57.0348 28.1851 63.2849L22.3934 60.7379L19.7139 66.7932L28.9324 70.8457C28.9385 71.0279 28.9427 71.21 28.9452 71.3921C29.0639 81.2452 26.3935 83.1026 27.7092 86.1137C28.9847 89.0368 54.0536 90.2509 54.3885 85.109C54.6017 81.8368 51.709 78.9806 51.709 72.6032C51.709 66.2259 57.5948 58.0805 52.7988 53.3013Z" fill="#A8091E"/>
<path d="M35.4065 51.055C35.4857 52.7245 36.3961 55.1801 39.2066 55.3653C42.9518 55.6112 45.8567 52.7184 46.0759 51.0156H46.0668C42.3794 51.0141 37.5562 51.0201 35.4065 51.055Z" fill="#E98862"/>
<path d="M43.168 47.3033C43.165 47.2487 43.165 47.1941 43.165 47.1394C43.165 46.587 43.1863 45.986 43.2411 45.3304L42.553 45.2029L38.3784 44.4319C38.4607 45.5098 38.4433 46.5929 38.3266 47.6676C38.3144 47.789 38.2992 47.9135 38.2809 48.0379C38.2801 48.0492 38.2781 48.0604 38.2749 48.0713C38.2505 48.2352 38.2231 48.3991 38.1926 48.563C38.1744 48.6693 38.1531 48.7755 38.1287 48.8817C38.1043 49.0183 38.0708 49.1519 38.0343 49.2854C37.9978 49.419 37.9612 49.5495 37.9186 49.68C37.876 49.8106 37.8364 49.9381 37.7877 50.0625C37.6987 50.3082 37.5908 50.5467 37.4649 50.7758V50.7789C37.2343 51.2281 36.9105 51.6234 36.5149 51.9384H44.1637C43.6857 51.1158 43.1924 49.6922 43.168 47.3033Z" fill="#E98862"/>
<path opacity="0.15" d="M37.4597 50.7834L41.5022 47.7012L38.3278 47.6685C38.2357 48.7516 37.9412 49.808 37.4597 50.7834Z" fill="black"/>
<path d="M46.0024 42.8525C45.6656 44.7915 44.6041 46.6279 42.8883 47.2538C40.8513 47.9975 39.3425 48.0479 36.994 48.0479C33.7892 48.0479 33.8952 44.716 33.805 41.3582C33.7137 37.9889 33.9838 34.3714 35.2505 33.1967C37.7777 30.8522 45.1991 32.3371 46.1016 36.2585C46.5684 38.2873 46.323 41.0079 46.0024 42.8525Z" fill="#E98862"/>
<path d="M32.0873 35.1458C32.0873 35.1458 30.775 34.8537 31.1343 33.5491C31.3724 32.6838 32.4844 32.8759 32.4844 32.8759C32.4844 32.8759 31.4314 32.6838 31.4314 31.7674C31.4314 31.1907 31.8766 30.212 33.2191 30.7709C34.7946 31.4268 36.5914 31.3427 37.9573 31.1136C38.7301 30.945 39.5146 30.8347 40.304 30.7836H40.3083C41.2159 30.7681 42.1206 30.8888 42.9921 31.1418C45.4341 31.8703 49.1298 34.0527 48.3442 39.0013C47.4672 44.5239 44.8675 46.6359 43.7238 47.3134C43.6561 47.3539 43.5801 47.3787 43.5014 47.3857C43.4227 47.3927 43.3435 47.3818 43.2696 47.3538C43.1958 47.3259 43.1293 47.2815 43.0752 47.2242C43.021 47.1669 42.9806 47.098 42.9571 47.0229C42.6328 45.9878 42.0741 43.3835 42.2303 38.0133C34.7239 37.6463 32.5641 37.5349 32.5641 37.5349C32.5641 37.5349 30.7981 37.6008 30.7981 36.3141C30.7981 35.0274 32.0873 35.1458 32.0873 35.1458Z" fill="#0F1011"/>
<path d="M38.3843 41.3589C38.628 41.3589 38.8255 41.162 38.8255 40.9191C38.8255 40.6762 38.628 40.4792 38.3843 40.4792C38.1407 40.4792 37.9431 40.6762 37.9431 40.9191C37.9431 41.162 38.1407 41.3589 38.3843 41.3589Z" fill="#0F1011"/>
<path d="M34.9036 41.0742C35.1473 41.0742 35.3448 40.8773 35.3448 40.6344C35.3448 40.3915 35.1473 40.1946 34.9036 40.1946C34.6599 40.1946 34.4624 40.3915 34.4624 40.6344C34.4624 40.8773 34.6599 41.0742 34.9036 41.0742Z" fill="#0F1011"/>
<path d="M34.1389 39.6973H34.1416L35.3106 39.6827C35.3656 39.6823 35.4182 39.6602 35.4568 39.6212C35.4954 39.5822 35.5169 39.5295 35.5166 39.4746C35.5162 39.4198 35.494 39.3674 35.4549 39.3289C35.4157 39.2904 35.3629 39.2689 35.3079 39.2693H35.3051L34.1362 39.2839C34.0812 39.2842 34.0286 39.3063 33.9899 39.3454C33.9513 39.3844 33.9298 39.4371 33.9302 39.4919C33.9305 39.5468 33.9527 39.5992 33.9919 39.6377C34.031 39.6762 34.0839 39.6976 34.1389 39.6973Z" fill="#0F1011"/>
<path d="M39.337 40.122C39.3877 40.1218 39.4366 40.1032 39.4744 40.0695C39.5123 40.0359 39.5365 39.9896 39.5424 39.9394C39.5483 39.8892 39.5356 39.8386 39.5066 39.7971C39.4776 39.7556 39.4344 39.7262 39.3851 39.7143L38.2329 39.4378C38.2063 39.431 38.1786 39.4296 38.1514 39.4336C38.1243 39.4376 38.0982 39.4469 38.0747 39.4611C38.0511 39.4752 38.0307 39.4939 38.0145 39.5159C37.9982 39.538 37.9866 39.5631 37.9801 39.5897C37.9737 39.6163 37.9726 39.6439 37.977 39.6709C37.9814 39.698 37.9911 39.7238 38.0055 39.7471C38.02 39.7704 38.039 39.7905 38.0613 39.8064C38.0837 39.8223 38.109 39.8336 38.1358 39.8397L39.2879 40.1165C39.304 40.1201 39.3205 40.1219 39.337 40.122Z" fill="#0F1011"/>
<path d="M40.68 41.995C40.6584 42.2399 40.6856 42.4866 40.7601 42.721C40.8345 42.9554 40.9547 43.1727 41.1137 43.3606C41.2727 43.5485 41.4675 43.7032 41.6867 43.8158C41.9059 43.9284 42.1453 43.9967 42.3911 44.0167C42.6369 44.0367 42.8842 44.0081 43.1189 43.9324C43.3535 43.8568 43.5708 43.7356 43.7583 43.5759C43.9458 43.4163 44.0998 43.2212 44.2114 43.002C44.323 42.7827 44.39 42.5437 44.4085 42.2985C44.4328 42.0537 44.4075 41.8065 44.3339 41.5716C44.2604 41.3367 44.1402 41.119 43.9805 40.9314C43.8208 40.7438 43.6249 40.5901 43.4044 40.4796C43.1839 40.369 42.9433 40.3038 42.697 40.2879C41.3633 40.2457 40.7641 40.9687 40.68 41.995Z" fill="#E98862"/>
<g opacity="0.15">
<path opacity="0.15" d="M36.426 43.3587C36.4625 43.3587 36.4978 43.3457 36.5254 43.322C36.5531 43.2982 36.5713 43.2654 36.5767 43.2295C36.5821 43.1935 36.5744 43.1568 36.555 43.126C36.5355 43.0953 36.5057 43.0725 36.4708 43.0618L35.5732 42.7871L36.201 41.3939C36.2176 41.3572 36.2189 41.3154 36.2046 41.2777C36.1903 41.2401 36.1616 41.2096 36.1248 41.1931C36.0879 41.1765 36.046 41.1753 36.0082 41.1895C35.9705 41.2038 35.9399 41.2324 35.9233 41.2691L35.2248 42.8193C35.216 42.8389 35.2114 42.8602 35.2114 42.8817C35.2114 42.9032 35.2161 42.9245 35.225 42.9441C35.2339 42.9637 35.2468 42.9812 35.263 42.9954C35.2792 43.0097 35.2983 43.0203 35.3189 43.0266L36.3813 43.352C36.3958 43.3564 36.4109 43.3587 36.426 43.3587Z" fill="black"/>
</g>
<path d="M38.1803 44.3827C38.1803 44.3827 36.5519 44.5539 35.4094 44.1562C35.4094 44.1562 35.4183 45.2256 36.7072 45.3309C37.9961 45.4363 38.1803 44.3827 38.1803 44.3827Z" fill="#F8FCFF"/>
<rect x="65" y="42" width="22" height="22" rx="5" fill="#E6E6E6"/>
<rect x="65" y="70" width="22" height="22" rx="5" fill="#E6E6E6"/>
<rect x="93" y="42" width="22" height="22" rx="5" fill="#E6E6E6"/>
<rect x="93" y="70" width="22" height="22" rx="5" fill="#E6E6E6"/>
<rect x="121" y="42" width="22" height="22" rx="5" fill="#E6E6E6"/>
<rect x="121" y="70" width="22" height="22" rx="5" fill="#E6E6E6"/>
</svg>
