<svg width="15" height="15" viewBox="0 0 15 15" fill="none" xmlns="http://www.w3.org/2000/svg">
<path d="M10.9566 4.85625C10.9129 4.85 10.8691 4.85 10.8254 4.85625C9.85664 4.825 9.08789 4.03125 9.08789 3.05625C9.08789 2.0625 9.89414 1.25 10.8941 1.25C11.8879 1.25 12.7004 2.05625 12.7004 3.05625C12.6941 4.03125 11.9254 4.825 10.9566 4.85625Z" fill="#C4C4C4"/>
<path d="M12.9937 9.18751C12.2937 9.65626 11.3125 9.83126 10.4062 9.71251C10.6437 9.20001 10.7687 8.63126 10.775 8.03126C10.775 7.40626 10.6375 6.81251 10.375 6.29376C11.3 6.16876 12.2812 6.34376 12.9875 6.81251C13.975 7.46251 13.975 8.53126 12.9937 9.18751Z" fill="#C4C4C4"/>
<path d="M4.02461 4.85625C4.06836 4.85 4.11211 4.85 4.15586 4.85625C5.12461 4.825 5.89336 4.03125 5.89336 3.05625C5.89336 2.05625 5.08711 1.25 4.08711 1.25C3.09336 1.25 2.28711 2.05625 2.28711 3.05625C2.28711 4.03125 3.05586 4.825 4.02461 4.85625Z" fill="#C4C4C4"/>
<path d="M4.09395 8.03125C4.09395 8.6375 4.2252 9.2125 4.4627 9.73125C3.58145 9.825 2.6627 9.6375 1.9877 9.19375C1.0002 8.5375 1.0002 7.46875 1.9877 6.8125C2.65645 6.3625 3.6002 6.18125 4.4877 6.28125C4.23145 6.80625 4.09395 7.4 4.09395 8.03125Z" fill="#C4C4C4"/>
<path d="M7.575 9.91875C7.525 9.9125 7.46875 9.9125 7.4125 9.91875C6.2625 9.88125 5.34375 8.9375 5.34375 7.775C5.35 6.5875 6.30625 5.625 7.5 5.625C8.6875 5.625 9.65 6.5875 9.65 7.775C9.64375 8.9375 8.73125 9.88125 7.575 9.91875Z" fill="#C4C4C4"/>
<path d="M5.54375 11.2125C4.6 11.8437 4.6 12.8812 5.54375 13.5062C6.61875 14.225 8.38125 14.225 9.45625 13.5062C10.4 12.875 10.4 11.8375 9.45625 11.2125C8.3875 10.4937 6.625 10.4937 5.54375 11.2125Z" fill="#C4C4C4"/>
</svg>
