<svg width="33" height="37" viewBox="0 0 33 37" fill="none" xmlns="http://www.w3.org/2000/svg">
<path d="M16.595 10.1175C16.5396 10.1096 16.4683 10.1096 16.405 10.1175C15.0117 10.07 13.9033 8.92998 13.9033 7.52873C13.9033 6.09582 15.0592 4.93207 16.5 4.93207C17.9329 4.93207 19.0967 6.09582 19.0967 7.52873C19.0887 8.92998 17.9883 10.07 16.595 10.1175Z" stroke="#292D32" stroke-width="1.5" stroke-linecap="round" stroke-linejoin="round"/>
<path d="M21.8357 15.3425C20.4266 16.6329 18.5582 17.4167 16.4999 17.4167C14.4416 17.4167 12.5732 16.6329 11.1641 15.3425C11.2432 14.5983 11.7182 13.87 12.5653 13.3C14.7345 11.8592 18.2811 11.8592 20.4345 13.3C21.2816 13.87 21.7566 14.5983 21.8357 15.3425Z" stroke="#292D32" stroke-width="1.5" stroke-linecap="round" stroke-linejoin="round"/>
<path d="M16.4997 17.4166C20.8719 17.4166 24.4163 13.8722 24.4163 9.49998C24.4163 5.12773 20.8719 1.58331 16.4997 1.58331C12.1274 1.58331 8.58301 5.12773 8.58301 9.49998C8.58301 13.8722 12.1274 17.4166 16.4997 17.4166Z" stroke="#292D32" stroke-width="1.5" stroke-linecap="round" stroke-linejoin="round"/>
<path d="M4.33141 32.1V35H3.41141V27.84H5.85141C6.47141 27.84 6.99807 28.0467 7.43141 28.46C7.87141 28.8733 8.09141 29.3767 8.09141 29.97C8.09141 30.5767 7.87141 31.0833 7.43141 31.49C7.00474 31.8967 6.47807 32.1 5.85141 32.1H4.33141ZM4.33141 28.72V31.22H5.87141C6.23807 31.22 6.54141 31.0967 6.78141 30.85C7.02807 30.6033 7.15141 30.31 7.15141 29.97C7.15141 29.6367 7.02807 29.3467 6.78141 29.1C6.54141 28.8467 6.23807 28.72 5.87141 28.72H4.33141ZM9.81594 35H8.89594V30.1H9.77594V30.9H9.81594C9.90927 30.64 10.0993 30.42 10.3859 30.24C10.6793 30.0533 10.9659 29.96 11.2459 29.96C11.5126 29.96 11.7393 30 11.9259 30.08L11.6459 30.97C11.5326 30.9233 11.3526 30.9 11.1059 30.9C10.7593 30.9 10.4559 31.04 10.1959 31.32C9.9426 31.6 9.81594 31.9267 9.81594 32.3V35ZM11.946 32.55C11.946 31.7967 12.1827 31.1733 12.656 30.68C13.136 30.1867 13.7393 29.94 14.466 29.94C15.1927 29.94 15.7927 30.1867 16.266 30.68C16.746 31.1733 16.986 31.7967 16.986 32.55C16.986 33.31 16.746 33.9333 16.266 34.42C15.7927 34.9133 15.1927 35.16 14.466 35.16C13.7393 35.16 13.136 34.9133 12.656 34.42C12.1827 33.9267 11.946 33.3033 11.946 32.55ZM12.866 32.55C12.866 33.0767 13.0193 33.5033 13.326 33.83C13.6327 34.1567 14.0127 34.32 14.466 34.32C14.9193 34.32 15.2993 34.1567 15.606 33.83C15.9127 33.5033 16.066 33.0767 16.066 32.55C16.066 32.03 15.9127 31.6067 15.606 31.28C15.2927 30.9467 14.9127 30.78 14.466 30.78C14.0193 30.78 13.6393 30.9467 13.326 31.28C13.0193 31.6067 12.866 32.03 12.866 32.55ZM22.5052 28.41C22.5052 28.59 22.4419 28.7433 22.3152 28.87C22.1886 28.9967 22.0352 29.06 21.8552 29.06C21.6752 29.06 21.5219 28.9967 21.3952 28.87C21.2686 28.7433 21.2052 28.59 21.2052 28.41C21.2052 28.23 21.2686 28.0767 21.3952 27.95C21.5219 27.8233 21.6752 27.76 21.8552 27.76C22.0352 27.76 22.1886 27.8233 22.3152 27.95C22.4419 28.0767 22.5052 28.23 22.5052 28.41ZM19.1952 30.94V35H18.2752V30.94H17.3552V30.1H18.2752V29.39C18.2752 29.15 18.3152 28.93 18.3952 28.73C18.4819 28.53 18.5986 28.36 18.7452 28.22C18.8919 28.0733 19.0652 27.96 19.2652 27.88C19.4719 27.8 19.6952 27.76 19.9352 27.76C20.2686 27.76 20.5419 27.8167 20.7552 27.93L20.5052 28.74C20.3452 28.66 20.1652 28.62 19.9652 28.62C19.7386 28.62 19.5519 28.7 19.4052 28.86C19.2652 29.0133 19.1952 29.22 19.1952 29.48V30.1H22.3152V35H21.3952V30.94H19.1952ZM24.4351 27.84V35H23.5151V27.84H24.4351ZM27.7073 35.16C26.9873 35.16 26.3939 34.9133 25.9273 34.42C25.4606 33.9267 25.2273 33.3033 25.2273 32.55C25.2273 31.8033 25.4539 31.1833 25.9073 30.69C26.3606 30.19 26.9406 29.94 27.6473 29.94C28.3739 29.94 28.9506 30.1767 29.3773 30.65C29.8106 31.1167 30.0273 31.7733 30.0273 32.62L30.0173 32.72H26.1673C26.1806 33.2 26.3406 33.5867 26.6473 33.88C26.9539 34.1733 27.3206 34.32 27.7473 34.32C28.3339 34.32 28.7939 34.0267 29.1273 33.44L29.9473 33.84C29.7273 34.2533 29.4206 34.5767 29.0273 34.81C28.6406 35.0433 28.2006 35.16 27.7073 35.16ZM26.2373 31.96H29.0473C29.0206 31.62 28.8806 31.34 28.6273 31.12C28.3806 30.8933 28.0473 30.78 27.6273 30.78C27.2806 30.78 26.9806 30.8867 26.7273 31.1C26.4806 31.3133 26.3173 31.6 26.2373 31.96Z" fill="#292A2E"/>
</svg>
