<svg width="29" height="29" viewBox="0 0 29 29" fill="none" xmlns="http://www.w3.org/2000/svg">
<path d="M2.41634 1.20833H12.083C12.4035 1.20833 12.7108 1.33563 12.9374 1.56224C13.164 1.78885 13.2913 2.09619 13.2913 2.41666V12.0833C13.2913 12.4038 13.164 12.7111 12.9374 12.9377C12.7108 13.1644 12.4035 13.2917 12.083 13.2917H2.41634C2.09587 13.2917 1.78853 13.1644 1.56192 12.9377C1.33531 12.7111 1.20801 12.4038 1.20801 12.0833V2.41666C1.20801 2.09619 1.33531 1.78885 1.56192 1.56224C1.78853 1.33563 2.09587 1.20833 2.41634 1.20833ZM3.62467 3.625V10.875H10.8747V3.625H3.62467Z" fill="white"/>
<path fill-rule="evenodd" clip-rule="evenodd" d="M6.04199 6.04167H8.45866V8.45834H6.04199V6.04167Z" fill="white"/>
<path d="M16.9163 1.20833H26.583C26.9035 1.20833 27.2108 1.33563 27.4374 1.56224C27.664 1.78885 27.7913 2.09619 27.7913 2.41666V12.0833C27.7913 12.4038 27.664 12.7111 27.4374 12.9377C27.2108 13.1644 26.9035 13.2917 26.583 13.2917H16.9163C16.5959 13.2917 16.2885 13.1644 16.0619 12.9377C15.8353 12.7111 15.708 12.4038 15.708 12.0833V2.41666C15.708 2.09619 15.8353 1.78885 16.0619 1.56224C16.2885 1.33563 16.5959 1.20833 16.9163 1.20833ZM18.1247 3.625V10.875H25.3747V3.625H18.1247Z" fill="white"/>
<path fill-rule="evenodd" clip-rule="evenodd" d="M20.542 6.04167H22.9587V8.45834H20.542V6.04167Z" fill="white"/>
<path d="M2.41634 15.7083H12.083C12.4035 15.7083 12.7108 15.8356 12.9374 16.0622C13.164 16.2888 13.2913 16.5962 13.2913 16.9167V26.5833C13.2913 26.9038 13.164 27.2111 12.9374 27.4377C12.7108 27.6644 12.4035 27.7917 12.083 27.7917H2.41634C2.09587 27.7917 1.78853 27.6644 1.56192 27.4377C1.33531 27.2111 1.20801 26.9038 1.20801 26.5833V16.9167C1.20801 16.5962 1.33531 16.2888 1.56192 16.0622C1.78853 15.8356 2.09587 15.7083 2.41634 15.7083ZM3.62467 18.125V25.375H10.8747V18.125H3.62467Z" fill="white"/>
<path fill-rule="evenodd" clip-rule="evenodd" d="M6.04199 20.5417H8.45866V22.9583H6.04199V20.5417Z" fill="white"/>
<path d="M27.7913 22.9583H22.958V27.7917H16.9163C16.5959 27.7917 16.2885 27.6644 16.0619 27.4377C15.8353 27.2111 15.708 26.9038 15.708 26.5833V16.9167V22.9583H18.1247V25.375H20.5413V18.125H18.1247V15.7083H16.9163H20.5413V18.125H22.958V20.5417H25.3747V15.7083H26.583C26.9035 15.7083 27.2108 15.8356 27.4374 16.0622C27.664 16.2888 27.7913 16.5962 27.7913 16.9167V22.9583ZM27.7913 25.375V26.5833C27.7913 26.9038 27.664 27.2111 27.4374 27.4377C27.2108 27.6644 26.9035 27.7917 26.583 27.7917H25.3747V25.375H27.7913Z" fill="white"/>
</svg>
