<svg width="18" height="18" viewBox="0 0 18 18" fill="none" xmlns="http://www.w3.org/2000/svg">
<circle cx="9" cy="9" r="9" fill="url(#paint0_linear_1458_4327)"/>
<circle cx="9" cy="9" r="6" fill="#C4C4C4"/>
<path d="M6.506 13V11.691C6.93867 11.2657 7.33833 10.8697 7.705 10.503C7.859 10.349 8.01667 10.1913 8.178 10.03C8.33933 9.86867 8.48967 9.71833 8.629 9.579C8.76833 9.43967 8.893 9.315 9.003 9.205C9.113 9.08767 9.19733 8.996 9.256 8.93C9.37333 8.79067 9.476 8.666 9.564 8.556C9.65933 8.446 9.73267 8.33967 9.784 8.237C9.84267 8.127 9.88667 8.02067 9.916 7.918C9.94533 7.808 9.96 7.69067 9.96 7.566C9.96 7.324 9.86467 7.115 9.674 6.939C9.48333 6.75567 9.223 6.664 8.893 6.664C8.563 6.664 8.30633 6.75933 8.123 6.95C7.93967 7.13333 7.815 7.34233 7.749 7.577L6.44 7.038C6.49867 6.84 6.594 6.63833 6.726 6.433C6.858 6.22033 7.02667 6.03333 7.232 5.872C7.43733 5.70333 7.67933 5.56767 7.958 5.465C8.244 5.355 8.563 5.3 8.915 5.3C9.29633 5.3 9.641 5.35867 9.949 5.476C10.257 5.586 10.5173 5.74 10.73 5.938C10.9427 6.136 11.1077 6.37067 11.225 6.642C11.3423 6.906 11.401 7.192 11.401 7.5C11.401 7.96933 11.2837 8.402 11.049 8.798C10.8217 9.18667 10.543 9.54967 10.213 9.887L9.267 10.833C9.01767 11.0823 8.73533 11.361 8.42 11.669L8.464 11.735H11.511V13H6.506Z" fill="white"/>
<defs>
<linearGradient id="paint0_linear_1458_4327" x1="10" y1="10.5" x2="-4" y2="-7" gradientUnits="userSpaceOnUse">
<stop stop-color="#ECF0F3"/>
<stop offset="1" stop-color="#ECF0F3" stop-opacity="0"/>
</linearGradient>
</defs>
</svg>
