<svg width="18" height="18" viewBox="0 0 18 18" fill="none" xmlns="http://www.w3.org/2000/svg">
<circle cx="9" cy="9" r="9" fill="url(#paint0_linear_1458_4328)"/>
<circle cx="9" cy="9" r="6" fill="#CE7958"/>
<path d="M9.091 13.176C8.783 13.176 8.486 13.1357 8.2 13.055C7.92133 12.9743 7.66467 12.8533 7.43 12.692C7.19533 12.5233 6.98633 12.3143 6.803 12.065C6.627 11.8157 6.49133 11.526 6.396 11.196L7.749 10.657C7.84433 11.0237 8.00567 11.3023 8.233 11.493C8.46033 11.6763 8.74633 11.768 9.091 11.768C9.245 11.768 9.39167 11.746 9.531 11.702C9.67033 11.6507 9.79133 11.581 9.894 11.493C9.99667 11.405 10.0773 11.3023 10.136 11.185C10.202 11.0603 10.235 10.921 10.235 10.767C10.235 10.4443 10.114 10.1913 9.872 10.008C9.63733 9.82467 9.311 9.733 8.893 9.733H8.244V8.424H8.838C8.98467 8.424 9.12767 8.40567 9.267 8.369C9.40633 8.33233 9.52733 8.27733 9.63 8.204C9.74 8.12333 9.82433 8.02433 9.883 7.907C9.949 7.78233 9.982 7.63933 9.982 7.478C9.982 7.22867 9.894 7.027 9.718 6.873C9.542 6.71167 9.30367 6.631 9.003 6.631C8.68033 6.631 8.431 6.719 8.255 6.895C8.08633 7.06367 7.969 7.25433 7.903 7.467L6.583 6.928C6.649 6.74467 6.748 6.55767 6.88 6.367C7.012 6.169 7.177 5.993 7.375 5.839C7.58033 5.67767 7.81867 5.54933 8.09 5.454C8.36133 5.35133 8.673 5.3 9.025 5.3C9.38433 5.3 9.71067 5.35133 10.004 5.454C10.3047 5.55667 10.5613 5.69967 10.774 5.883C10.9867 6.059 11.1517 6.27167 11.269 6.521C11.3863 6.763 11.445 7.027 11.445 7.313C11.445 7.533 11.4157 7.731 11.357 7.907C11.3057 8.083 11.236 8.24067 11.148 8.38C11.06 8.51933 10.9573 8.64033 10.84 8.743C10.73 8.83833 10.6163 8.91533 10.499 8.974V9.062C10.851 9.20133 11.1407 9.425 11.368 9.733C11.6027 10.041 11.72 10.4297 11.72 10.899C11.72 11.229 11.6577 11.5333 11.533 11.812C11.4083 12.0833 11.2287 12.3217 10.994 12.527C10.7667 12.7323 10.4917 12.89 10.169 13C9.84633 13.1173 9.487 13.176 9.091 13.176Z" fill="white"/>
<defs>
<linearGradient id="paint0_linear_1458_4328" x1="12" y1="6.5" x2="-3.5" y2="-6" gradientUnits="userSpaceOnUse">
<stop stop-color="#FA9E7B"/>
<stop offset="1" stop-color="#FA9E7B" stop-opacity="0"/>
</linearGradient>
</defs>
</svg>
