<svg width="58" height="73" viewBox="0 0 58 73" fill="none" xmlns="http://www.w3.org/2000/svg">
<path d="M11.6703 58.36C10.2303 58.36 8.99031 57.86 7.95031 56.86C6.95031 55.82 6.45031 54.58 6.45031 53.14C6.45031 51.7 6.95031 50.48 7.95031 49.48C8.99031 48.48 10.2303 47.98 11.6703 47.98C13.1103 47.98 14.3303 48.48 15.3303 49.48C16.3303 50.48 16.8303 51.7 16.8303 53.14C16.8303 54.58 16.3303 55.82 15.3303 56.86C14.3303 57.86 13.1103 58.36 11.6703 58.36ZM11.6703 38.26C10.2303 38.26 8.99031 37.76 7.95031 36.76C6.95031 35.72 6.45031 34.48 6.45031 33.04C6.45031 31.6 6.95031 30.38 7.95031 29.38C8.99031 28.34 10.2303 27.82 11.6703 27.82C13.1103 27.82 14.3303 28.34 15.3303 29.38C16.3303 30.38 16.8303 31.6 16.8303 33.04C16.8303 34.48 16.3303 35.72 15.3303 36.76C14.3303 37.76 13.1103 38.26 11.6703 38.26ZM53.2072 15.28C50.6072 18.52 48.5072 22.08 46.9072 25.96C45.3472 29.84 44.5672 34.08 44.5672 38.68C44.5672 43.28 45.3472 47.52 46.9072 51.4C48.5072 55.28 50.6072 58.84 53.2072 62.08L47.2672 66.16C46.0672 64.84 44.8272 63.22 43.5472 61.3C42.3072 59.38 41.1672 57.24 40.1272 54.88C39.1272 52.52 38.3072 49.98 37.6672 47.26C37.0272 44.5 36.7072 41.64 36.7072 38.68C36.7072 35.72 37.0272 32.88 37.6672 30.16C38.3072 27.4 39.1272 24.84 40.1272 22.48C41.1672 20.12 42.3072 17.98 43.5472 16.06C44.8272 14.14 46.0672 12.52 47.2672 11.2L53.2072 15.28Z" fill="white" fill-opacity="0.49"/>
</svg>
