<svg width="35" height="38" viewBox="0 0 35 38" fill="none" xmlns="http://www.w3.org/2000/svg">
<path d="M8.92418 33.09C8.92418 33.7167 8.69418 34.22 8.23418 34.6C7.76751 34.9733 7.20085 35.16 6.53418 35.16C5.94085 35.16 5.41751 34.9867 4.96418 34.64C4.51085 34.2933 4.19751 33.82 4.02418 33.22L4.90418 32.86C4.96418 33.0733 5.04751 33.2667 5.15418 33.44C5.26085 33.6133 5.38418 33.7633 5.52418 33.89C5.67085 34.01 5.83085 34.1067 6.00418 34.18C6.17751 34.2467 6.36085 34.28 6.55418 34.28C6.97418 34.28 7.31751 34.1733 7.58418 33.96C7.85085 33.74 7.98418 33.45 7.98418 33.09C7.98418 32.79 7.87418 32.5333 7.65418 32.32C7.44751 32.1133 7.06085 31.9133 6.49418 31.72C5.92085 31.5133 5.56418 31.3733 5.42418 31.3C4.66418 30.9133 4.28418 30.3433 4.28418 29.59C4.28418 29.0633 4.49418 28.6133 4.91418 28.24C5.34085 27.8667 5.86418 27.68 6.48418 27.68C7.03085 27.68 7.50418 27.82 7.90418 28.1C8.30418 28.3733 8.57085 28.7167 8.70418 29.13L7.84418 29.49C7.76418 29.2233 7.60418 29.0033 7.36418 28.83C7.13085 28.65 6.84418 28.56 6.50418 28.56C6.14418 28.56 5.84085 28.66 5.59418 28.86C5.34751 29.0467 5.22418 29.29 5.22418 29.59C5.22418 29.8367 5.32085 30.05 5.51418 30.23C5.72751 30.41 6.19085 30.6233 6.90418 30.87C7.63085 31.1167 8.14751 31.42 8.45418 31.78C8.76751 32.1333 8.92418 32.57 8.92418 33.09ZM14.5115 37.16H13.5915V35L13.6315 34.32H13.5915C13.4315 34.5733 13.2015 34.7767 12.9015 34.93C12.6082 35.0833 12.2815 35.16 11.9215 35.16C11.2815 35.16 10.7315 34.9067 10.2715 34.4C9.81819 33.8867 9.59152 33.27 9.59152 32.55C9.59152 31.83 9.81819 31.2133 10.2715 30.7C10.7315 30.1933 11.2815 29.94 11.9215 29.94C12.2815 29.94 12.6082 30.0167 12.9015 30.17C13.2015 30.3233 13.4315 30.5267 13.5915 30.78H13.6315V30.1H14.5115V37.16ZM12.0715 34.32C12.5249 34.32 12.8949 34.1567 13.1815 33.83C13.4815 33.5033 13.6315 33.0767 13.6315 32.55C13.6315 32.0367 13.4815 31.6133 13.1815 31.28C12.8882 30.9467 12.5182 30.78 12.0715 30.78C11.6315 30.78 11.2615 30.9467 10.9615 31.28C10.6615 31.6133 10.5115 32.0367 10.5115 32.55C10.5115 33.07 10.6615 33.4933 10.9615 33.82C11.2615 34.1533 11.6315 34.32 12.0715 34.32ZM19.8942 35H19.0142V34.32H18.9742C18.8342 34.56 18.6175 34.76 18.3242 34.92C18.0375 35.08 17.7375 35.16 17.4242 35.16C16.8242 35.16 16.3608 34.99 16.0342 34.65C15.7142 34.3033 15.5542 33.8133 15.5542 33.18V30.1H16.4742V33.12C16.4942 33.92 16.8975 34.32 17.6842 34.32C18.0508 34.32 18.3575 34.1733 18.6042 33.88C18.8508 33.58 18.9742 33.2233 18.9742 32.81V30.1H19.8942V35ZM21.6353 33.5C21.6353 33.74 21.7353 33.94 21.9353 34.1C22.1419 34.26 22.3819 34.34 22.6553 34.34C23.0419 34.34 23.3853 34.1967 23.6853 33.91C23.9919 33.6233 24.1453 33.2867 24.1453 32.9C23.8586 32.6733 23.4586 32.56 22.9453 32.56C22.5719 32.56 22.2586 32.65 22.0053 32.83C21.7586 33.01 21.6353 33.2333 21.6353 33.5ZM22.8253 29.94C23.5053 29.94 24.0419 30.1233 24.4353 30.49C24.8286 30.85 25.0253 31.3467 25.0253 31.98V35H24.1453V34.32H24.1053C23.7253 34.88 23.2186 35.16 22.5853 35.16C22.0453 35.16 21.5919 35 21.2253 34.68C20.8653 34.36 20.6853 33.96 20.6853 33.48C20.6853 32.9733 20.8753 32.57 21.2553 32.27C21.6419 31.97 22.1553 31.82 22.7953 31.82C23.3419 31.82 23.7919 31.92 24.1453 32.12V31.91C24.1453 31.59 24.0186 31.32 23.7653 31.1C23.5119 30.8733 23.2153 30.76 22.8753 30.76C22.3619 30.76 21.9553 30.9767 21.6553 31.41L20.8453 30.9C21.2919 30.26 21.9519 29.94 22.8253 29.94ZM28.2141 34.32C28.6674 34.32 29.0374 34.1567 29.3241 33.83C29.6241 33.5033 29.7741 33.0767 29.7741 32.55C29.7741 32.0367 29.6241 31.6133 29.3241 31.28C29.0308 30.9467 28.6608 30.78 28.2141 30.78C27.7741 30.78 27.4041 30.9467 27.1041 31.28C26.8041 31.6133 26.6541 32.0367 26.6541 32.55C26.6541 33.07 26.8041 33.4933 27.1041 33.82C27.4041 34.1533 27.7741 34.32 28.2141 34.32ZM28.0641 35.16C27.4241 35.16 26.8741 34.9067 26.4141 34.4C25.9608 33.8867 25.7341 33.27 25.7341 32.55C25.7341 31.83 25.9608 31.2133 26.4141 30.7C26.8741 30.1933 27.4241 29.94 28.0641 29.94C28.4241 29.94 28.7508 30.0167 29.0441 30.17C29.3441 30.3233 29.5741 30.5267 29.7341 30.78H29.7741L29.7341 30.1V27.84H30.6541V35H29.7741V34.32H29.7341C29.5741 34.5733 29.3441 34.7767 29.0441 34.93C28.7508 35.0833 28.4241 35.16 28.0641 35.16Z" fill="#F3001F"/>
<path d="M15.1249 2.58337C13.0508 2.58337 11.3645 4.26962 11.3645 6.34379C11.3645 8.37837 12.9558 10.025 15.0299 10.0963C15.0933 10.0884 15.1566 10.0884 15.2041 10.0963C15.2199 10.0963 15.2278 10.0963 15.2437 10.0963C15.2516 10.0963 15.2516 10.0963 15.2595 10.0963C17.2862 10.025 18.8774 8.37837 18.8853 6.34379C18.8853 4.26962 17.1991 2.58337 15.1249 2.58337Z" fill="#F3001F"/>
<path d="M19.1468 12.202C16.938 10.7295 13.3359 10.7295 11.1113 12.202C10.1059 12.8749 9.55176 13.7854 9.55176 14.7591C9.55176 15.7329 10.1059 16.6354 11.1034 17.3004C12.2118 18.0445 13.6684 18.4166 15.1251 18.4166C16.5818 18.4166 18.0384 18.0445 19.1468 17.3004C20.1443 16.6274 20.6984 15.7249 20.6984 14.7433C20.6905 13.7695 20.1443 12.867 19.1468 12.202Z" fill="#F3001F"/>
<path d="M23.8254 6.81083C23.9521 8.34666 22.8596 9.6925 21.3475 9.87458C21.3396 9.87458 21.3396 9.87458 21.3317 9.87458H21.3079C21.2604 9.87458 21.2129 9.87458 21.1733 9.89041C20.4054 9.93 19.7008 9.68458 19.1704 9.23333C19.9858 8.505 20.4529 7.4125 20.3579 6.225C20.3025 5.58375 20.0808 4.99791 19.7483 4.49916C20.0492 4.34875 20.3975 4.25375 20.7537 4.22208C22.3054 4.0875 23.6908 5.24333 23.8254 6.81083Z" fill="#F3001F"/>
<path d="M25.4088 14.1337C25.3454 14.9017 24.8546 15.5667 24.0313 16.0179C23.2396 16.4533 22.2421 16.6592 21.2525 16.6354C21.8225 16.1208 22.155 15.4796 22.2184 14.7987C22.2975 13.8171 21.8304 12.875 20.8963 12.1229C20.3659 11.7033 19.7484 11.3708 19.0754 11.1254C20.825 10.6187 23.0259 10.9592 24.3796 12.0517C25.1079 12.6375 25.48 13.3737 25.4088 14.1337Z" fill="#F3001F"/>
</svg>
