<svg width="57" height="37" viewBox="0 0 57 37" fill="none" xmlns="http://www.w3.org/2000/svg">
<path d="M28.6191 13.0625V14.725" stroke="#292A2E" stroke-width="1.5" stroke-linecap="round" stroke-linejoin="round"/>
<path d="M24.6602 17.4167H32.5768V16.625C32.5768 15.7542 31.8643 15.0417 30.9935 15.0417H26.2435C25.3727 15.0417 24.6602 15.7542 24.6602 16.625V17.4167V17.4167Z" stroke="#292A2E" stroke-width="1.5" stroke-miterlimit="10"/>
<path d="M23.8691 17.4167H33.3691" stroke="#292A2E" stroke-width="1.5" stroke-linecap="round" stroke-linejoin="round"/>
<path d="M28.4997 12.6666C25.4359 12.6666 22.958 10.1887 22.958 7.12498V4.74998C22.958 3.0004 24.3751 1.58331 26.1247 1.58331H30.8747C32.6243 1.58331 34.0413 3.0004 34.0413 4.74998V7.12498C34.0413 10.1887 31.5634 12.6666 28.4997 12.6666Z" stroke="#292A2E" stroke-width="1.5" stroke-linecap="round" stroke-linejoin="round"/>
<path d="M23.3307 9.22289C22.7369 9.03289 22.2144 8.68456 21.8027 8.27289C21.0902 7.48123 20.6152 6.53123 20.6152 5.42289C20.6152 4.31456 21.4861 3.44373 22.5944 3.44373H23.109C22.9507 3.80789 22.8715 4.21164 22.8715 4.63123V7.00623C22.8715 7.79789 23.0377 8.54206 23.3307 9.22289Z" stroke="#292A2E" stroke-width="1.5" stroke-linecap="round" stroke-linejoin="round"/>
<path d="M33.6699 9.22289C34.2637 9.03289 34.7862 8.68456 35.1978 8.27289C35.9103 7.48123 36.3853 6.53123 36.3853 5.42289C36.3853 4.31456 35.5145 3.44373 34.4062 3.44373H33.8916C34.0499 3.80789 34.1291 4.21164 34.1291 4.63123V7.00623C34.1291 7.79789 33.9628 8.54206 33.6699 9.22289Z" stroke="#292A2E" stroke-width="1.5" stroke-linecap="round" stroke-linejoin="round"/>
<path d="M5.53695 28.72V35H4.61695V28.72H2.61695V27.84H7.53695V28.72H5.53695ZM7.25656 32.55C7.25656 31.7967 7.49323 31.1733 7.96656 30.68C8.44656 30.1867 9.0499 29.94 9.77656 29.94C10.5032 29.94 11.1032 30.1867 11.5766 30.68C12.0566 31.1733 12.2966 31.7967 12.2966 32.55C12.2966 33.31 12.0566 33.9333 11.5766 34.42C11.1032 34.9133 10.5032 35.16 9.77656 35.16C9.0499 35.16 8.44656 34.9133 7.96656 34.42C7.49323 33.9267 7.25656 33.3033 7.25656 32.55ZM8.17656 32.55C8.17656 33.0767 8.3299 33.5033 8.63656 33.83C8.94323 34.1567 9.32323 34.32 9.77656 34.32C10.2299 34.32 10.6099 34.1567 10.9166 33.83C11.2232 33.5033 11.3766 33.0767 11.3766 32.55C11.3766 32.03 11.2232 31.6067 10.9166 31.28C10.6032 30.9467 10.2232 30.78 9.77656 30.78C9.3299 30.78 8.9499 30.9467 8.63656 31.28C8.3299 31.6067 8.17656 32.03 8.17656 32.55ZM17.3834 35H16.5034V34.32H16.4634C16.3234 34.56 16.1068 34.76 15.8134 34.92C15.5268 35.08 15.2268 35.16 14.9134 35.16C14.3134 35.16 13.8501 34.99 13.5234 34.65C13.2034 34.3033 13.0434 33.8133 13.0434 33.18V30.1H13.9634V33.12C13.9834 33.92 14.3868 34.32 15.1734 34.32C15.5401 34.32 15.8468 34.1733 16.0934 33.88C16.3401 33.58 16.4634 33.2233 16.4634 32.81V30.1H17.3834V35ZM19.4234 35H18.5034V30.1H19.3834V30.9H19.4234C19.5167 30.64 19.7067 30.42 19.9934 30.24C20.2867 30.0533 20.5734 29.96 20.8534 29.96C21.12 29.96 21.3467 30 21.5334 30.08L21.2534 30.97C21.14 30.9233 20.96 30.9 20.7134 30.9C20.3667 30.9 20.0634 31.04 19.8034 31.32C19.55 31.6 19.4234 31.9267 19.4234 32.3V35ZM22.1362 30.1H23.0162V30.78H23.0562C23.1962 30.54 23.4095 30.34 23.6962 30.18C23.9895 30.02 24.2928 29.94 24.6062 29.94C25.2062 29.94 25.6662 30.1133 25.9862 30.46C26.3128 30.8 26.4762 31.2867 26.4762 31.92V35H25.5562V31.98C25.5362 31.18 25.1328 30.78 24.3462 30.78C23.9795 30.78 23.6728 30.93 23.4262 31.23C23.1795 31.5233 23.0562 31.8767 23.0562 32.29V35H22.1362V30.1ZM28.1773 33.5C28.1773 33.74 28.2773 33.94 28.4773 34.1C28.6839 34.26 28.9239 34.34 29.1973 34.34C29.5839 34.34 29.9273 34.1967 30.2273 33.91C30.5339 33.6233 30.6873 33.2867 30.6873 32.9C30.4006 32.6733 30.0006 32.56 29.4873 32.56C29.1139 32.56 28.8006 32.65 28.5473 32.83C28.3006 33.01 28.1773 33.2333 28.1773 33.5ZM29.3673 29.94C30.0473 29.94 30.5839 30.1233 30.9773 30.49C31.3706 30.85 31.5673 31.3467 31.5673 31.98V35H30.6873V34.32H30.6473C30.2673 34.88 29.7606 35.16 29.1273 35.16C28.5873 35.16 28.1339 35 27.7673 34.68C27.4073 34.36 27.2273 33.96 27.2273 33.48C27.2273 32.9733 27.4173 32.57 27.7973 32.27C28.1839 31.97 28.6973 31.82 29.3373 31.82C29.8839 31.82 30.3339 31.92 30.6873 32.12V31.91C30.6873 31.59 30.5606 31.32 30.3073 31.1C30.0539 30.8733 29.7573 30.76 29.4173 30.76C28.9039 30.76 28.4973 30.9767 28.1973 31.41L27.3873 30.9C27.8339 30.26 28.4939 29.94 29.3673 29.94ZM33.5249 35H32.6049V30.1H33.4849V30.78H33.5249C33.6649 30.54 33.8783 30.34 34.1649 30.18C34.4583 30.02 34.7483 29.94 35.0349 29.94C35.3949 29.94 35.7116 30.0233 35.9849 30.19C36.2583 30.3567 36.4583 30.5867 36.5849 30.88C36.9916 30.2533 37.5549 29.94 38.2749 29.94C38.8416 29.94 39.2783 30.1133 39.5849 30.46C39.8916 30.8067 40.0449 31.3 40.0449 31.94V35H39.1249V32.08C39.1249 31.62 39.0416 31.29 38.8749 31.09C38.7083 30.8833 38.4283 30.78 38.0349 30.78C37.6816 30.78 37.3849 30.93 37.1449 31.23C36.9049 31.53 36.7849 31.8833 36.7849 32.29V35H35.8649V32.08C35.8649 31.62 35.7816 31.29 35.6149 31.09C35.4483 30.8833 35.1683 30.78 34.7749 30.78C34.4216 30.78 34.1249 30.93 33.8849 31.23C33.6449 31.53 33.5249 31.8833 33.5249 32.29V35ZM43.3205 35.16C42.6005 35.16 42.0072 34.9133 41.5405 34.42C41.0739 33.9267 40.8405 33.3033 40.8405 32.55C40.8405 31.8033 41.0672 31.1833 41.5205 30.69C41.9739 30.19 42.5539 29.94 43.2605 29.94C43.9872 29.94 44.5639 30.1767 44.9905 30.65C45.4239 31.1167 45.6405 31.7733 45.6405 32.62L45.6305 32.72H41.7805C41.7939 33.2 41.9539 33.5867 42.2605 33.88C42.5672 34.1733 42.9339 34.32 43.3605 34.32C43.9472 34.32 44.4072 34.0267 44.7405 33.44L45.5605 33.84C45.3405 34.2533 45.0339 34.5767 44.6405 34.81C44.2539 35.0433 43.8139 35.16 43.3205 35.16ZM41.8505 31.96H44.6605C44.6339 31.62 44.4939 31.34 44.2405 31.12C43.9939 30.8933 43.6605 30.78 43.2405 30.78C42.8939 30.78 42.5939 30.8867 42.3405 31.1C42.0939 31.3133 41.9305 31.6 41.8505 31.96ZM46.4819 30.1H47.3619V30.78H47.4019C47.5419 30.54 47.7552 30.34 48.0419 30.18C48.3352 30.02 48.6385 29.94 48.9519 29.94C49.5519 29.94 50.0119 30.1133 50.3319 30.46C50.6585 30.8 50.8219 31.2867 50.8219 31.92V35H49.9019V31.98C49.8819 31.18 49.4785 30.78 48.6919 30.78C48.3252 30.78 48.0185 30.93 47.7719 31.23C47.5252 31.5233 47.4019 31.8767 47.4019 32.29V35H46.4819V30.1ZM53.5879 35.08C53.1879 35.08 52.8546 34.9567 52.5879 34.71C52.3279 34.4633 52.1946 34.12 52.1879 33.68V30.94H51.3279V30.1H52.1879V28.6H53.1079V30.1H54.3079V30.94H53.1079V33.38C53.1079 33.7067 53.1712 33.93 53.2979 34.05C53.4246 34.1633 53.5679 34.22 53.7279 34.22C53.8012 34.22 53.8712 34.2133 53.9379 34.2C54.0112 34.18 54.0779 34.1567 54.1379 34.13L54.4279 34.95C54.1879 35.0367 53.9079 35.08 53.5879 35.08Z" fill="#292A2E"/>
</svg>
