<svg width="61" height="44" viewBox="0 0 61 44" fill="none" xmlns="http://www.w3.org/2000/svg">
<g filter="url(#filter0_d_2283_5162)">
<path d="M7.53695 28.72V35H6.61695V28.72H4.61695V27.84H9.53695V28.72H7.53695ZM9.25656 32.55C9.25656 31.7967 9.49323 31.1733 9.96656 30.68C10.4466 30.1867 11.0499 29.94 11.7766 29.94C12.5032 29.94 13.1032 30.1867 13.5766 30.68C14.0566 31.1733 14.2966 31.7967 14.2966 32.55C14.2966 33.31 14.0566 33.9333 13.5766 34.42C13.1032 34.9133 12.5032 35.16 11.7766 35.16C11.0499 35.16 10.4466 34.9133 9.96656 34.42C9.49323 33.9267 9.25656 33.3033 9.25656 32.55ZM10.1766 32.55C10.1766 33.0767 10.3299 33.5033 10.6366 33.83C10.9432 34.1567 11.3232 34.32 11.7766 34.32C12.2299 34.32 12.6099 34.1567 12.9166 33.83C13.2232 33.5033 13.3766 33.0767 13.3766 32.55C13.3766 32.03 13.2232 31.6067 12.9166 31.28C12.6032 30.9467 12.2232 30.78 11.7766 30.78C11.3299 30.78 10.9499 30.9467 10.6366 31.28C10.3299 31.6067 10.1766 32.03 10.1766 32.55ZM19.3834 35H18.5034V34.32H18.4634C18.3234 34.56 18.1068 34.76 17.8134 34.92C17.5268 35.08 17.2268 35.16 16.9134 35.16C16.3134 35.16 15.8501 34.99 15.5234 34.65C15.2034 34.3033 15.0434 33.8133 15.0434 33.18V30.1H15.9634V33.12C15.9834 33.92 16.3868 34.32 17.1734 34.32C17.5401 34.32 17.8468 34.1733 18.0934 33.88C18.3401 33.58 18.4634 33.2233 18.4634 32.81V30.1H19.3834V35ZM21.4234 35H20.5034V30.1H21.3834V30.9H21.4234C21.5167 30.64 21.7067 30.42 21.9934 30.24C22.2867 30.0533 22.5734 29.96 22.8534 29.96C23.12 29.96 23.3467 30 23.5334 30.08L23.2534 30.97C23.14 30.9233 22.96 30.9 22.7134 30.9C22.3667 30.9 22.0634 31.04 21.8034 31.32C21.55 31.6 21.4234 31.9267 21.4234 32.3V35ZM24.1362 30.1H25.0162V30.78H25.0562C25.1962 30.54 25.4095 30.34 25.6962 30.18C25.9895 30.02 26.2928 29.94 26.6062 29.94C27.2062 29.94 27.6662 30.1133 27.9862 30.46C28.3128 30.8 28.4762 31.2867 28.4762 31.92V35H27.5562V31.98C27.5362 31.18 27.1328 30.78 26.3462 30.78C25.9795 30.78 25.6728 30.93 25.4262 31.23C25.1795 31.5233 25.0562 31.8767 25.0562 32.29V35H24.1362V30.1ZM30.1773 33.5C30.1773 33.74 30.2773 33.94 30.4773 34.1C30.6839 34.26 30.9239 34.34 31.1973 34.34C31.5839 34.34 31.9273 34.1967 32.2273 33.91C32.5339 33.6233 32.6873 33.2867 32.6873 32.9C32.4006 32.6733 32.0006 32.56 31.4873 32.56C31.1139 32.56 30.8006 32.65 30.5473 32.83C30.3006 33.01 30.1773 33.2333 30.1773 33.5ZM31.3673 29.94C32.0473 29.94 32.5839 30.1233 32.9773 30.49C33.3706 30.85 33.5673 31.3467 33.5673 31.98V35H32.6873V34.32H32.6473C32.2673 34.88 31.7606 35.16 31.1273 35.16C30.5873 35.16 30.1339 35 29.7673 34.68C29.4073 34.36 29.2273 33.96 29.2273 33.48C29.2273 32.9733 29.4173 32.57 29.7973 32.27C30.1839 31.97 30.6973 31.82 31.3373 31.82C31.8839 31.82 32.3339 31.92 32.6873 32.12V31.91C32.6873 31.59 32.5606 31.32 32.3073 31.1C32.0539 30.8733 31.7573 30.76 31.4173 30.76C30.9039 30.76 30.4973 30.9767 30.1973 31.41L29.3873 30.9C29.8339 30.26 30.4939 29.94 31.3673 29.94ZM35.5249 35H34.6049V30.1H35.4849V30.78H35.5249C35.6649 30.54 35.8783 30.34 36.1649 30.18C36.4583 30.02 36.7483 29.94 37.0349 29.94C37.3949 29.94 37.7116 30.0233 37.9849 30.19C38.2583 30.3567 38.4583 30.5867 38.5849 30.88C38.9916 30.2533 39.5549 29.94 40.2749 29.94C40.8416 29.94 41.2783 30.1133 41.5849 30.46C41.8916 30.8067 42.0449 31.3 42.0449 31.94V35H41.1249V32.08C41.1249 31.62 41.0416 31.29 40.8749 31.09C40.7083 30.8833 40.4283 30.78 40.0349 30.78C39.6816 30.78 39.3849 30.93 39.1449 31.23C38.9049 31.53 38.7849 31.8833 38.7849 32.29V35H37.8649V32.08C37.8649 31.62 37.7816 31.29 37.6149 31.09C37.4483 30.8833 37.1683 30.78 36.7749 30.78C36.4216 30.78 36.1249 30.93 35.8849 31.23C35.6449 31.53 35.5249 31.8833 35.5249 32.29V35ZM45.3205 35.16C44.6005 35.16 44.0072 34.9133 43.5405 34.42C43.0739 33.9267 42.8405 33.3033 42.8405 32.55C42.8405 31.8033 43.0672 31.1833 43.5205 30.69C43.9739 30.19 44.5539 29.94 45.2605 29.94C45.9872 29.94 46.5639 30.1767 46.9905 30.65C47.4239 31.1167 47.6405 31.7733 47.6405 32.62L47.6305 32.72H43.7805C43.7939 33.2 43.9539 33.5867 44.2605 33.88C44.5672 34.1733 44.9339 34.32 45.3605 34.32C45.9472 34.32 46.4072 34.0267 46.7405 33.44L47.5605 33.84C47.3405 34.2533 47.0339 34.5767 46.6405 34.81C46.2539 35.0433 45.8139 35.16 45.3205 35.16ZM43.8505 31.96H46.6605C46.6339 31.62 46.4939 31.34 46.2405 31.12C45.9939 30.8933 45.6605 30.78 45.2405 30.78C44.8939 30.78 44.5939 30.8867 44.3405 31.1C44.0939 31.3133 43.9305 31.6 43.8505 31.96ZM48.4819 30.1H49.3619V30.78H49.4019C49.5419 30.54 49.7552 30.34 50.0419 30.18C50.3352 30.02 50.6385 29.94 50.9519 29.94C51.5519 29.94 52.0119 30.1133 52.3319 30.46C52.6585 30.8 52.8219 31.2867 52.8219 31.92V35H51.9019V31.98C51.8819 31.18 51.4785 30.78 50.6919 30.78C50.3252 30.78 50.0185 30.93 49.7719 31.23C49.5252 31.5233 49.4019 31.8767 49.4019 32.29V35H48.4819V30.1ZM55.5879 35.08C55.1879 35.08 54.8546 34.9567 54.5879 34.71C54.3279 34.4633 54.1946 34.12 54.1879 33.68V30.94H53.3279V30.1H54.1879V28.6H55.1079V30.1H56.3079V30.94H55.1079V33.38C55.1079 33.7067 55.1712 33.93 55.2979 34.05C55.4246 34.1633 55.5679 34.22 55.7279 34.22C55.8012 34.22 55.8712 34.2133 55.9379 34.2C56.0112 34.18 56.0779 34.1567 56.1379 34.13L56.4279 34.95C56.1879 35.0367 55.9079 35.08 55.5879 35.08Z" fill="#F3001F"/>
</g>
<path d="M29.9062 14.4479H28.125C27.2542 14.4479 26.5417 15.1604 26.5417 16.0313V16.2292H25.75C25.4254 16.2292 25.1562 16.4983 25.1562 16.8229C25.1562 17.1475 25.4254 17.4167 25.75 17.4167H35.25C35.5746 17.4167 35.8438 17.1475 35.8438 16.8229C35.8438 16.4983 35.5746 16.2292 35.25 16.2292H34.4583V16.0313C34.4583 15.1604 33.7458 14.4479 32.875 14.4479H31.0938V12.635C30.8958 12.6588 30.6979 12.6667 30.5 12.6667C30.3021 12.6667 30.1042 12.6588 29.9062 12.635V14.4479Z" fill="#F3001F"/>
<path d="M35.6299 9.21504C36.1524 9.01712 36.6116 8.69254 36.9758 8.32837C37.712 7.51296 38.1949 6.53921 38.1949 5.39921C38.1949 4.25921 37.3003 3.36462 36.1603 3.36462H35.717C35.2024 2.31171 34.1258 1.58337 32.8749 1.58337H28.1249C26.8741 1.58337 25.7974 2.31171 25.2828 3.36462H24.8395C23.6995 3.36462 22.8049 4.25921 22.8049 5.39921C22.8049 6.53921 23.2878 7.51296 24.0241 8.32837C24.3883 8.69254 24.8474 9.01712 25.3699 9.21504C26.1933 11.2417 28.1724 12.6667 30.4999 12.6667C32.8274 12.6667 34.8066 11.2417 35.6299 9.21504ZM32.7483 6.68962L32.2574 7.29129C32.1783 7.37837 32.1228 7.55254 32.1308 7.67129L32.1783 8.44712C32.2099 8.92212 31.8695 9.16754 31.4262 8.99337L30.7058 8.70837C30.5949 8.66879 30.4049 8.66879 30.2941 8.70837L29.5737 8.99337C29.1303 9.16754 28.7899 8.92212 28.8216 8.44712L28.8691 7.67129C28.877 7.55254 28.8216 7.37837 28.7424 7.29129L28.2516 6.68962C27.9428 6.32546 28.0774 5.92171 28.5366 5.80296L29.2887 5.61296C29.4074 5.58129 29.5499 5.47046 29.6133 5.36754L30.0328 4.71837C30.2941 4.31462 30.7058 4.31462 30.967 4.71837L31.3866 5.36754C31.4499 5.47046 31.5924 5.58129 31.7112 5.61296L32.4633 5.80296C32.9224 5.92171 33.057 6.32546 32.7483 6.68962Z" fill="#F3001F"/>
<defs>
<filter id="filter0_d_2283_5162" x="0.616943" y="27.84" width="59.811" height="15.3201" filterUnits="userSpaceOnUse" color-interpolation-filters="sRGB">
<feFlood flood-opacity="0" result="BackgroundImageFix"/>
<feColorMatrix in="SourceAlpha" type="matrix" values="0 0 0 0 0 0 0 0 0 0 0 0 0 0 0 0 0 0 127 0" result="hardAlpha"/>
<feOffset dy="4"/>
<feGaussianBlur stdDeviation="2"/>
<feComposite in2="hardAlpha" operator="out"/>
<feColorMatrix type="matrix" values="0 0 0 0 0 0 0 0 0 0 0 0 0 0 0 0 0 0 0.25 0"/>
<feBlend mode="normal" in2="BackgroundImageFix" result="effect1_dropShadow_2283_5162"/>
<feBlend mode="normal" in="SourceGraphic" in2="effect1_dropShadow_2283_5162" result="shape"/>
</filter>
</defs>
</svg>
