<svg width="12" height="11" viewBox="0 0 12 11" fill="none" xmlns="http://www.w3.org/2000/svg">
<path d="M5.17584 0.302035C5.252 0.207724 5.3483 0.131649 5.45768 0.0793872C5.56706 0.0271251 5.68675 0 5.80797 0C5.92919 0 6.04888 0.0271251 6.15826 0.0793872C6.26764 0.131649 6.36393 0.207724 6.44009 0.302035L7.18191 1.22016L8.32103 0.913035C8.43805 0.881484 8.56065 0.876511 8.67984 0.898483C8.79903 0.920455 8.9118 0.968813 9.00988 1.04002C9.10796 1.11122 9.18886 1.20346 9.24667 1.30999C9.30448 1.41651 9.33772 1.53462 9.34397 1.65566L9.40491 2.8346L10.5067 3.2571C10.6197 3.30048 10.7217 3.36859 10.805 3.45644C10.8884 3.5443 10.951 3.64968 10.9884 3.76487C11.0258 3.88006 11.037 4.00216 11.0211 4.12222C11.0052 4.24228 10.9627 4.35727 10.8967 4.45879L10.2548 5.4476L10.8983 6.43722C10.9643 6.53874 11.0068 6.65373 11.0227 6.77379C11.0386 6.89385 11.0274 7.01595 10.9901 7.13114C10.9527 7.24633 10.89 7.35171 10.8067 7.43957C10.7233 7.52742 10.6214 7.59553 10.5083 7.63891L9.40572 8.06141L9.34478 9.23954C9.33851 9.36049 9.30528 9.4785 9.24752 9.58495C9.18976 9.6914 9.10893 9.7836 9.01095 9.85478C8.91297 9.92597 8.80031 9.97436 8.68122 9.9964C8.56213 10.0184 8.43962 10.0136 8.32266 9.98216L7.18272 9.67585L6.44091 10.594C6.36475 10.6883 6.26845 10.7644 6.15907 10.8166C6.04969 10.8689 5.93001 10.896 5.80878 10.896C5.68756 10.896 5.56787 10.8689 5.45849 10.8166C5.34912 10.7644 5.25282 10.6883 5.17666 10.594L4.43484 9.67585L3.29572 9.98216C3.1787 10.0137 3.0561 10.0187 2.93691 9.99671C2.81772 9.97474 2.70495 9.92638 2.60687 9.85518C2.50879 9.78398 2.42789 9.69173 2.37008 9.58521C2.31227 9.47868 2.27903 9.36057 2.27278 9.23954L2.21184 8.06141L1.1101 7.63891C0.996903 7.59556 0.894846 7.52742 0.811401 7.43951C0.727956 7.35159 0.665239 7.24612 0.627844 7.13082C0.59045 7.01552 0.579327 6.89332 0.595289 6.77316C0.611252 6.65301 0.653895 6.53795 0.720096 6.43641L1.36197 5.4476L0.717658 4.45879C0.651476 4.3572 0.60887 4.24208 0.592962 4.12189C0.577054 4.00169 0.588247 3.87946 0.625722 3.76415C0.663197 3.64884 0.726004 3.54338 0.809536 3.4555C0.893069 3.36763 0.99521 3.29956 1.10847 3.25629L2.21103 2.8346L2.27116 1.65647C2.27729 1.53536 2.31044 1.41716 2.3682 1.31054C2.42596 1.20391 2.50685 1.11157 2.60495 1.04028C2.70304 0.968984 2.81585 0.920554 2.9351 0.898536C3.05435 0.876519 3.17701 0.881473 3.29409 0.913035L4.43322 1.21935L5.17503 0.301223L5.17584 0.302035ZM7.53047 3.95585L5.19859 6.29422L4.06434 5.15997L4.00747 5.11366C3.92406 5.05572 3.82197 5.03113 3.72132 5.04473C3.62067 5.05833 3.52877 5.10913 3.46372 5.18712C3.39868 5.26512 3.3652 5.36465 3.3699 5.4661C3.37459 5.56756 3.41712 5.66357 3.48909 5.73522L4.91097 7.1571L4.96784 7.20422C5.04619 7.25819 5.14099 7.28296 5.23572 7.2742C5.33045 7.26544 5.4191 7.22371 5.48622 7.15629L8.10572 4.52947L8.15284 4.4726C8.2099 4.38906 8.23375 4.28724 8.2197 4.18705C8.20565 4.08686 8.15473 3.99552 8.0769 3.9309C7.99906 3.86627 7.89992 3.83302 7.79885 3.83763C7.69779 3.84224 7.60209 3.8844 7.53047 3.95585ZM2.21184 2.8346L2.35647 3.21404L2.21184 2.8346Z" fill="#1976D2"/>
</svg>
