<svg width="11" height="11" viewBox="0 0 11 11" fill="none" xmlns="http://www.w3.org/2000/svg">
<path d="M4.58991 0.302035C4.66607 0.207724 4.76237 0.131649 4.87174 0.0793872C4.98112 0.0271251 5.10081 0 5.22203 0C5.34325 0 5.46294 0.0271251 5.57232 0.0793872C5.6817 0.131649 5.778 0.207724 5.85416 0.302035L6.59597 1.22016L7.73509 0.913035C7.85211 0.881484 7.97471 0.876511 8.0939 0.898483C8.21309 0.920455 8.32586 0.968813 8.42394 1.04002C8.52202 1.11122 8.60293 1.20346 8.66073 1.30999C8.71854 1.41651 8.75179 1.53462 8.75803 1.65566L8.81897 2.8346L9.92072 3.2571C10.0338 3.30048 10.1357 3.36859 10.2191 3.45644C10.3024 3.5443 10.3651 3.64968 10.4025 3.76487C10.4399 3.88006 10.451 4.00216 10.4352 4.12222C10.4193 4.24228 10.3768 4.35727 10.3107 4.45879L9.66884 5.4476L10.3123 6.43722C10.3784 6.53874 10.4209 6.65373 10.4368 6.77379C10.4527 6.89385 10.4415 7.01595 10.4041 7.13114C10.3667 7.24633 10.3041 7.35171 10.2207 7.43957C10.1374 7.52742 10.0354 7.59553 9.92234 7.63891L8.81978 8.06141L8.75884 9.23954C8.75257 9.36049 8.71934 9.4785 8.66158 9.58495C8.60382 9.6914 8.52299 9.7836 8.42501 9.85478C8.32703 9.92597 8.21438 9.97436 8.09529 9.9964C7.9762 10.0184 7.85369 10.0136 7.73672 9.98216L6.59678 9.67585L5.85497 10.594C5.77881 10.6883 5.68251 10.7644 5.57313 10.8166C5.46375 10.8689 5.34407 10.896 5.22284 10.896C5.10162 10.896 4.98193 10.8689 4.87256 10.8166C4.76318 10.7644 4.66688 10.6883 4.59072 10.594L3.84891 9.67585L2.70978 9.98216C2.59276 10.0137 2.47016 10.0187 2.35097 9.99671C2.23178 9.97474 2.11901 9.92638 2.02094 9.85518C1.92286 9.78398 1.84195 9.69173 1.78414 9.58521C1.72633 9.47868 1.69309 9.36057 1.68684 9.23954L1.62591 8.06141L0.524158 7.63891C0.410966 7.59556 0.308908 7.52742 0.225463 7.43951C0.142018 7.35159 0.0793011 7.24612 0.0419069 7.13082C0.0045127 7.01552 -0.00661076 6.89332 0.00935162 6.77316C0.025314 6.65301 0.0679578 6.53795 0.134158 6.43641L0.776033 5.4476L0.131721 4.45879C0.065539 4.3572 0.0229323 4.24208 0.00702414 4.12189C-0.00888399 4.00169 0.00230976 3.87946 0.0397848 3.76415C0.0772599 3.64884 0.140066 3.54338 0.223599 3.4555C0.307131 3.36763 0.409272 3.29956 0.522533 3.25629L1.6251 2.8346L1.68522 1.65647C1.69135 1.53536 1.72451 1.41716 1.78227 1.31054C1.84002 1.20391 1.92092 1.11157 2.01901 1.04028C2.1171 0.968984 2.22991 0.920554 2.34916 0.898536C2.46841 0.876519 2.59107 0.881473 2.70816 0.913035L3.84728 1.21935L4.58909 0.301223L4.58991 0.302035ZM6.94453 3.95585L4.61266 6.29422L3.47841 5.15997L3.42153 5.11366C3.33812 5.05572 3.23603 5.03113 3.13538 5.04473C3.03474 5.05833 2.94283 5.10913 2.87779 5.18712C2.81274 5.26512 2.77927 5.36465 2.78396 5.4661C2.78866 5.56756 2.83118 5.66357 2.90316 5.73522L4.32503 7.1571L4.38191 7.20422C4.46025 7.25819 4.55505 7.28296 4.64978 7.2742C4.74451 7.26544 4.83316 7.22371 4.90028 7.15629L7.51978 4.52947L7.56691 4.4726C7.62397 4.38906 7.64781 4.28724 7.63376 4.18705C7.61971 4.08686 7.56879 3.99552 7.49096 3.9309C7.41312 3.86627 7.31398 3.83302 7.21292 3.83763C7.11186 3.84224 7.01615 3.8844 6.94453 3.95585ZM1.62591 2.8346L1.77053 3.21404L1.62591 2.8346Z" fill="white"/>
</svg>
