<svg width="129" height="129" viewBox="0 0 129 129" fill="none" xmlns="http://www.w3.org/2000/svg">
<circle cx="64.5" cy="64.5" r="64.5" fill="#F3001F" fill-opacity="0.1"/>
<circle cx="64.5" cy="63.5" r="30.5" fill="white"/>
<path d="M64.5003 24.9167C42.6899 24.9167 24.917 42.6897 24.917 64.5001C24.917 86.3105 42.6899 104.083 64.5003 104.083C86.3107 104.083 104.084 86.3105 104.084 64.5001C104.084 42.6897 86.3107 24.9167 64.5003 24.9167ZM83.4212 55.3959L60.9774 77.8397C60.4232 78.3938 59.6712 78.7105 58.8795 78.7105C58.0878 78.7105 57.3357 78.3938 56.7816 77.8397L45.5795 66.6376C44.4316 65.4897 44.4316 63.5897 45.5795 62.4417C46.7274 61.2938 48.6274 61.2938 49.7753 62.4417L58.8795 71.5459L79.2253 51.2001C80.3732 50.0522 82.2732 50.0522 83.4212 51.2001C84.5691 52.348 84.5691 54.2084 83.4212 55.3959Z" fill="#F3001F"/>
</svg>
