<svg width="19" height="19" viewBox="0 0 19 19" fill="none" xmlns="http://www.w3.org/2000/svg">
<path d="M8.57649 1.97977C8.6878 1.84193 8.82854 1.73074 8.98841 1.65436C9.14827 1.57797 9.32319 1.53833 9.50036 1.53833C9.67754 1.53833 9.85246 1.57797 10.0123 1.65436C10.1722 1.73074 10.3129 1.84193 10.4242 1.97977L11.5084 3.32164L13.1733 2.87277C13.3443 2.82665 13.5235 2.81939 13.6977 2.8515C13.8719 2.88361 14.0367 2.95429 14.1801 3.05835C14.3234 3.16242 14.4417 3.29724 14.5262 3.45293C14.6107 3.60862 14.6592 3.78124 14.6684 3.95814L14.7574 5.6812L16.3677 6.2987C16.5329 6.36211 16.6819 6.46165 16.8038 6.59006C16.9256 6.71846 17.0172 6.87247 17.0718 7.04083C17.1265 7.20919 17.1428 7.38763 17.1196 7.56311C17.0963 7.73858 17.0342 7.90665 16.9377 8.05502L15.9995 9.5002L16.9401 10.9466C17.0366 11.0949 17.0987 11.263 17.1219 11.4385C17.1451 11.614 17.1288 11.7924 17.0742 11.9608C17.0195 12.1291 16.928 12.2831 16.8061 12.4115C16.6843 12.5399 16.5353 12.6395 16.3701 12.7029L14.7586 13.3204L14.6696 15.0423C14.6604 15.219 14.6118 15.3915 14.5274 15.5471C14.443 15.7027 14.3248 15.8374 14.1816 15.9415C14.0384 16.0455 13.8738 16.1162 13.6997 16.1484C13.5257 16.1807 13.3466 16.1735 13.1757 16.1276L11.5096 15.68L10.4254 17.0218C10.3141 17.1597 10.1734 17.2709 10.0135 17.3472C9.85365 17.4236 9.67872 17.4633 9.50155 17.4633C9.32438 17.4633 9.14945 17.4236 8.98959 17.3472C8.82973 17.2709 8.68899 17.1597 8.57768 17.0218L7.49349 15.68L5.82862 16.1276C5.65758 16.1738 5.4784 16.181 5.3042 16.1489C5.13 16.1168 4.96519 16.0461 4.82184 15.9421C4.67849 15.838 4.56024 15.7032 4.47576 15.5475C4.39127 15.3918 4.34268 15.2192 4.33355 15.0423L4.24449 13.3204L2.63424 12.7029C2.46881 12.6395 2.31965 12.54 2.19769 12.4115C2.07573 12.283 1.98407 12.1288 1.92941 11.9603C1.87476 11.7918 1.8585 11.6132 1.88183 11.4376C1.90516 11.262 1.96749 11.0938 2.06424 10.9454L3.00237 9.5002L2.06068 8.05502C1.96395 7.90654 1.90168 7.7383 1.87843 7.56263C1.85518 7.38695 1.87154 7.20831 1.92631 7.03978C1.98108 6.87125 2.07288 6.71712 2.19496 6.58868C2.31705 6.46024 2.46633 6.36076 2.63187 6.29752L4.2433 5.6812L4.33118 3.95933C4.34013 3.78232 4.3886 3.60957 4.47301 3.45373C4.55743 3.29789 4.67566 3.16293 4.81902 3.05873C4.96239 2.95454 5.12727 2.88375 5.30155 2.85158C5.47584 2.8194 5.65512 2.82664 5.82624 2.87277L7.49112 3.32045L8.5753 1.97858L8.57649 1.97977ZM12.0179 7.31995L8.60974 10.7376L6.95199 9.07983L6.86887 9.01214C6.74695 8.92746 6.59775 8.89152 6.45065 8.91139C6.30355 8.93127 6.16923 9.00552 6.07416 9.11951C5.97909 9.23351 5.93017 9.37898 5.93703 9.52725C5.94389 9.67553 6.00605 9.81586 6.11124 9.92058L8.18936 11.9987L8.27249 12.0676C8.38699 12.1465 8.52555 12.1827 8.664 12.1698C8.80245 12.157 8.93202 12.0961 9.03012 11.9975L12.8586 8.15833L12.9275 8.0752C13.0109 7.95311 13.0457 7.80429 13.0252 7.65787C13.0047 7.51144 12.9302 7.37794 12.8165 7.28349C12.7027 7.18904 12.5578 7.14043 12.4101 7.14717C12.2624 7.15392 12.1225 7.21553 12.0179 7.31995ZM4.24449 5.6812L4.45587 6.23577L4.24449 5.6812Z" fill="#1976D2"/>
</svg>
