<svg width="17" height="17" viewBox="0 0 17 17" fill="none" xmlns="http://www.w3.org/2000/svg">
<path d="M7.57649 0.979766C7.6878 0.841927 7.82854 0.730741 7.98841 0.654357C8.14827 0.577974 8.32319 0.53833 8.50036 0.53833C8.67754 0.53833 8.85246 0.577974 9.01232 0.654357C9.17218 0.730741 9.31293 0.841927 9.42424 0.979766L10.5084 2.32164L12.1733 1.87277C12.3443 1.82665 12.5235 1.81939 12.6977 1.8515C12.8719 1.88361 13.0367 1.95429 13.1801 2.05835C13.3234 2.16242 13.4417 2.29724 13.5262 2.45293C13.6107 2.60862 13.6592 2.78124 13.6684 2.95814L13.7574 4.6812L15.3677 5.2987C15.5329 5.36211 15.6819 5.46165 15.8038 5.59006C15.9256 5.71846 16.0172 5.87247 16.0718 6.04083C16.1265 6.20919 16.1428 6.38763 16.1196 6.56311C16.0963 6.73858 16.0342 6.90665 15.9377 7.05502L14.9995 8.5002L15.9401 9.94658C16.0366 10.0949 16.0987 10.263 16.1219 10.4385C16.1451 10.614 16.1288 10.7924 16.0742 10.9608C16.0195 11.1291 15.928 11.2831 15.8061 11.4115C15.6843 11.5399 15.5353 11.6395 15.3701 11.7029L13.7586 12.3204L13.6696 14.0423C13.6604 14.219 13.6118 14.3915 13.5274 14.5471C13.443 14.7027 13.3248 14.8374 13.1816 14.9415C13.0384 15.0455 12.8738 15.1162 12.6997 15.1484C12.5257 15.1807 12.3466 15.1735 12.1757 15.1276L10.5096 14.68L9.42543 16.0218C9.31412 16.1597 9.17337 16.2709 9.01351 16.3472C8.85365 16.4236 8.67872 16.4633 8.50155 16.4633C8.32438 16.4633 8.14945 16.4236 7.98959 16.3472C7.82973 16.2709 7.68899 16.1597 7.57768 16.0218L6.49349 14.68L4.82862 15.1276C4.65758 15.1738 4.4784 15.181 4.3042 15.1489C4.13 15.1168 3.96519 15.0461 3.82184 14.9421C3.67849 14.838 3.56024 14.7032 3.47576 14.5475C3.39127 14.3918 3.34268 14.2192 3.33355 14.0423L3.24449 12.3204L1.63424 11.7029C1.46881 11.6395 1.31965 11.54 1.19769 11.4115C1.07573 11.283 0.984066 11.1288 0.929413 10.9603C0.87476 10.7918 0.858502 10.6132 0.881832 10.4376C0.905161 10.262 0.967487 10.0938 1.06424 9.94539L2.00237 8.5002L1.06068 7.05502C0.963952 6.90654 0.90168 6.7383 0.87843 6.56263C0.85518 6.38695 0.87154 6.20831 0.926311 6.03978C0.981082 5.87125 1.07288 5.71712 1.19496 5.58868C1.31705 5.46024 1.46633 5.36076 1.63187 5.29752L3.2433 4.6812L3.33118 2.95933C3.34013 2.78232 3.3886 2.60957 3.47301 2.45373C3.55743 2.29789 3.67566 2.16293 3.81902 2.05873C3.96239 1.95454 4.12727 1.88375 4.30155 1.85158C4.47584 1.8194 4.65512 1.82664 4.82624 1.87277L6.49112 2.32045L7.5753 0.978579L7.57649 0.979766ZM11.0179 6.31995L7.60974 9.73758L5.95199 8.07983L5.86887 8.01214C5.74695 7.92746 5.59775 7.89152 5.45065 7.91139C5.30355 7.93127 5.16923 8.00552 5.07416 8.11951C4.97909 8.23351 4.93017 8.37898 4.93703 8.52725C4.94389 8.67553 5.00605 8.81586 5.11124 8.92058L7.18936 10.9987L7.27249 11.0676C7.38699 11.1465 7.52555 11.1827 7.664 11.1698C7.80245 11.157 7.93202 11.0961 8.03012 10.9975L11.8586 7.15833L11.9275 7.0752C12.0109 6.95311 12.0457 6.80429 12.0252 6.65787C12.0047 6.51144 11.9302 6.37794 11.8165 6.28349C11.7027 6.18904 11.5578 6.14043 11.4101 6.14717C11.2624 6.15392 11.1225 6.21553 11.0179 6.31995ZM3.24449 4.6812L3.45587 5.23577L3.24449 4.6812Z" fill="#1976D2"/>
</svg>
