<svg width="19" height="19" viewBox="0 0 19 19" fill="none" xmlns="http://www.w3.org/2000/svg">
<path d="M8.90625 14.4479H7.125C6.25417 14.4479 5.54167 15.1604 5.54167 16.0313V16.2292H4.75C4.42542 16.2292 4.15625 16.4983 4.15625 16.8229C4.15625 17.1475 4.42542 17.4167 4.75 17.4167H14.25C14.5746 17.4167 14.8438 17.1475 14.8438 16.8229C14.8438 16.4983 14.5746 16.2292 14.25 16.2292H13.4583V16.0313C13.4583 15.1604 12.7458 14.4479 11.875 14.4479H10.0938V12.635C9.89583 12.6588 9.69792 12.6667 9.5 12.6667C9.30208 12.6667 9.10417 12.6588 8.90625 12.635V14.4479Z" fill="#F3001F"/>
<path d="M14.6299 9.21504C15.1524 9.01712 15.6116 8.69254 15.9758 8.32837C16.712 7.51296 17.1949 6.53921 17.1949 5.39921C17.1949 4.25921 16.3003 3.36462 15.1603 3.36462H14.717C14.2024 2.31171 13.1258 1.58337 11.8749 1.58337H7.12493C5.8741 1.58337 4.79743 2.31171 4.28285 3.36462H3.83951C2.69951 3.36462 1.80493 4.25921 1.80493 5.39921C1.80493 6.53921 2.28785 7.51296 3.0241 8.32837C3.38827 8.69254 3.84743 9.01712 4.36993 9.21504C5.19326 11.2417 7.17243 12.6667 9.49993 12.6667C11.8274 12.6667 13.8066 11.2417 14.6299 9.21504ZM11.7483 6.68962L11.2574 7.29129C11.1783 7.37837 11.1228 7.55254 11.1308 7.67129L11.1783 8.44712C11.2099 8.92212 10.8695 9.16754 10.4262 8.99337L9.70577 8.70837C9.59493 8.66879 9.40493 8.66879 9.2941 8.70837L8.57368 8.99337C8.13035 9.16754 7.78993 8.92212 7.8216 8.44712L7.8691 7.67129C7.87702 7.55254 7.8216 7.37837 7.74243 7.29129L7.2516 6.68962C6.94285 6.32546 7.07743 5.92171 7.5366 5.80296L8.28868 5.61296C8.40743 5.58129 8.54993 5.47046 8.61327 5.36754L9.03285 4.71837C9.2941 4.31462 9.70577 4.31462 9.96702 4.71837L10.3866 5.36754C10.4499 5.47046 10.5924 5.58129 10.7112 5.61296L11.4633 5.80296C11.9224 5.92171 12.057 6.32546 11.7483 6.68962Z" fill="#F3001F"/>
</svg>
