<svg width="19" height="19" viewBox="0 0 19 19" fill="none" xmlns="http://www.w3.org/2000/svg">
<path d="M9.61914 13.0625V14.725" stroke="#292A2E" stroke-width="1.5" stroke-linecap="round" stroke-linejoin="round"/>
<path d="M5.66016 17.4167H13.5768V16.6251C13.5768 15.7542 12.8643 15.0417 11.9935 15.0417H7.24349C6.37266 15.0417 5.66016 15.7542 5.66016 16.6251V17.4167V17.4167Z" stroke="#292A2E" stroke-width="1.5" stroke-miterlimit="10"/>
<path d="M4.86914 17.4167H14.3691" stroke="#292A2E" stroke-width="1.5" stroke-linecap="round" stroke-linejoin="round"/>
<path d="M9.49967 12.6666C6.43592 12.6666 3.95801 10.1887 3.95801 7.12492V4.74992C3.95801 3.00034 5.37509 1.58325 7.12467 1.58325H11.8747C13.6243 1.58325 15.0413 3.00034 15.0413 4.74992V7.12492C15.0413 10.1887 12.5634 12.6666 9.49967 12.6666Z" stroke="#292A2E" stroke-width="1.5" stroke-linecap="round" stroke-linejoin="round"/>
<path d="M4.33065 9.22301C3.7369 9.03301 3.2144 8.68468 2.80273 8.27301C2.09023 7.48135 1.61523 6.53135 1.61523 5.42301C1.61523 4.31468 2.48607 3.44385 3.5944 3.44385H4.10898C3.95065 3.80801 3.87148 4.21176 3.87148 4.63135V7.00635C3.87148 7.79801 4.03773 8.54218 4.33065 9.22301Z" stroke="#292A2E" stroke-width="1.5" stroke-linecap="round" stroke-linejoin="round"/>
<path d="M14.6699 9.22301C15.2637 9.03301 15.7862 8.68468 16.1978 8.27301C16.9103 7.48135 17.3853 6.53135 17.3853 5.42301C17.3853 4.31468 16.5145 3.44385 15.4062 3.44385H14.8916C15.0499 3.80801 15.1291 4.21176 15.1291 4.63135V7.00635C15.1291 7.79801 14.9628 8.54218 14.6699 9.22301Z" stroke="#292A2E" stroke-width="1.5" stroke-linecap="round" stroke-linejoin="round"/>
</svg>
