<svg width="240" height="173" viewBox="0 0 240 173" fill="none" xmlns="http://www.w3.org/2000/svg">
<path d="M97.517 9.7511H13.0474V94.2208H97.517V9.7511Z" fill="#F4F4F4"/>
<path d="M13.0471 9.7511H12.0791V94.2208H13.0471V9.7511Z" fill="#F4F4F4"/>
<path opacity="0.05" d="M13.0471 9.7511H12.0791V94.2208H13.0471V9.7511Z" fill="#292A2E"/>
<path opacity="0.05" d="M33.5106 67.9577V45.8578H51.6137V58.6974H79.6557V81.4314H91.5738V94.2208H79.6557H77.3598H17.1108V67.9577H33.5106Z" fill="#292A2E"/>
<path opacity="0.34" d="M49.2898 48.2571H36.1069V50.6567H49.2898V48.2571Z" fill="#FFFFFA"/>
<path opacity="0.34" d="M49.2898 53.2295H36.1069V55.6291H49.2898V53.2295Z" fill="#FFFFFA"/>
<path opacity="0.34" d="M49.2898 58.2019H36.1069V60.6015H49.2898V58.2019Z" fill="#FFFFFA"/>
<path opacity="0.34" d="M21.8786 70.2869H19.4487V72.6865H21.8786V70.2869Z" fill="#FFFFFA"/>
<path opacity="0.34" d="M21.8786 75.2593H19.4487V77.6589H21.8786V75.2593Z" fill="#FFFFFA"/>
<path opacity="0.34" d="M21.8786 80.2317H19.4487V82.6313H21.8786V80.2317Z" fill="#FFFFFA"/>
<path opacity="0.34" d="M26.3732 70.2869H23.9434V72.6865H26.3732V70.2869Z" fill="#FFFFFA"/>
<path opacity="0.34" d="M26.3732 75.2593H23.9434V77.6589H26.3732V75.2593Z" fill="#FFFFFA"/>
<path opacity="0.34" d="M26.3732 80.2317H23.9434V82.6313H26.3732V80.2317Z" fill="#FFFFFA"/>
<path opacity="0.34" d="M30.7473 70.2869H28.3174V72.6865H30.7473V70.2869Z" fill="#FFFFFA"/>
<path opacity="0.34" d="M30.7473 75.2593H28.3174V77.6589H30.7473V75.2593Z" fill="#FFFFFA"/>
<path opacity="0.34" d="M30.7473 80.2317H28.3174V82.6313H30.7473V80.2317Z" fill="#FFFFFA"/>
<path d="M13.0474 51.512H30.0439V9.7511H31.4496V51.512H77.3595V9.7511H78.7652V51.512H97.517V52.9177H78.7652V94.2208H77.3595V52.9177H31.4496V94.2208H30.0439V52.9177H13.0474V51.512Z" fill="white"/>
<path d="M100.882 94.1188H9.68262V96.9278H100.882V94.1188Z" fill="#F4F4F4"/>
<path opacity="0.1" d="M100.882 94.1188H9.68262V96.9278H100.882V94.1188Z" fill="#292A2E"/>
<path opacity="0.1" d="M9.68235 94.1188H8.36572V96.9278H9.68235V94.1188Z" fill="#292A2E"/>
<path opacity="0.1" d="M9.68235 94.1188H8.36572V96.9278H9.68235V94.1188Z" fill="#292A2E"/>
<path d="M12.0791 13.3478L97.5171 13.3478V11.2592L12.0791 11.2592V13.3478Z" fill="white"/>
<path d="M12.0791 17.2488L97.5171 17.2488V15.1602L12.0791 15.1602V17.2488Z" fill="white"/>
<path d="M12.0791 21.1494L97.5171 21.1494V19.0608L12.0791 19.0608V21.1494Z" fill="white"/>
<path d="M12.0791 25.0505L97.5171 25.0505V22.9619L12.0791 22.9619V25.0505Z" fill="white"/>
<path d="M12.0791 28.9519L97.5171 28.9519V26.8633L12.0791 26.8633V28.9519Z" fill="white"/>
<path d="M21.1537 31.3074H22.4341L22.4341 9.7508H21.1537L21.1537 31.3074Z" fill="white"/>
<path d="M21.6857 34.4033C22.6571 34.4033 23.4446 33.6158 23.4446 32.6443C23.4446 31.6729 22.6571 30.8854 21.6857 30.8854C20.7143 30.8854 19.9268 31.6729 19.9268 32.6443C19.9268 33.6158 20.7143 34.4033 21.6857 34.4033Z" fill="white"/>
<path d="M206.226 9.27917H170.685V55.5403H206.226V9.27917Z" fill="#F4F4F4"/>
<path d="M206.226 55.5403H207.378V9.27913H206.226V55.5403Z" fill="#F4F4F4"/>
<path opacity="0.05" d="M206.226 55.5403H207.378V9.27913H206.226V55.5403Z" fill="#292A2E"/>
<path opacity="0.05" d="M199.751 17.7061H177.159V47.1132H199.751V17.7061Z" fill="#292A2E"/>
<path opacity="0.03" d="M199.752 17.7061H198.574V47.1132H199.752V17.7061Z" fill="#292A2E"/>
<path d="M235.293 66.9167H206.226V96.2508H235.293V66.9167Z" fill="#F4F4F4"/>
<path opacity="0.05" d="M229.998 72.2604H211.521V90.9072H229.998V72.2604Z" fill="#292A2E"/>
<path d="M235.293 96.2505H236.446V66.9164H235.293V96.2505Z" fill="#F4F4F4"/>
<path opacity="0.05" d="M235.293 96.2505H236.446V66.9164H235.293V96.2505Z" fill="#292A2E"/>
<path opacity="0.03" d="M229.998 72.2604H228.82V90.9072H229.998V72.2604Z" fill="#292A2E"/>
<path d="M138.901 116.605C138.862 116.605 138.824 116.596 138.79 116.579L81.5618 88.2933C81.5244 88.2749 81.4922 88.2473 81.4682 88.2133C81.4442 88.1792 81.4292 88.1396 81.4245 88.0982C81.4197 88.0568 81.4255 88.0149 81.4412 87.9763C81.4569 87.9376 81.482 87.9036 81.5143 87.8772L138.725 40.9368C138.769 40.9002 138.825 40.8801 138.883 40.8801C138.94 40.8801 138.996 40.9002 139.041 40.9368L196.287 87.8772C196.319 87.9037 196.344 87.9378 196.36 87.9763C196.375 88.0149 196.381 88.0568 196.376 88.0982C196.372 88.1395 196.357 88.179 196.333 88.2131C196.309 88.2472 196.277 88.2747 196.239 88.2933L139.011 116.58C138.977 116.597 138.939 116.605 138.901 116.605ZM82.1287 88.0178L138.901 116.079L195.672 88.0178L138.882 41.4509L82.1287 88.0178Z" fill="#292A2E"/>
<path d="M200.568 0.311523L189.178 15.5777V145.483C189.178 146.711 188.69 147.888 187.822 148.757C186.954 149.625 185.776 150.113 184.548 150.113H93.2156C92.6076 150.113 92.0056 149.993 91.444 149.76C90.8823 149.527 90.372 149.186 89.9422 148.757C89.5123 148.327 89.1713 147.816 88.9387 147.255C88.7061 146.693 88.5864 146.091 88.5864 145.483V12.8192C88.5864 9.50199 89.9041 6.32068 92.2497 3.97505C94.5953 1.62942 97.7766 0.311612 101.094 0.311523H200.568Z" fill="white"/>
<path d="M184.548 150.36H93.2156C91.9225 150.358 90.6828 149.844 89.7683 148.93C88.8538 148.016 88.339 146.776 88.3369 145.483V12.8191C88.3408 9.43699 89.686 6.19448 92.0776 3.80293C94.4691 1.41139 97.7116 0.0661258 101.094 0.0622559L200.568 0.0622559C200.615 0.0623787 200.66 0.0753427 200.699 0.0997022C200.739 0.124062 200.77 0.158859 200.791 0.200213C200.812 0.241567 200.82 0.287852 200.816 0.333906C200.812 0.379959 200.795 0.423971 200.768 0.461033L189.427 15.6604V145.483C189.425 146.776 188.91 148.016 187.996 148.93C187.081 149.844 185.841 150.358 184.548 150.36ZM101.094 0.560727C97.8438 0.564421 94.728 1.85712 92.4299 4.15521C90.1318 6.45331 88.8391 9.56914 88.8354 12.8191V145.483C88.8371 146.644 89.2991 147.757 90.1202 148.578C90.9413 149.4 92.0544 149.862 93.2156 149.863H184.548C185.709 149.862 186.823 149.4 187.644 148.578C188.465 147.757 188.927 146.644 188.928 145.483V15.5777C188.928 15.5239 188.946 15.4716 188.978 15.4285L200.071 0.560727H101.094Z" fill="#292A2E"/>
<path opacity="0.3" d="M170.572 16.8839H107.229C107.024 16.8839 106.857 17.0501 106.857 17.2551V17.8619C106.857 18.0669 107.024 18.2331 107.229 18.2331H170.572C170.777 18.2331 170.944 18.0669 170.944 17.8619V17.2551C170.944 17.0501 170.777 16.8839 170.572 16.8839Z" fill="#262626"/>
<path d="M189.178 11.7021C189.178 8.68113 190.378 5.78385 192.514 3.64767C194.651 1.51149 197.548 0.311401 200.569 0.311401C203.59 0.311401 206.487 1.51149 208.623 3.64767C210.76 5.78385 211.96 8.68113 211.96 11.7021V21.319H189.178V11.7021Z" fill="white"/>
<path d="M211.959 21.5683H189.178C189.112 21.5683 189.049 21.542 189.002 21.4953C188.955 21.4485 188.929 21.3851 188.929 21.319V11.7022C188.921 10.1684 189.216 8.64808 189.797 7.22868C190.378 5.80928 191.234 4.51875 192.316 3.43129C193.398 2.34382 194.684 1.48086 196.1 0.892C197.516 0.303142 199.035 0 200.569 0C202.102 0 203.621 0.303142 205.037 0.892C206.454 1.48086 207.74 2.34382 208.821 3.43129C209.903 4.51875 210.759 5.80928 211.34 7.22868C211.922 8.64808 212.217 10.1684 212.209 11.7022V21.319C212.209 21.3851 212.182 21.4485 212.135 21.4953C212.089 21.542 212.025 21.5683 211.959 21.5683ZM189.428 21.0698H211.711V11.7022C211.719 10.2339 211.437 8.77862 210.88 7.41985C210.324 6.06108 209.505 4.82567 208.469 3.78463C207.434 2.7436 206.203 1.91747 204.847 1.35375C203.492 0.790021 202.038 0.499818 200.57 0.499818C199.101 0.499818 197.648 0.790021 196.292 1.35375C194.936 1.91747 193.705 2.7436 192.67 3.78463C191.635 4.82567 190.815 6.06108 190.259 7.41985C189.703 8.77862 189.42 10.2339 189.428 11.7022V21.0698Z" fill="#292A2E"/>
<path opacity="0.3" d="M180.776 45.1947H134.258C134.073 45.1947 133.922 45.3434 133.922 45.5268V45.5272C133.922 45.7106 134.073 45.8593 134.258 45.8593H180.776C180.961 45.8593 181.111 45.7106 181.111 45.5272V45.5268C181.111 45.3434 180.961 45.1947 180.776 45.1947Z" fill="#262626"/>
<path opacity="0.3" d="M180.776 40.8746H134.258C134.073 40.8746 133.922 41.0233 133.922 41.2068V41.2071C133.922 41.3906 134.073 41.5393 134.258 41.5393H180.776C180.961 41.5393 181.111 41.3906 181.111 41.2071V41.2068C181.111 41.0233 180.961 40.8746 180.776 40.8746Z" fill="#262626"/>
<path opacity="0.3" d="M180.776 36.5546H134.258C134.073 36.5546 133.922 36.6289 133.922 36.7206V36.7208C133.922 36.8125 134.073 36.8869 134.258 36.8869H180.776C180.961 36.8869 181.111 36.8125 181.111 36.7208V36.7206C181.111 36.6289 180.961 36.5546 180.776 36.5546Z" fill="#262626"/>
<path opacity="0.3" d="M180.776 31.9022H134.258C134.073 31.9022 133.922 32.0509 133.922 32.2344V32.2347C133.922 32.4181 134.073 32.5669 134.258 32.5669H180.776C180.961 32.5669 181.111 32.4181 181.111 32.2347V32.2344C181.111 32.0509 180.961 31.9022 180.776 31.9022Z" fill="#262626"/>
<path opacity="0.3" d="M180.776 27.582H134.258C134.073 27.582 133.922 27.7307 133.922 27.9142V27.9145C133.922 28.098 134.073 28.2467 134.258 28.2467H180.776C180.961 28.2467 181.111 28.098 181.111 27.9145V27.9142C181.111 27.7307 180.961 27.582 180.776 27.582Z" fill="#262626"/>
<path opacity="0.3" d="M161.502 49.5149H134.257C134.072 49.5149 133.922 49.6636 133.922 49.847V49.8474C133.922 50.0308 134.072 50.1795 134.257 50.1795H161.502C161.687 50.1795 161.837 50.0308 161.837 49.8474V49.847C161.837 49.6636 161.687 49.5149 161.502 49.5149Z" fill="#262626"/>
<path opacity="0.9" d="M126.685 24H97.888C97.3976 24 97 24.4581 97 25.0232V52.2205C97 52.7856 97.3976 53.2437 97.888 53.2437H126.685C127.175 53.2437 127.573 52.7856 127.573 52.2205V25.0232C127.573 24.4581 127.175 24 126.685 24Z" fill="#F7BB3E"/>
<path opacity="0.3" d="M180.681 74.2836H97.1212C96.9502 74.2836 96.8115 74.4222 96.8115 74.5933V74.5936C96.8115 74.7647 96.9502 74.9033 97.1212 74.9033H180.681C180.852 74.9033 180.99 74.7647 180.99 74.5936V74.5933C180.99 74.4222 180.852 74.2836 180.681 74.2836Z" fill="#262626"/>
<path opacity="0.3" d="M180.681 69.8831H97.1212C96.9502 69.8831 96.8115 70.0217 96.8115 70.1928V70.1931C96.8115 70.3642 96.9502 70.5028 97.1212 70.5028H180.681C180.852 70.5028 180.99 70.3642 180.99 70.1931V70.1928C180.99 70.0217 180.852 69.8831 180.681 69.8831Z" fill="#262626"/>
<path opacity="0.3" d="M180.681 65.4823H97.1212C96.9502 65.4823 96.8115 65.621 96.8115 65.792V65.7923C96.8115 65.9634 96.9502 66.1021 97.1212 66.1021H180.681C180.852 66.1021 180.99 65.9634 180.99 65.7923V65.792C180.99 65.621 180.852 65.4823 180.681 65.4823Z" fill="#262626"/>
<path opacity="0.3" d="M180.681 61.0818H97.1212C96.9502 61.0818 96.8115 61.2205 96.8115 61.3915V61.3918C96.8115 61.5629 96.9502 61.7016 97.1212 61.7016H180.681C180.852 61.7016 180.99 61.5629 180.99 61.3918V61.3915C180.99 61.2205 180.852 61.0818 180.681 61.0818Z" fill="#262626"/>
<path opacity="0.3" d="M122.319 78.6844H97.1212C96.9502 78.6844 96.8115 78.8231 96.8115 78.9942V78.9945C96.8115 79.1655 96.9502 79.3042 97.1212 79.3042H122.319C122.49 79.3042 122.628 79.1655 122.628 78.9945V78.9942C122.628 78.8231 122.49 78.6844 122.319 78.6844Z" fill="#262626"/>
<path opacity="0.3" d="M180.681 99.6608H97.1212C96.9502 99.6608 96.8115 99.7994 96.8115 99.9705V99.9708C96.8115 100.142 96.9502 100.281 97.1212 100.281H180.681C180.852 100.281 180.99 100.142 180.99 99.9708V99.9705C180.99 99.7994 180.852 99.6608 180.681 99.6608Z" fill="#262626"/>
<path opacity="0.3" d="M180.681 95.2603H97.1212C96.9502 95.2603 96.8115 95.3989 96.8115 95.57V95.5703C96.8115 95.7414 96.9502 95.88 97.1212 95.88H180.681C180.852 95.88 180.99 95.7414 180.99 95.5703V95.57C180.99 95.3989 180.852 95.2603 180.681 95.2603Z" fill="#262626"/>
<path opacity="0.3" d="M180.681 90.8595H97.1212C96.9502 90.8595 96.8115 90.9982 96.8115 91.1692V91.1696C96.8115 91.3406 96.9502 91.4793 97.1212 91.4793H180.681C180.852 91.4793 180.99 91.3406 180.99 91.1696V91.1692C180.99 90.9982 180.852 90.8595 180.681 90.8595Z" fill="#262626"/>
<path opacity="0.3" d="M180.681 86.459H97.1212C96.9502 86.459 96.8115 86.5977 96.8115 86.7687V86.769C96.8115 86.9401 96.9502 87.0788 97.1212 87.0788H180.681C180.852 87.0788 180.99 86.9401 180.99 86.769V86.7687C180.99 86.5977 180.852 86.459 180.681 86.459Z" fill="#262626"/>
<path opacity="0.3" d="M122.319 104.061H97.1212C96.9502 104.061 96.8115 104.2 96.8115 104.371V104.371C96.8115 104.542 96.9502 104.681 97.1212 104.681H122.319C122.49 104.681 122.628 104.542 122.628 104.371V104.371C122.628 104.2 122.49 104.061 122.319 104.061Z" fill="#262626"/>
<path d="M190.541 154.245H87.2597C85.7777 154.245 84.3565 153.657 83.3085 152.609C82.2606 151.561 81.6719 150.139 81.6719 148.658V88.0699L138.9 116.357L196.129 88.0699V148.658C196.129 149.391 195.984 150.118 195.703 150.796C195.422 151.474 195.011 152.09 194.492 152.609C193.973 153.128 193.357 153.539 192.679 153.82C192.001 154.101 191.275 154.245 190.541 154.245Z" fill="#367CFF"/>
<path opacity="0.78" d="M190.541 154.245H87.2597C85.7777 154.245 84.3565 153.657 83.3085 152.609C82.2606 151.561 81.6719 150.139 81.6719 148.658V88.0699L138.9 116.357L196.129 88.0699V148.658C196.129 149.391 195.984 150.118 195.703 150.796C195.422 151.474 195.011 152.09 194.492 152.609C193.973 153.128 193.357 153.539 192.679 153.82C192.001 154.101 191.275 154.245 190.541 154.245Z" fill="white"/>
<path d="M190.541 154.495H87.26C85.7124 154.493 84.2287 153.877 83.1344 152.783C82.0402 151.689 81.4246 150.205 81.4229 148.658V88.07C81.4229 88.0275 81.4337 87.9858 81.4543 87.9488C81.4749 87.9117 81.5046 87.8805 81.5407 87.8582C81.5767 87.8358 81.6179 87.823 81.6602 87.821C81.7026 87.819 81.7448 87.8278 81.7828 87.8466L138.901 116.079L196.018 87.8466C196.056 87.8278 196.099 87.8189 196.141 87.821C196.183 87.823 196.224 87.8358 196.26 87.8581C196.296 87.8805 196.326 87.9117 196.347 87.9488C196.367 87.9858 196.378 88.0276 196.378 88.07V148.658C196.376 150.205 195.761 151.689 194.666 152.783C193.572 153.877 192.088 154.493 190.541 154.495ZM81.9213 88.4714V148.658C81.923 150.073 82.486 151.43 83.4868 152.431C84.4876 153.431 85.8446 153.994 87.26 153.996H190.541C191.956 153.995 193.313 153.432 194.314 152.431C195.315 151.43 195.878 150.073 195.88 148.658V88.4714L139.011 116.58C138.977 116.597 138.939 116.606 138.9 116.606C138.862 116.606 138.824 116.597 138.79 116.58L81.9213 88.4714Z" fill="#292A2E"/>
<path d="M222.242 168.039C222.283 168.038 222.323 168.027 222.357 168.006C222.391 167.984 222.419 167.954 222.437 167.918L228.119 156.259C228.142 156.208 228.144 156.15 228.125 156.097C228.106 156.045 228.068 156.001 228.017 155.977C227.967 155.952 227.909 155.948 227.855 155.966C227.802 155.983 227.758 156.021 227.732 156.07L222.049 167.728C222.033 167.761 222.026 167.798 222.028 167.834C222.03 167.871 222.041 167.906 222.06 167.937C222.079 167.968 222.106 167.994 222.138 168.011C222.17 168.029 222.206 168.038 222.242 168.039Z" fill="#292A2E"/>
<path d="M212.635 167.362C212.682 167.362 212.729 167.346 212.766 167.317C212.804 167.288 212.831 167.247 212.843 167.201L219.42 142.09C219.427 142.062 219.429 142.034 219.425 142.006C219.421 141.978 219.412 141.951 219.398 141.926C219.384 141.902 219.365 141.881 219.342 141.864C219.32 141.846 219.294 141.834 219.267 141.827C219.239 141.82 219.211 141.818 219.183 141.822C219.155 141.826 219.128 141.835 219.103 141.849C219.079 141.863 219.057 141.882 219.04 141.905C219.023 141.927 219.011 141.953 219.003 141.98L212.426 167.092C212.411 167.147 212.42 167.206 212.448 167.255C212.477 167.305 212.525 167.34 212.58 167.355C212.598 167.36 212.616 167.362 212.635 167.362Z" fill="#292A2E"/>
<path d="M200.087 168.474C200.123 168.474 200.158 168.465 200.189 168.448C200.22 168.431 200.247 168.407 200.267 168.377C200.287 168.348 200.299 168.314 200.302 168.278C200.306 168.243 200.3 168.207 200.286 168.174L193.487 152.163C193.464 152.11 193.422 152.068 193.369 152.047C193.316 152.025 193.257 152.026 193.204 152.048C193.152 152.071 193.11 152.113 193.088 152.166C193.067 152.219 193.068 152.278 193.09 152.331L199.889 168.344C199.906 168.382 199.933 168.415 199.969 168.438C200.004 168.461 200.045 168.473 200.087 168.474Z" fill="#292A2E"/>
<path d="M212.391 172.183C212.409 172.183 212.426 172.181 212.443 172.177C212.499 172.163 212.546 172.128 212.576 172.079C212.605 172.03 212.614 171.971 212.6 171.916L204.699 140.309C204.693 140.282 204.68 140.256 204.663 140.233C204.647 140.21 204.625 140.191 204.601 140.177C204.577 140.162 204.55 140.152 204.522 140.148C204.494 140.144 204.465 140.146 204.438 140.152C204.411 140.159 204.385 140.172 204.362 140.188C204.339 140.205 204.32 140.226 204.306 140.251C204.291 140.275 204.281 140.302 204.277 140.33C204.273 140.358 204.274 140.386 204.281 140.414L212.182 172.02C212.193 172.067 212.22 172.108 212.258 172.138C212.296 172.167 212.343 172.183 212.391 172.183Z" fill="#292A2E"/>
<path d="M209.589 146.786C211.733 142.28 210.334 137.135 206.465 135.294C202.596 133.454 197.722 135.615 195.578 140.121C193.434 144.627 194.833 149.772 198.702 151.613C202.572 153.453 207.446 151.292 209.589 146.786Z" fill="#0CBC8B"/>
<path d="M209.589 146.786C211.733 142.28 210.334 137.135 206.465 135.294C202.596 133.454 197.722 135.615 195.578 140.121C193.434 144.627 194.833 149.772 198.702 151.613C202.572 153.453 207.446 151.292 209.589 146.786Z" fill="#F7BB3E"/>
<path d="M196.292 157.19C197.41 154.413 196.431 151.403 194.105 150.466C191.778 149.529 188.986 151.02 187.868 153.797C186.75 156.573 187.729 159.583 190.056 160.52C192.382 161.457 195.174 159.966 196.292 157.19Z" fill="#0CBC8B"/>
<path d="M223.705 153.627C227.16 152.579 228.919 148.291 227.633 144.05C226.346 139.809 222.502 137.221 219.046 138.269C215.59 139.317 213.832 143.605 215.118 147.846C216.405 152.087 220.249 154.675 223.705 153.627Z" fill="#0CBC8B"/>
<path d="M229.558 162.652C231.486 162.33 232.681 159.868 232.227 157.153C231.773 154.439 229.841 152.5 227.913 152.823C225.984 153.145 224.789 155.607 225.243 158.322C225.698 161.036 227.629 162.975 229.558 162.652Z" fill="#0CBC8B"/>
<path d="M193.746 172.48H227.307V164.117H193.746V172.48Z" fill="#292A2E"/>
<path opacity="0.3" d="M193.746 172.48H227.307V164.117H193.746V172.48Z" fill="white"/>
<path d="M209.653 162.015C211.017 158.629 209.812 154.952 206.961 153.804C204.11 152.656 200.693 154.47 199.329 157.857C197.965 161.244 199.17 164.92 202.021 166.068C204.872 167.217 208.289 165.402 209.653 162.015Z" fill="#0CBC8B"/>
<path d="M217.102 165.228C219.941 165.228 222.243 162.926 222.243 160.087C222.243 157.247 219.941 154.945 217.102 154.945C214.262 154.945 211.96 157.247 211.96 160.087C211.96 162.926 214.262 165.228 217.102 165.228Z" fill="#0CBC8B"/>
<path d="M196.292 157.19C197.41 154.413 196.431 151.403 194.105 150.466C191.778 149.529 188.986 151.02 187.868 153.797C186.75 156.573 187.729 159.583 190.056 160.52C192.382 161.457 195.174 159.966 196.292 157.19Z" fill="#F7BB3E"/>
<path d="M223.705 153.627C227.16 152.579 228.919 148.291 227.633 144.05C226.346 139.809 222.502 137.221 219.046 138.269C215.59 139.317 213.832 143.605 215.118 147.846C216.405 152.087 220.249 154.675 223.705 153.627Z" fill="#F7BB3E"/>
<path d="M229.558 162.652C231.486 162.33 232.681 159.868 232.227 157.153C231.773 154.439 229.841 152.5 227.913 152.823C225.984 153.145 224.789 155.607 225.243 158.322C225.698 161.036 227.629 162.975 229.558 162.652Z" fill="#F7BB3E"/>
<path d="M209.653 162.015C211.017 158.629 209.812 154.952 206.961 153.804C204.11 152.656 200.693 154.47 199.329 157.857C197.965 161.244 199.17 164.92 202.021 166.068C204.872 167.217 208.289 165.402 209.653 162.015Z" fill="#F7BB3E"/>
<path d="M217.102 165.228C219.941 165.228 222.243 162.926 222.243 160.087C222.243 157.247 219.941 154.945 217.102 154.945C214.262 154.945 211.96 157.247 211.96 160.087C211.96 162.926 214.262 165.228 217.102 165.228Z" fill="#F7BB3E"/>
<path d="M200.585 155.759C204.488 156.849 206.542 153.66 206.542 153.66L206.54 153.655C204.459 153.035 202.151 153.908 200.585 155.759Z" fill="#292A2E"/>
<path d="M225.237 157.064C227.158 156.329 228.75 154.926 229.721 153.112C229.195 152.831 228.591 152.729 228.002 152.821C226.377 153.093 225.273 154.883 225.237 157.064Z" fill="#292A2E"/>
<path d="M216.184 155.028C217.681 156.376 219.551 157.24 221.548 157.504C221.016 156.591 220.216 155.863 219.257 155.42C218.297 154.977 217.224 154.84 216.184 155.028Z" fill="#292A2E"/>
<path d="M239.668 172.403H9.0247C8.93656 172.403 8.85204 172.368 8.78972 172.305C8.72739 172.243 8.69238 172.159 8.69238 172.07C8.69238 171.982 8.72739 171.898 8.78972 171.835C8.85204 171.773 8.93656 171.738 9.0247 171.738H239.668C239.756 171.738 239.84 171.773 239.903 171.835C239.965 171.898 240 171.982 240 172.07C240 172.159 239.965 172.243 239.903 172.305C239.84 172.368 239.756 172.403 239.668 172.403Z" fill="#292A2E"/>
<path d="M132.129 66.8341L127.904 75.3646L127.974 74.0736C127.988 73.6562 127.843 73.2491 127.569 72.9344C127.294 72.6198 126.91 72.4212 126.495 72.3788C126.28 72.3643 126.064 72.3938 125.861 72.4655C125.657 72.5372 125.471 72.6495 125.313 72.7957C125.154 72.9418 125.027 73.1188 124.939 73.3156C124.852 73.5125 124.805 73.7251 124.802 73.9407L124.536 89.922L129.656 90.1363C131.246 90.203 132.82 89.7932 134.176 88.9595C135.532 88.1258 136.608 86.9062 137.266 85.457L140.235 78.8878C140.396 78.5494 140.435 78.1658 140.345 77.8019C140.256 77.438 140.044 77.1162 139.744 76.8909C139.47 76.6934 139.139 76.5888 138.801 76.5923C138.463 76.5959 138.134 76.7074 137.864 76.9106C137.851 76.8881 137.832 76.8694 137.81 76.8564C137.789 76.8452 137.765 76.8396 137.74 76.8401C137.716 76.8406 137.692 76.8471 137.671 76.859L138.221 75.6484C138.401 75.2719 138.432 74.8411 138.307 74.4429C138.182 74.0447 137.91 73.7089 137.547 73.5033C137.215 73.3311 136.834 73.2812 136.47 73.3622C136.106 73.4433 135.782 73.6502 135.555 73.9466C135.549 73.931 135.54 73.9166 135.528 73.9041L135.754 73.4056C135.915 73.0673 135.954 72.6837 135.865 72.3199C135.775 71.956 135.563 71.6343 135.264 71.4091C134.93 71.1691 134.517 71.0674 134.111 71.1255C133.704 71.1835 133.336 71.3968 133.084 71.7205C133.073 71.7165 133.063 71.7136 133.052 71.7118L134.811 68.1591C134.987 67.8033 135.015 67.3922 134.888 67.016C134.761 66.6398 134.49 66.3295 134.134 66.1532C133.779 65.9769 133.367 65.9492 132.991 66.0761C132.615 66.203 132.305 66.4741 132.129 66.8298V66.8341Z" fill="#E98862"/>
<path opacity="0.2" d="M133.178 71.879C133.176 71.8962 133.171 71.9129 133.163 71.9285L131.415 75.3593C131.406 75.3768 131.394 75.3923 131.379 75.4051C131.364 75.4178 131.347 75.4275 131.328 75.4335C131.31 75.4396 131.29 75.4419 131.27 75.4404C131.251 75.4389 131.232 75.4335 131.214 75.4246C131.197 75.4158 131.181 75.4035 131.169 75.3886C131.156 75.3738 131.146 75.3565 131.14 75.3379C131.134 75.3193 131.132 75.2996 131.133 75.2801C131.135 75.2606 131.14 75.2415 131.149 75.2241L132.897 71.7929C132.913 71.7618 132.94 71.7373 132.972 71.7238C133.004 71.7102 133.04 71.7083 133.074 71.7186C133.107 71.7288 133.136 71.7505 133.155 71.7798C133.174 71.8092 133.182 71.8443 133.178 71.879H133.178Z" fill="#0A0A0A"/>
<path opacity="0.2" d="M135.566 74.016C135.564 74.0329 135.559 74.0494 135.552 74.0646L134.198 76.7719C134.19 76.7906 134.179 76.8074 134.164 76.8214C134.149 76.8353 134.132 76.8461 134.113 76.8531C134.094 76.8601 134.073 76.8631 134.053 76.862C134.033 76.8608 134.013 76.8556 133.995 76.8465C133.977 76.8374 133.961 76.8247 133.948 76.8092C133.935 76.7937 133.925 76.7756 133.919 76.7562C133.913 76.7368 133.911 76.7164 133.914 76.6962C133.916 76.676 133.922 76.6566 133.932 76.639L135.286 73.9316C135.301 73.9001 135.328 73.8751 135.36 73.8611C135.392 73.847 135.428 73.8449 135.462 73.8551C135.496 73.8653 135.525 73.887 135.544 73.9165C135.563 73.9461 135.571 73.9814 135.567 74.0164L135.566 74.016Z" fill="#0A0A0A"/>
<path opacity="0.2" d="M137.888 77.0083C137.885 77.0263 137.88 77.0437 137.872 77.0598L137.203 78.3226C137.194 78.3407 137.182 78.3568 137.166 78.37C137.151 78.3832 137.134 78.3933 137.115 78.3996C137.096 78.4058 137.075 78.4082 137.055 78.4065C137.035 78.4048 137.016 78.399 136.998 78.3896C136.981 78.3803 136.965 78.3674 136.952 78.3518C136.94 78.3362 136.93 78.3182 136.925 78.2989C136.919 78.2796 136.918 78.2594 136.92 78.2395C136.923 78.2196 136.929 78.2004 136.939 78.183L137.608 76.9202C137.624 76.8895 137.651 76.8655 137.683 76.8523C137.715 76.8391 137.751 76.8376 137.784 76.8481C137.818 76.8585 137.846 76.8803 137.865 76.9095C137.884 76.9388 137.892 76.9737 137.888 77.0083Z" fill="#0A0A0A"/>
<path d="M23.8185 155.316L20.5146 171.762H84.6852L80.9892 155.004L23.8185 155.316Z" fill="#262626"/>
<path d="M121.986 79.3038L109.462 115.227L89.107 88.6086L70.0614 104.522L105.248 142.097C106.5 143.527 108.107 144.6 109.908 145.206C111.708 145.813 113.637 145.932 115.499 145.551C117.36 145.17 119.088 144.303 120.505 143.038C121.923 141.773 122.98 140.155 123.569 138.349L140.72 85.4517L121.986 79.3038Z" fill="url(#paint0_linear_229_1462)"/>
<path d="M10.8341 156.423C9.08842 156.423 7.36862 156.001 5.82107 155.194C4.27353 154.386 2.94407 153.216 1.94589 151.784C0.947709 150.352 0.310374 148.7 0.0881471 146.969C-0.13408 145.237 0.0653825 143.478 0.669552 141.84C1.28267 140.179 15.7151 101.037 18.4514 93.9842L38.6537 101.822C37.1155 105.787 31.5422 120.818 27.0626 132.927L34.5025 132.118L36.8446 153.661L12.0065 156.36C11.6171 156.402 11.2257 156.423 10.8341 156.423Z" fill="url(#paint1_linear_229_1462)"/>
<path d="M37.693 81.8241C32.3315 82.2229 26.8646 83.9639 22.8386 87.5273C16.7669 92.9021 17.3072 96.2615 20.3382 111.146C22.9462 123.952 21.9114 129.548 23.6561 153.18C23.7076 153.878 23.8176 155.316 23.8176 155.316L81.1704 155.221C81.1704 155.221 86.5439 123.868 89.5115 109.407C91.7679 98.4126 97.694 85.0665 72.7063 82.3764C72.6405 82.3694 52.5997 80.7178 37.693 81.8241Z" fill="url(#paint2_linear_229_1462)"/>
<path d="M72.7061 82.3764C72.6396 82.3678 70.8192 89.2184 56.6128 88.1524C46.7763 87.4156 44.3796 80.7212 44.1543 80.7212C45.2147 80.4955 46.9364 80.2616 47.4077 80.0103C48.9562 79.1796 50.0844 78.1653 50.652 75.9913C51.0963 74.2912 51.3226 67.7466 51.3226 64.463L66.4566 67.8636C66.2456 71.5679 64.7691 80.1546 69.9439 81.6746C70.8049 81.9268 71.7324 82.1581 72.7061 82.3764Z" fill="#E98862"/>
<path d="M65.9314 75.1469C59.9654 75.6178 52.3012 73.0986 50.8444 65.1386L49.5307 57.9563C48.0752 49.9964 51.0757 42.7789 58.5697 41.4071C66.0644 40.0363 72.8466 45.4646 74.3024 53.4245L74.884 56.6045C75.4453 59.6598 76.5778 74.3072 65.9314 75.1469Z" fill="#E98862"/>
<path d="M71.4647 67.8387C70.3937 62.4578 69.9029 58.8662 69.9597 55.0801C71.4681 52.4342 71.0716 49.3976 70.7287 48.0853C72.2071 48.8918 72.8252 48.9798 74.218 48.9798C74.218 48.9798 71.7233 38.9682 63.2443 36.2741C61.6854 35.6673 57.7046 34.901 52.4188 35.6258C47.9229 36.2426 36.8409 39.6039 35.2578 52.0803V52.0873C35.2052 52.501 34.1412 63.9965 32.02 69.5116C29.1681 76.9258 25.1644 79.2297 25.2661 87.7839C25.3967 98.7874 45.6256 100.252 57.8269 99.4292C70.0281 98.606 76.8393 94.594 76.9277 86.664C77.0244 77.7792 73.6078 78.6043 71.4647 67.8387Z" fill="#0A0A0A"/>
<path d="M71.468 63.3282C69.1906 63.7446 66.8986 61.6457 66.4832 59.368C66.0678 57.0903 67.6832 55.4969 69.9609 55.0812L71.468 63.3282Z" fill="#E98862"/>
<path d="M86.8581 123.871C86.8491 123.871 86.8401 123.87 86.8312 123.869C86.8125 123.865 86.7948 123.858 86.7789 123.848C86.763 123.837 86.7493 123.824 86.7386 123.808C86.7279 123.793 86.7204 123.775 86.7165 123.756C86.7126 123.738 86.7124 123.719 86.7159 123.7L89.1208 108.635C89.1293 108.599 89.1515 108.567 89.1828 108.547C89.214 108.527 89.2519 108.519 89.2885 108.526C89.3252 108.533 89.3577 108.554 89.3793 108.584C89.401 108.615 89.41 108.652 89.4046 108.689L87.0007 123.754C86.9945 123.787 86.9768 123.817 86.9508 123.838C86.9247 123.86 86.8919 123.871 86.8581 123.871Z" fill="#0C0C0C"/>
<path d="M23.8184 155.461C23.7811 155.461 23.7453 155.447 23.7184 155.421C23.6915 155.395 23.6757 155.36 23.6742 155.322L21.8771 108.668C21.8755 108.629 21.8893 108.592 21.9153 108.564C21.9412 108.536 21.9774 108.519 22.0156 108.518C22.0535 108.518 22.0898 108.532 22.1175 108.558C22.1452 108.584 22.1624 108.619 22.1655 108.656L23.963 155.311C23.9644 155.349 23.9506 155.387 23.9246 155.415C23.8986 155.443 23.8624 155.46 23.8241 155.461H23.8184Z" fill="#0C0C0C"/>
<defs>
<linearGradient id="paint0_linear_229_1462" x1="65.4659" y1="148.544" x2="65.4659" y2="48.3517" gradientUnits="userSpaceOnUse">
<stop stop-color="#A8091E"/>
<stop offset="1" stop-color="#F3001F"/>
</linearGradient>
<linearGradient id="paint1_linear_229_1462" x1="65.4659" y1="148.544" x2="65.4659" y2="48.3517" gradientUnits="userSpaceOnUse">
<stop stop-color="#A8091E"/>
<stop offset="1" stop-color="#F3001F"/>
</linearGradient>
<linearGradient id="paint2_linear_229_1462" x1="65.4659" y1="148.544" x2="65.4659" y2="48.3517" gradientUnits="userSpaceOnUse">
<stop stop-color="#A8091E"/>
<stop offset="1" stop-color="#F3001F"/>
</linearGradient>
</defs>
</svg>
