<svg width="19" height="18" viewBox="0 0 19 18" fill="none" xmlns="http://www.w3.org/2000/svg">
<path d="M15.9688 1.96875H3.03125C2.72012 1.96875 2.46875 2.22012 2.46875 2.53125V15.4688C2.46875 15.7799 2.72012 16.0312 3.03125 16.0312H15.9688C16.2799 16.0312 16.5312 15.7799 16.5312 15.4688V2.53125C16.5312 2.22012 16.2799 1.96875 15.9688 1.96875ZM14.3445 6.07324H13.2213C12.3406 6.07324 12.1701 6.4916 12.1701 7.10684V8.46211H14.2725L13.9982 10.5838H12.1701V16.0312H9.97813V10.5855H8.14473V8.46211H9.97813V6.89766C9.97813 5.08184 11.0873 4.09219 12.708 4.09219C13.485 4.09219 14.1512 4.1502 14.3463 4.17656V6.07324H14.3445Z" fill="#3B5998"/>
</svg>
