<svg width="19" height="19" viewBox="0 0 19 19" fill="none" xmlns="http://www.w3.org/2000/svg">
<path d="M15.8648 5.39919L11.3048 2.20877C10.0619 1.33794 8.15394 1.38544 6.95853 2.31169L2.99228 5.40711C2.20061 6.02461 1.5752 7.29127 1.5752 8.28877V13.7513C1.5752 15.77 3.21395 17.4167 5.23269 17.4167H13.7669C15.7856 17.4167 17.4244 15.7779 17.4244 13.7592V8.39169C17.4244 7.32294 16.7356 6.00877 15.8648 5.39919ZM10.0935 14.25C10.0935 14.5746 9.82436 14.8438 9.49978 14.8438C9.17519 14.8438 8.90603 14.5746 8.90603 14.25V11.875C8.90603 11.5504 9.17519 11.2813 9.49978 11.2813C9.82436 11.2813 10.0935 11.5504 10.0935 11.875V14.25Z" fill="#F3001F"/>
</svg>
