<svg width="37" height="37" viewBox="0 0 37 37" fill="none" xmlns="http://www.w3.org/2000/svg">
<path d="M18.4999 1.73441C18.8977 1.73441 19.27 1.81304 19.6192 1.97029C19.9642 2.11145 20.2777 2.31993 20.5414 2.58356C20.805 2.8472 21.0135 3.16071 21.1547 3.50579C21.3119 3.85266 21.3905 4.22729 21.3905 4.62504C21.3905 5.02279 21.3119 5.3951 21.1547 5.74429C21.0137 6.0895 20.8054 6.40316 20.5418 6.66697C20.2756 6.93226 19.9629 7.14626 19.6192 7.29829C19.2641 7.4441 18.8837 7.51798 18.4999 7.51566C18.1022 7.51566 17.7298 7.44397 17.3807 7.29829C16.6882 6.99045 16.1345 6.43675 15.8267 5.74429C15.6808 5.38927 15.607 5.00883 15.6093 4.62504C15.6093 4.22729 15.681 3.85498 15.8267 3.50579C15.9816 3.1566 16.1943 2.84904 16.458 2.5831C16.7239 2.31948 17.0315 2.11366 17.3807 1.97029C17.7327 1.8128 18.1143 1.73238 18.4999 1.73441ZM6.08872 8.69041C6.08551 8.18201 6.23322 7.68409 6.51315 7.25968C6.79307 6.83527 7.19262 6.50345 7.66122 6.30623C7.9822 6.16328 8.32965 6.08941 8.68103 6.08941C9.03241 6.08941 9.37986 6.16328 9.70084 6.30623C10.0153 6.43804 10.2859 6.62535 10.5148 6.86585C10.7553 7.09479 10.9427 7.36535 11.0745 7.67754C11.2178 7.99884 11.2918 8.3467 11.2918 8.69851C11.2918 9.05031 11.2178 9.39817 11.0745 9.71948C10.8117 10.3379 10.3193 10.8304 9.70084 11.0931C9.04637 11.36 8.31338 11.36 7.65891 11.0931C7.35171 10.9644 7.07042 10.7811 6.82872 10.552C6.59936 10.3096 6.416 10.0275 6.28759 9.71948C6.1548 9.39271 6.08724 9.04312 6.08872 8.69041ZM4.62491 16.1875C4.92882 16.1821 5.2305 16.2404 5.5105 16.3587C5.7905 16.477 6.04261 16.6527 6.25059 16.8743C6.47227 17.0823 6.64791 17.3344 6.7662 17.6144C6.8845 17.8944 6.94282 18.1961 6.93741 18.5C6.94022 18.8099 6.8788 19.117 6.75703 19.4019C6.51731 19.952 6.07877 20.3914 5.52909 20.6322C5.24344 20.7542 4.93554 20.8157 4.62491 20.8125C4.31505 20.8154 4.00797 20.7539 3.72303 20.6322C3.4498 20.5139 3.19936 20.3488 2.98303 20.1442C2.77766 19.9281 2.61173 19.6776 2.49278 19.4042C2.37069 19.1186 2.30927 18.8107 2.31241 18.5C2.30892 18.1979 2.36652 17.8981 2.48176 17.6187C2.597 17.3394 2.7675 17.0862 2.98303 16.8743C3.19537 16.6539 3.45057 16.4793 3.73294 16.3611C4.0153 16.243 4.31885 16.1839 4.62491 16.1875ZM6.66684 28.3097C6.67016 27.914 6.78785 27.5277 7.00572 27.1974C7.2236 26.8671 7.53236 26.6069 7.89478 26.4481C8.14323 26.3416 8.41072 26.2867 8.68103 26.2867C8.95134 26.2867 9.21883 26.3416 9.46728 26.4481C9.72165 26.5568 9.93672 26.7025 10.1171 26.8829C10.3992 27.1695 10.5909 27.5328 10.6682 27.9275C10.7455 28.3222 10.705 28.7309 10.5518 29.1028C10.3353 29.5913 9.93679 29.976 9.44099 30.1751C8.9452 30.3742 8.39128 30.372 7.89709 30.1689C7.42219 29.9579 7.04179 29.5791 6.82872 29.1052C6.72083 28.8539 6.66573 28.5831 6.66684 28.3097ZM18.4999 30.6407C18.9809 30.6407 19.3902 30.8095 19.7278 31.1471C19.8917 31.3063 20.0211 31.4974 20.1082 31.7086C20.1953 31.9198 20.2382 32.1466 20.2343 32.375C20.2382 32.6035 20.1953 32.8303 20.1082 33.0415C20.0211 33.2527 19.8917 33.4438 19.7278 33.603C19.5686 33.7668 19.3775 33.8963 19.1663 33.9834C18.9551 34.0705 18.7283 34.1134 18.4999 34.1094C18.2715 34.1134 18.0447 34.0705 17.8335 33.9834C17.6223 33.8963 17.4312 33.7668 17.272 33.603C17.1081 33.4438 16.9787 33.2527 16.8916 33.0415C16.8045 32.8303 16.7616 32.6035 16.7655 32.375C16.7655 31.894 16.9343 31.4847 17.272 31.1471C17.4312 30.9833 17.6223 30.8538 17.8335 30.7667C18.0447 30.6796 18.2715 30.6367 18.4999 30.6407ZM26.8642 28.3097C26.8642 27.9003 27.003 27.5581 27.2805 27.2806C27.558 27.0031 27.9002 26.8643 28.3095 26.8643C28.7188 26.8643 29.0634 27.0031 29.3386 27.2806C29.6161 27.5581 29.7548 27.9003 29.7548 28.3097C29.7548 28.719 29.6161 29.0635 29.3386 29.3387C29.2045 29.4746 29.0441 29.5817 28.8671 29.6533C28.6901 29.7249 28.5004 29.7595 28.3095 29.755C28.1187 29.7595 27.9289 29.7249 27.7519 29.6533C27.575 29.5817 27.4145 29.4746 27.2805 29.3387C27.1445 29.2047 27.0375 29.0442 26.9659 28.8672C26.8943 28.6903 26.8597 28.5005 26.8642 28.3097ZM32.3749 17.3438C32.5268 17.3421 32.6774 17.3716 32.8174 17.4305C32.9574 17.4894 33.0839 17.5763 33.1889 17.686C33.2986 17.7911 33.3856 17.9175 33.4445 18.0575C33.5033 18.1976 33.5328 18.3482 33.5312 18.5C33.5328 18.6519 33.5033 18.8025 33.4445 18.9425C33.3856 19.0825 33.2986 19.209 33.1889 19.314C33.0839 19.4237 32.9574 19.5107 32.8174 19.5696C32.6774 19.6285 32.5268 19.658 32.3749 19.6563C32.223 19.658 32.0724 19.6285 31.9324 19.5696C31.7924 19.5107 31.666 19.4237 31.5609 19.314C31.4512 19.209 31.3642 19.0825 31.3054 18.9425C31.2465 18.8025 31.217 18.6519 31.2187 18.5C31.217 18.3482 31.2465 18.1976 31.3054 18.0575C31.3642 17.9175 31.4512 17.7911 31.5609 17.686C31.666 17.5763 31.7924 17.4894 31.9324 17.4305C32.0724 17.3716 32.223 17.3421 32.3749 17.3438ZM28.3095 5.51073C28.7443 5.51073 29.1536 5.59398 29.5375 5.7651C30.299 6.09457 30.9067 6.7014 31.2372 7.46247C31.406 7.84635 31.4915 8.25566 31.4915 8.6881C31.4915 9.12285 31.406 9.53216 31.2372 9.91835C30.9067 10.6794 30.299 11.2863 29.5375 11.6157C29.1511 11.7849 28.7336 11.8716 28.3118 11.8701C27.8771 11.8701 27.4678 11.7845 27.0816 11.6157C26.3212 11.2854 25.7146 10.6787 25.3842 9.91835C25.2147 9.53126 25.1281 9.11299 25.1298 8.69041C25.1298 8.25566 25.2154 7.84635 25.3842 7.46247C25.7137 6.70095 26.3205 6.09329 27.0816 5.76279C27.4678 5.59398 27.8771 5.50841 28.3095 5.50841V5.51073Z" fill="white"/>
</svg>
