<svg width="25" height="24" viewBox="0 0 25 24" fill="none" xmlns="http://www.w3.org/2000/svg">
<path d="M18.03 7.77C17.96 7.76 17.89 7.76 17.82 7.77C16.27 7.72 15.04 6.45 15.04 4.89C15.04 3.3 16.33 2 17.93 2C19.52 2 20.82 3.29 20.82 4.89C20.81 6.45 19.58 7.72 18.03 7.77Z" fill="#B0B0B0"/>
<path d="M21.2896 14.7C20.1696 15.45 18.5996 15.73 17.1496 15.54C17.5296 14.72 17.7296 13.81 17.7396 12.85C17.7396 11.85 17.5196 10.9 17.0996 10.07C18.5796 9.87004 20.1496 10.15 21.2796 10.9C22.8596 11.94 22.8596 13.65 21.2896 14.7Z" fill="#B0B0B0"/>
<path d="M6.94016 7.77C7.01016 7.76 7.08016 7.76 7.15016 7.77C8.70016 7.72 9.93016 6.45 9.93016 4.89C9.93016 3.29 8.64016 2 7.04016 2C5.45016 2 4.16016 3.29 4.16016 4.89C4.16016 6.45 5.39016 7.72 6.94016 7.77Z" fill="#B0B0B0"/>
<path d="M7.05012 12.85C7.05012 13.82 7.26012 14.74 7.64012 15.57C6.23012 15.72 4.76012 15.42 3.68012 14.71C2.10012 13.66 2.10012 11.95 3.68012 10.9C4.75012 10.18 6.26012 9.88998 7.68012 10.05C7.27012 10.89 7.05012 11.84 7.05012 12.85Z" fill="#B0B0B0"/>
<path d="M12.6198 15.87C12.5398 15.86 12.4498 15.86 12.3598 15.87C10.5198 15.81 9.0498 14.3 9.0498 12.44C9.0598 10.54 10.5898 9 12.4998 9C14.3998 9 15.9398 10.54 15.9398 12.44C15.9298 14.3 14.4698 15.81 12.6198 15.87Z" fill="#B0B0B0"/>
<path d="M9.3698 17.94C7.8598 18.95 7.8598 20.61 9.3698 21.61C11.0898 22.76 13.9098 22.76 15.6298 21.61C17.1398 20.6 17.1398 18.94 15.6298 17.94C13.9198 16.79 11.0998 16.79 9.3698 17.94Z" fill="#B0B0B0"/>
</svg>
