<svg width="19" height="19" viewBox="0 0 19 19" fill="none" xmlns="http://www.w3.org/2000/svg">
<path d="M17.4166 9.50004C17.4166 5.13796 13.862 1.58337 9.49992 1.58337C5.13784 1.58337 1.58325 5.13796 1.58325 9.50004C1.58325 11.7959 2.57284 13.8621 4.14034 15.3109C4.14034 15.3188 4.14034 15.3188 4.13242 15.3267C4.21159 15.4059 4.30659 15.4692 4.38575 15.5405C4.43325 15.58 4.47284 15.6196 4.52034 15.6513C4.66284 15.77 4.82117 15.8809 4.97159 15.9917C5.027 16.0313 5.0745 16.063 5.12992 16.1025C5.28034 16.2055 5.43867 16.3005 5.60492 16.3875C5.66034 16.4192 5.72367 16.4588 5.77909 16.4905C5.93742 16.5775 6.10367 16.6567 6.27784 16.728C6.34117 16.7596 6.4045 16.7913 6.46784 16.815C6.642 16.8863 6.81617 16.9496 6.99034 17.005C7.05367 17.0288 7.117 17.0525 7.18034 17.0684C7.37034 17.1238 7.56034 17.1713 7.75034 17.2188C7.80575 17.2346 7.86117 17.2505 7.9245 17.2584C8.14617 17.3059 8.36784 17.3375 8.59742 17.3613C8.62909 17.3613 8.66075 17.3692 8.69242 17.3771C8.96159 17.4009 9.23075 17.4167 9.49992 17.4167C9.76909 17.4167 10.0383 17.4009 10.2995 17.3771C10.3312 17.3771 10.3628 17.3692 10.3945 17.3613C10.6241 17.3375 10.8458 17.3059 11.0674 17.2584C11.1228 17.2505 11.1783 17.2267 11.2416 17.2188C11.4316 17.1713 11.6295 17.1317 11.8116 17.0684C11.8749 17.0446 11.9383 17.0209 12.0016 17.005C12.1758 16.9417 12.3578 16.8863 12.5241 16.815C12.5874 16.7913 12.6508 16.7596 12.7141 16.728C12.8803 16.6567 13.0466 16.5775 13.2128 16.4905C13.2762 16.4588 13.3316 16.4192 13.387 16.3875C13.5453 16.2925 13.7037 16.2055 13.862 16.1025C13.9174 16.0709 13.9649 16.0313 14.0203 15.9917C14.1787 15.8809 14.3291 15.77 14.4716 15.6513C14.5191 15.6117 14.5587 15.5721 14.6062 15.5405C14.6933 15.4692 14.7803 15.398 14.8595 15.3267C14.8595 15.3188 14.8595 15.3188 14.8516 15.3109C16.427 13.8621 17.4166 11.7959 17.4166 9.50004ZM13.4108 13.4346C11.2653 11.9938 7.75034 11.9938 5.58909 13.4346C5.24075 13.6642 4.95575 13.9334 4.71825 14.2263C3.51492 13.0071 2.77075 11.3367 2.77075 9.50004C2.77075 5.78712 5.787 2.77087 9.49992 2.77087C13.2128 2.77087 16.2291 5.78712 16.2291 9.50004C16.2291 11.3367 15.4849 13.0071 14.2816 14.2263C14.052 13.9334 13.7591 13.6642 13.4108 13.4346Z" fill="#F3001F"/>
<path d="M9.5 5.48621C7.86125 5.48621 6.53125 6.81621 6.53125 8.45496C6.53125 10.062 7.79 11.3683 9.46042 11.4158C9.48417 11.4158 9.51583 11.4158 9.53167 11.4158C9.5475 11.4158 9.57125 11.4158 9.58708 11.4158C9.595 11.4158 9.60292 11.4158 9.60292 11.4158C11.2021 11.3604 12.4608 10.062 12.4688 8.45496C12.4688 6.81621 11.1388 5.48621 9.5 5.48621Z" fill="#F3001F"/>
</svg>
