<svg width="19" height="19" viewBox="0 0 19 19" fill="none" xmlns="http://www.w3.org/2000/svg">
<path d="M7.12492 1.58337C5.05075 1.58337 3.3645 3.26962 3.3645 5.34379C3.3645 7.37837 4.95575 9.02504 7.02992 9.09629C7.09325 9.08837 7.15659 9.08837 7.20409 9.09629C7.21992 9.09629 7.22784 9.09629 7.24367 9.09629C7.25159 9.09629 7.25159 9.09629 7.2595 9.09629C9.28617 9.02504 10.8774 7.37837 10.8853 5.34379C10.8853 3.26962 9.19909 1.58337 7.12492 1.58337Z" fill="#F3001F"/>
<path d="M11.1468 11.202C8.93801 9.72953 5.33592 9.72953 3.11134 11.202C2.10592 11.8749 1.55176 12.7854 1.55176 13.7591C1.55176 14.7329 2.10592 15.6354 3.10342 16.3004C4.21176 17.0445 5.66842 17.4166 7.12509 17.4166C8.58176 17.4166 10.0384 17.0445 11.1468 16.3004C12.1443 15.6274 12.6984 14.7249 12.6984 13.7433C12.6905 12.7695 12.1443 11.867 11.1468 11.202Z" fill="#F3001F"/>
<path d="M15.8254 5.81083C15.9521 7.34666 14.8596 8.6925 13.3475 8.87458C13.3396 8.87458 13.3396 8.87458 13.3317 8.87458H13.3079C13.2604 8.87458 13.2129 8.87458 13.1733 8.89041C12.4054 8.93 11.7008 8.68458 11.1704 8.23333C11.9858 7.505 12.4529 6.4125 12.3579 5.225C12.3025 4.58375 12.0808 3.99791 11.7483 3.49916C12.0492 3.34875 12.3975 3.25375 12.7537 3.22208C14.3054 3.0875 15.6908 4.24333 15.8254 5.81083Z" fill="#F3001F"/>
<path d="M17.4088 13.1337C17.3454 13.9017 16.8546 14.5667 16.0313 15.0179C15.2396 15.4533 14.2421 15.6592 13.2525 15.6354C13.8225 15.1208 14.155 14.4796 14.2184 13.7987C14.2975 12.8171 13.8304 11.875 12.8963 11.1229C12.3659 10.7033 11.7484 10.3708 11.0754 10.1254C12.825 9.61874 15.0259 9.95915 16.3796 11.0517C17.1079 11.6375 17.48 12.3737 17.4088 13.1337Z" fill="#F3001F"/>
</svg>
