<svg width="19" height="19" viewBox="0 0 19 19" fill="none" xmlns="http://www.w3.org/2000/svg">
<path d="M7.25202 8.6054C7.17285 8.59748 7.07785 8.59748 6.99077 8.6054C5.1066 8.54206 3.61035 6.99831 3.61035 5.09831C3.61035 3.15873 5.17785 1.58331 7.12535 1.58331C9.06494 1.58331 10.6404 3.15873 10.6404 5.09831C10.6324 6.99831 9.13619 8.54206 7.25202 8.6054Z" stroke="#292D32" stroke-width="1.5" stroke-linecap="round" stroke-linejoin="round"/>
<path d="M12.9916 3.16669C14.5274 3.16669 15.7624 4.4096 15.7624 5.93752C15.7624 7.43377 14.5749 8.65294 13.0945 8.70835C13.0312 8.70044 12.9599 8.70044 12.8887 8.70835" stroke="#292D32" stroke-width="1.5" stroke-linecap="round" stroke-linejoin="round"/>
<path d="M3.29332 11.5267C1.37749 12.8092 1.37749 14.8992 3.29332 16.1738C5.4704 17.6304 9.04082 17.6304 11.2179 16.1738C13.1337 14.8913 13.1337 12.8013 11.2179 11.5267C9.04874 10.0779 5.47832 10.0779 3.29332 11.5267Z" stroke="#292D32" stroke-width="1.5" stroke-linecap="round" stroke-linejoin="round"/>
<path d="M14.5195 15.8333C15.0895 15.7146 15.6279 15.485 16.0712 15.1446C17.3062 14.2183 17.3062 12.6904 16.0712 11.7641C15.6358 11.4316 15.1054 11.21 14.5433 11.0833" stroke="#292D32" stroke-width="1.5" stroke-linecap="round" stroke-linejoin="round"/>
</svg>
