<svg width="19" height="19" viewBox="0 0 19 19" fill="none" xmlns="http://www.w3.org/2000/svg">
<path d="M6.86342 11.0833H3.16634C2.29551 11.0833 1.58301 11.7958 1.58301 12.6666V17.4166H6.86342V11.0833Z" stroke="#292D32" stroke-width="1.5" stroke-miterlimit="10" stroke-linecap="round" stroke-linejoin="round"/>
<path d="M10.5526 7.91669H8.4388C7.56797 7.91669 6.85547 8.62919 6.85547 9.50002V17.4167H12.1359V9.50002C12.1359 8.62919 11.4313 7.91669 10.5526 7.91669Z" stroke="#292D32" stroke-width="1.5" stroke-miterlimit="10" stroke-linecap="round" stroke-linejoin="round"/>
<path d="M15.8338 13.4583H12.1367V17.4166H17.4171V15.0416C17.4171 14.1708 16.7046 13.4583 15.8338 13.4583Z" stroke="#292D32" stroke-width="1.5" stroke-miterlimit="10" stroke-linecap="round" stroke-linejoin="round"/>
<path d="M9.9116 1.63873L10.3312 2.4779C10.3866 2.59665 10.537 2.70748 10.6637 2.72331L11.4237 2.84998C11.9066 2.92915 12.0254 3.28538 11.677 3.6258L11.0833 4.21955C10.9804 4.32247 10.9249 4.51247 10.9566 4.64706L11.1229 5.3754C11.2574 5.95332 10.9487 6.17499 10.442 5.87415L9.72952 5.45457C9.60286 5.3754 9.38911 5.3754 9.26244 5.45457L8.54994 5.87415C8.04327 6.17499 7.73452 5.95332 7.8691 5.3754L8.03536 4.64706C8.06702 4.51247 8.01161 4.31455 7.90869 4.21955L7.32285 3.63372C6.97452 3.28539 7.08535 2.93705 7.57619 2.85788L8.33619 2.73124C8.46285 2.70749 8.61327 2.59665 8.66869 2.48582L9.08827 1.64663C9.31785 1.18747 9.68202 1.18748 9.9116 1.63873Z" stroke="#292D32" stroke-width="1.5" stroke-linecap="round" stroke-linejoin="round"/>
</svg>
