<svg width="19" height="19" viewBox="0 0 19 19" fill="none" xmlns="http://www.w3.org/2000/svg">
<path d="M5.28033 11.0834H3.16659C2.29575 11.0834 1.58325 11.7959 1.58325 12.6667V16.625C1.58325 17.0605 1.9395 17.4167 2.37492 17.4167H5.28033C5.71575 17.4167 6.072 17.0605 6.072 16.625V11.875C6.072 11.4396 5.71575 11.0834 5.28033 11.0834Z" fill="#F3001F"/>
<path d="M10.5528 7.91663H8.43905C7.56821 7.91663 6.85571 8.62913 6.85571 9.49996V16.625C6.85571 17.0604 7.21196 17.4166 7.64738 17.4166H11.3445C11.7799 17.4166 12.1361 17.0604 12.1361 16.625V9.49996C12.1361 8.62913 11.4315 7.91663 10.5528 7.91663Z" fill="#F3001F"/>
<path d="M15.8334 13.4584H13.7196C13.2842 13.4584 12.928 13.8146 12.928 14.25V16.625C12.928 17.0605 13.2842 17.4167 13.7196 17.4167H16.6251C17.0605 17.4167 17.4167 17.0605 17.4167 16.625V15.0417C17.4167 14.1709 16.7042 13.4584 15.8334 13.4584Z" fill="#F3001F"/>
<path d="M11.883 3.83955C12.1284 3.59413 12.2234 3.30121 12.1442 3.04788C12.0651 2.79455 11.8196 2.61246 11.4713 2.55705L10.7113 2.43038C10.6796 2.43038 10.6084 2.37496 10.5926 2.3433L10.173 1.50413C9.8563 0.862881 9.13589 0.862881 8.81922 1.50413L8.39964 2.3433C8.39172 2.37496 8.32047 2.43038 8.2888 2.43038L7.5288 2.55705C7.18047 2.61246 6.94297 2.79455 6.85589 3.04788C6.77672 3.30121 6.87172 3.59413 7.11714 3.83955L7.70297 4.4333C7.73464 4.45705 7.75839 4.55205 7.75047 4.58371L7.58422 5.31205C7.45755 5.8583 7.66339 6.10371 7.79797 6.19871C7.93255 6.29371 8.22547 6.42038 8.70839 6.13538L9.42089 5.7158C9.45255 5.69205 9.55547 5.69205 9.58714 5.7158L10.2917 6.13538C10.5134 6.26996 10.6955 6.30955 10.838 6.30955C11.0042 6.30955 11.123 6.24621 11.1942 6.19871C11.3288 6.10371 11.5346 5.8583 11.408 5.31205L11.2417 4.58371C11.2338 4.54413 11.2576 4.45705 11.2892 4.4333L11.883 3.83955Z" fill="#F3001F"/>
</svg>
