<svg width="240" height="213" viewBox="0 0 240 213" fill="none" xmlns="http://www.w3.org/2000/svg">
<g clip-path="url(#clip0_230_2341)">
<path d="M140.315 77.1263C140.315 77.1263 139.957 58.0016 157.252 58.0016C175.484 58.0016 172.108 45.0597 189.697 46.116C201.585 46.8309 204.669 59.3836 211.505 61.2384C218.341 63.0932 224.777 65.3439 224.777 76.7643L140.315 77.1263Z" fill="white"/>
<path d="M177.687 172.594C177.687 172.594 177.423 158.485 190.182 158.485C203.634 158.485 201.143 148.937 214.118 149.717C222.889 150.244 225.163 159.506 230.207 160.874C235.252 162.242 239.999 163.903 239.999 172.329L177.687 172.594Z" fill="white"/>
<path d="M1.06664e-05 107.932C1.06664e-05 107.932 -0.317244 90.9399 15.048 90.9399C31.2469 90.9399 28.247 79.4418 43.8727 80.3817C54.4336 81.0167 57.1731 92.1693 63.2479 93.8171C69.3226 95.465 75.0397 97.4647 75.0397 107.611L1.06664e-05 107.932Z" fill="white"/>
<path opacity="0.1" d="M140.315 77.1263C140.315 77.1263 139.957 58.0016 157.252 58.0016C175.484 58.0016 172.108 45.0597 189.697 46.116C201.585 46.8309 204.669 59.3836 211.505 61.2384C218.341 63.0932 224.777 65.3439 224.777 76.7643L140.315 77.1263Z" fill="#F3001F"/>
<path opacity="0.1" d="M177.687 172.594C177.687 172.594 177.423 158.485 190.182 158.485C203.634 158.485 201.143 148.937 214.118 149.717C222.889 150.244 225.163 159.506 230.207 160.874C235.252 162.242 239.999 163.903 239.999 172.329L177.687 172.594Z" fill="#F3001F"/>
<path opacity="0.1" d="M1.06664e-05 107.932C1.06664e-05 107.932 -0.317244 90.9399 15.048 90.9399C31.2469 90.9399 28.247 79.4418 43.8727 80.3817C54.4336 81.0167 57.1731 92.1693 63.2479 93.8171C69.3226 95.465 75.0397 97.4647 75.0397 107.611L1.06664e-05 107.932Z" fill="#F3001F"/>
<path d="M179.698 35.9009C179.565 35.6868 179.476 35.4479 179.439 35.1986C179.401 34.9493 179.414 34.6949 179.478 34.4509C179.541 34.207 179.654 33.9785 179.809 33.7795C179.964 33.5806 180.158 33.4152 180.379 33.2936C180.815 33.073 181.318 33.0262 181.787 33.1625C182.256 33.2989 182.656 33.6082 182.906 34.028L184.231 36.1561L183.59 28.6767C183.453 27.7177 183.894 26.4548 184.979 26.3698C185.851 26.2434 186.562 25.0713 187.606 25.5868C187.616 25.5841 195.807 32.0365 195.936 32.925L196.441 44.7644C196.989 48.5342 184.175 47.7786 184.175 47.7786L179.698 35.9009Z" fill="#E98862"/>
<g opacity="0.1">
<path opacity="0.1" d="M179.698 35.9009C179.565 35.6868 179.476 35.4479 179.439 35.1986C179.401 34.9493 179.414 34.6949 179.478 34.4509C179.541 34.207 179.654 33.9785 179.809 33.7795C179.964 33.5806 180.158 33.4152 180.379 33.2936C180.815 33.073 181.318 33.0262 181.787 33.1625C182.256 33.2989 182.656 33.6082 182.906 34.028L184.231 36.1561L183.59 28.6767C183.453 27.7177 183.894 26.4548 184.979 26.3698C185.851 26.2434 186.562 25.0713 187.606 25.5868C187.616 25.5841 195.807 32.0365 195.936 32.925L196.441 44.7644C196.989 48.5342 184.175 47.7786 184.175 47.7786L179.698 35.9009Z" fill="#0C0C0C"/>
</g>
<path d="M92.1276 93.9778C92.1276 93.9778 91.392 105.013 88.9088 109.015C81.7603 120.54 79.6892 133.505 86.848 140.279C94.0068 147.053 139.668 147.148 143.127 131.568C146.039 118.451 139.79 117.041 138.269 106.221C137.581 101.325 135.688 91.0592 135.688 91.0592" fill="#0A0A0A"/>
<path d="M131.308 129.284C131.229 129.273 130.355 143.783 113.495 142.518C101.823 141.644 97.661 129.262 97.3921 129.262C98.6508 128.995 100.77 128.606 101.329 128.308C103.167 127.32 105.44 126.293 106.033 122.725C106.376 120.67 105.795 110.147 105.974 108.065L123.89 112.063C123.64 116.457 121.888 126.646 128.029 128.449C129.052 128.749 130.153 129.023 131.308 129.284Z" fill="#E98862"/>
<path opacity="0.5" d="M124.142 124.287C123.862 123.383 123.681 122.451 123.603 121.507C123.406 119.354 123.446 117.186 123.721 115.041C120.079 114.549 116.649 113.047 113.819 110.704C113.487 111.932 111.657 117.299 112.164 118.467C113.12 120.673 117.62 124.287 124.142 124.287Z" fill="#0C0C0C"/>
<path d="M121.826 119.766C114.762 120.451 105.623 117.625 103.729 108.221L102.021 99.7349C100.128 90.3306 103.534 81.7127 112.391 79.9302C121.248 78.1491 129.402 84.4399 131.296 93.8442L132.052 97.601C132.779 101.209 134.429 118.547 121.826 119.766Z" fill="#E98862"/>
<path d="M126.85 108.52C124.555 109.686 121.936 110.055 119.408 109.568C119.321 109.551 119.23 109.56 119.147 109.593C119.065 109.626 118.993 109.682 118.941 109.754C118.889 109.826 118.858 109.912 118.853 110.001C118.848 110.09 118.868 110.178 118.911 110.256C119.665 111.584 121.453 113.853 124.519 112.928C126.5 112.331 127.249 110.294 127.526 109.034C127.545 108.947 127.539 108.856 127.508 108.772C127.477 108.689 127.423 108.616 127.352 108.562C127.281 108.508 127.196 108.475 127.107 108.468C127.018 108.46 126.929 108.478 126.85 108.52Z" fill="white"/>
<path d="M126.994 98.3148C127.606 98.3148 128.103 97.8184 128.103 97.206C128.103 96.5937 127.606 96.0973 126.994 96.0973C126.381 96.0973 125.885 96.5937 125.885 97.206C125.885 97.8184 126.381 98.3148 126.994 98.3148Z" fill="#0C0C0C"/>
<path d="M116.337 100.18C116.95 100.18 117.446 99.6839 117.446 99.0715C117.446 98.4592 116.95 97.9628 116.337 97.9628C115.725 97.9628 115.228 98.4592 115.228 99.0715C115.228 99.6839 115.725 100.18 116.337 100.18Z" fill="#0C0C0C"/>
<path opacity="0.1" d="M117.336 107.443C118.498 107.305 119.358 106.501 119.257 105.649C119.155 104.796 118.13 104.218 116.968 104.356C115.805 104.495 114.945 105.299 115.047 106.151C115.149 107.003 116.174 107.582 117.336 107.443Z" fill="#0C0C0C"/>
<path opacity="0.1" d="M129.619 104.035C129.722 104.886 130.747 105.464 131.91 105.327C132.111 105.303 132.309 105.258 132.501 105.193C132.555 104.178 132.558 103.202 132.528 102.298C132.205 102.217 131.87 102.197 131.54 102.24C130.377 102.377 129.518 103.18 129.619 104.035Z" fill="#0C0C0C"/>
<path opacity="0.5" d="M124.482 106.666L124.499 106.663C124.858 106.588 125.213 106.494 125.562 106.38C126.082 106.206 126.761 105.92 126.667 105.45C126.56 104.914 123.927 99.4281 123.628 98.805C123.601 98.7505 123.554 98.7086 123.497 98.6886C123.44 98.6686 123.378 98.6721 123.323 98.6983C123.269 98.7245 123.227 98.7713 123.207 98.8284C123.187 98.8854 123.19 98.9481 123.216 99.0026C124.339 101.339 126.147 105.18 126.22 105.541C126.163 105.709 125.3 106.038 124.41 106.217C124.351 106.228 124.299 106.261 124.264 106.309C124.229 106.358 124.215 106.419 124.225 106.478C124.234 106.537 124.266 106.59 124.315 106.625C124.363 106.66 124.423 106.676 124.482 106.667L124.482 106.666Z" fill="#0C0C0C"/>
<path d="M94.9541 102.781L102.894 101.23C108.892 98.7228 110.594 88.2721 110.594 88.2721C110.594 88.2721 117.997 95.3198 135.688 91.0581C135.688 91.0581 131.845 66.367 105.722 73.8618C97.2985 76.2783 91.3324 84.8619 92.2197 96.2309C92.8416 104.198 94.9541 102.781 94.9541 102.781Z" fill="#0A0A0A"/>
<path d="M104.856 110.975C102.165 111.517 99.4028 109.077 98.8604 106.385C98.3181 103.694 100.202 101.771 102.894 101.23L104.644 102.754L107.169 110.509L104.856 110.975Z" fill="#E98862"/>
<path d="M125.536 94.4296C126.209 93.9534 126.997 93.6642 127.818 93.5915C128.231 93.5522 128.646 93.5753 129.052 93.66C129.461 93.7435 129.858 93.878 130.234 94.0604L130.246 94.0658C130.288 94.0842 130.335 94.0856 130.378 94.0696C130.42 94.0537 130.455 94.0217 130.474 93.9805C130.494 93.9393 130.496 93.8922 130.481 93.8492C130.466 93.8062 130.435 93.7707 130.394 93.7504C129.996 93.54 129.573 93.3808 129.135 93.2763C128.694 93.1691 128.239 93.1288 127.786 93.1568C126.869 93.2077 125.981 93.5033 125.217 94.0131C125.159 94.0522 125.12 94.1124 125.107 94.1806C125.094 94.2489 125.108 94.3194 125.147 94.3769C125.186 94.4343 125.247 94.4738 125.315 94.4868C125.383 94.4998 125.454 94.4851 125.511 94.446L125.517 94.4416L125.536 94.4296Z" fill="#0C0C0C"/>
<path d="M118.283 95.4319C117.381 95.2528 116.448 95.3188 115.58 95.623C115.152 95.7706 114.747 95.9818 114.381 96.2495C114.017 96.5136 113.687 96.8225 113.399 97.1691C113.369 97.2034 113.353 97.2483 113.356 97.294C113.358 97.3397 113.378 97.3827 113.412 97.4135C113.446 97.4444 113.491 97.4607 113.537 97.4589C113.582 97.4572 113.626 97.4375 113.657 97.4041L113.666 97.3945C113.943 97.0822 114.259 96.806 114.605 96.5725C114.947 96.3388 115.323 96.1583 115.72 96.0371C116.507 95.7903 117.345 95.7561 118.15 95.9381L118.169 95.9429C118.237 95.9593 118.308 95.9481 118.367 95.912C118.427 95.8759 118.469 95.8177 118.485 95.7502C118.502 95.6828 118.491 95.6116 118.455 95.5523C118.418 95.4931 118.36 95.4506 118.293 95.4343L118.283 95.4319Z" fill="#0C0C0C"/>
<path d="M102.899 101.1C108.237 99.1136 110.008 95.4288 110.554 92.6865C110.907 90.8577 110.874 88.9753 110.457 87.1599L110.292 87.2051C110.702 88.9969 110.734 90.8547 110.385 92.6595C109.847 95.3568 108.1 98.9828 102.84 100.94L102.899 101.1Z" fill="#0C0C0C"/>
<path d="M42.1305 60.9558L38.6256 49.7598C38.5486 49.5138 38.4212 49.2865 38.2515 49.0924C38.0818 48.8984 37.8735 48.7418 37.6399 48.6326C37.4064 48.5234 37.1526 48.464 36.8949 48.4582C36.6371 48.4524 36.381 48.5003 36.1427 48.5989C35.7086 48.7947 35.3626 49.1446 35.1719 49.5809C34.9811 50.0172 34.9592 50.5088 35.1105 50.9603L35.8621 53.361L30.0323 46.8959C29.3968 46.1657 28.148 45.6762 27.3774 46.4431C27.0611 46.7187 26.8475 47.0934 26.7715 47.5061C26.6955 47.9187 26.7617 48.3449 26.9591 48.7151C26.9507 48.7193 26.9427 48.7244 26.9355 48.7305C26.9308 48.7359 26.9264 48.7416 26.9225 48.7476L25.9426 47.6217C25.761 47.4132 25.5351 47.2479 25.2814 47.1378C25.0277 47.0277 24.7526 46.9755 24.4762 46.9852C24.1998 46.9948 23.9291 47.066 23.6837 47.1936C23.4383 47.3211 23.2245 47.5018 23.0578 47.7224C22.8023 48.075 22.6757 48.5047 22.6991 48.9394C22.7226 49.3742 22.8947 49.7878 23.1867 50.1108L23.6036 50.5904C23.5955 50.6089 23.5906 50.6287 23.5892 50.6489C23.2323 50.3905 22.795 50.2675 22.3556 50.3018C21.9163 50.3361 21.5034 50.5256 21.191 50.8363C20.8592 51.1863 20.6715 51.6484 20.6656 52.1306C20.6596 52.6127 20.8357 53.0794 21.1588 53.4374L22.1948 54.6274C22.1683 54.6209 22.1406 54.6209 22.1141 54.6272C22.0875 54.6335 22.0628 54.646 22.042 54.6637C22.0184 54.6859 22.0019 54.7146 21.9944 54.7462C21.6126 54.6045 21.1949 54.5921 20.8053 54.7108C20.4158 54.8296 20.0761 55.0729 19.8384 55.4035C19.5957 55.7559 19.4792 56.1798 19.5076 56.6066C19.536 57.0334 19.7077 57.4382 19.9949 57.7553L28.7359 67.7957C29.9589 69.2 31.5735 70.2073 33.3727 70.6885C35.1719 71.1698 37.0739 71.103 38.8349 70.4968C40.3534 69.9737 41.608 68.8794 42.3323 67.4463C43.0565 66.0132 43.1933 64.3542 42.7136 62.8219L42.1305 60.9558Z" fill="#E98862"/>
<g opacity="0.2">
<path opacity="0.2" d="M32.6974 55.1432C32.6634 55.1726 32.6192 55.1875 32.5743 55.1846C32.5294 55.1817 32.4875 55.1613 32.4575 55.1278L26.9224 48.9723C26.892 48.9385 26.8762 48.8941 26.8787 48.8487C26.8811 48.8033 26.9014 48.7607 26.9352 48.7303C26.969 48.6999 27.0135 48.6842 27.0589 48.6866C27.1043 48.6891 27.1469 48.7094 27.1773 48.7432L32.7131 54.8987C32.7435 54.9324 32.7592 54.9769 32.7569 55.0222C32.7545 55.0676 32.7342 55.1101 32.7004 55.1405L32.6974 55.1432Z" fill="#0C0C0C"/>
</g>
<g opacity="0.2">
<path opacity="0.2" d="M30.0494 57.6591C30.0154 57.6885 29.9712 57.7033 29.9263 57.7004C29.8815 57.6976 29.8395 57.6772 29.8096 57.6436L23.6324 50.774C23.602 50.7402 23.5862 50.6958 23.5886 50.6505C23.591 50.6051 23.6113 50.5626 23.645 50.5322C23.6795 50.5032 23.7237 50.4884 23.7687 50.4909C23.8137 50.4933 23.8561 50.5127 23.8873 50.5452L30.0652 57.4145C30.0956 57.4482 30.1113 57.4927 30.1089 57.538C30.1065 57.5834 30.0862 57.6259 30.0525 57.6563L30.0494 57.6591Z" fill="#0C0C0C"/>
</g>
<g opacity="0.2">
<path opacity="0.2" d="M27.197 60.4006C27.163 60.43 27.1187 60.4448 27.0739 60.4418C27.029 60.4389 26.9871 60.4184 26.9572 60.3849L22.0298 54.9065C21.9994 54.8727 21.9837 54.8283 21.9861 54.7829C21.9885 54.7375 22.0088 54.6949 22.0426 54.6645C22.0764 54.6342 22.1209 54.6184 22.1663 54.6208C22.2117 54.6233 22.2543 54.6436 22.2847 54.6774L27.2131 60.1578C27.2434 60.1916 27.2591 60.236 27.2567 60.2814C27.2542 60.3267 27.2339 60.3693 27.2001 60.3996L27.197 60.4006Z" fill="#0C0C0C"/>
</g>
<path d="M178.436 40.6938L167.217 94.8358L129.016 133.416L149.074 152.091L186.948 108.859L187.176 108.604C188.511 107.067 189.442 105.223 189.885 103.236L202.744 45.9372L178.436 40.6938Z" fill="url(#paint0_linear_230_2341)"/>
<path d="M112.924 138.909C101.244 138.358 100.752 128.446 100.752 128.446C100.752 128.446 94.9651 128.82 91.1179 129.341C84.8191 130.192 80.6643 132.328 77.3574 135.633C74.2815 138.709 75.1541 148.303 75.1541 148.303L78.2413 212.491H148.733L152.066 148.656C152.066 148.656 155.853 140.555 149.416 133.746C144.748 128.81 132.698 128.446 127.847 128.446C127.767 128.446 128.83 139.658 112.924 138.909Z" fill="url(#paint1_linear_230_2341)"/>
<path d="M58.048 105.577L45.4174 60.4163L21.5332 67.3401L36.1341 115.96C36.8019 118.164 38.0698 120.138 39.7959 121.663L40.0357 121.873L78.5069 155.68L95.8863 134.491L58.048 105.577Z" fill="url(#paint2_linear_230_2341)"/>
<path d="M181.162 27.157L180.584 27.5509C179.116 28.5522 177.465 29.2546 175.725 29.6179C173.985 29.9812 172.191 29.9983 170.444 29.6683C168.698 29.3382 167.034 28.6675 165.546 27.6944C164.059 26.7213 162.779 25.4649 161.777 23.9969L156.366 16.0644C156.295 15.9597 156.245 15.8421 156.219 15.7181C156.193 15.5942 156.192 15.4663 156.216 15.3419C156.239 15.2175 156.287 15.0989 156.356 14.9929C156.426 14.887 156.515 14.7957 156.62 14.7244L177.964 0.167866C178.175 0.0238051 178.435 -0.0304555 178.686 0.0170085C178.938 0.0644725 179.16 0.209777 179.304 0.42099L184.718 8.35485C185.719 9.82278 186.422 11.4736 186.785 13.2129C187.148 14.9523 187.165 16.7462 186.835 18.4922C186.505 20.2382 185.834 21.902 184.861 23.3887C183.887 24.8755 182.63 26.1559 181.162 27.157Z" fill="#F7B731"/>
<path d="M170.488 11.8819L173.73 13.7109C173.752 13.7234 173.777 13.7304 173.802 13.7311C173.828 13.7319 173.853 13.7265 173.876 13.7154L177.221 12.0819C177.247 12.0692 177.276 12.0641 177.305 12.0671C177.334 12.0701 177.362 12.0811 177.385 12.0988C177.408 12.1166 177.426 12.1405 177.436 12.1677C177.446 12.195 177.449 12.2246 177.443 12.2532L176.705 15.901C176.7 15.9259 176.701 15.9517 176.708 15.9761C176.715 16.0005 176.728 16.0228 176.746 16.0411L179.333 18.7169C179.354 18.7379 179.368 18.7642 179.374 18.7927C179.38 18.8213 179.378 18.851 179.368 18.8785C179.359 18.9061 179.341 18.9303 179.318 18.9484C179.295 18.9666 179.268 18.978 179.239 18.9813L175.54 19.4074C175.515 19.4103 175.491 19.4193 175.47 19.4336C175.449 19.448 175.432 19.4672 175.42 19.4897L173.673 22.7779C173.659 22.8036 173.638 22.825 173.613 22.8396C173.587 22.8543 173.559 22.8615 173.529 22.8606C173.5 22.8598 173.472 22.8507 173.447 22.8346C173.423 22.8185 173.404 22.7959 173.392 22.7693L171.844 19.3845C171.833 19.3614 171.817 19.3411 171.797 19.3256C171.777 19.31 171.754 19.2995 171.729 19.2951L168.063 18.6508C168.034 18.6458 168.007 18.6328 167.985 18.6133C167.963 18.5938 167.948 18.5686 167.939 18.5405C167.931 18.5125 167.931 18.4827 167.939 18.4545C167.947 18.4264 167.962 18.401 167.984 18.3812L170.725 15.8637C170.743 15.8465 170.757 15.825 170.766 15.8012C170.775 15.7773 170.777 15.7518 170.774 15.7267L170.254 12.0415C170.249 12.0122 170.253 11.9821 170.265 11.9549C170.276 11.9276 170.296 11.9043 170.32 11.8876C170.345 11.8709 170.374 11.8615 170.403 11.8604C170.433 11.8594 170.462 11.8669 170.488 11.8819Z" fill="#FAFAFA"/>
<path d="M182.045 23.2601L179.338 25.105L178.79 25.4776L176.631 26.9505C176.631 26.9505 191.337 40.3873 190.636 56.6973L197.088 52.2982L197.636 51.9256L204.634 47.1539C189.188 41.8526 182.045 23.2601 182.045 23.2601Z" fill="#F7B731"/>
<path d="M206.537 41.9547L185.102 56.571C184.525 56.9645 184.376 57.7513 184.77 58.3283L189.608 65.4201C190.002 65.9971 190.789 66.1458 191.366 65.7523L212.801 51.1359C213.378 50.7424 213.527 49.9556 213.133 49.3786L208.295 42.2868C207.901 41.7098 207.115 41.5611 206.537 41.9547Z" fill="#F7B731"/>
<path d="M165.626 30.2448C164.589 30.9538 163.383 31.3741 162.13 31.4625C160.878 31.551 159.624 31.3044 158.498 30.748C157.373 30.1917 156.416 29.3457 155.725 28.297C155.035 27.2483 154.637 26.0348 154.571 24.7811C154.505 23.5274 154.774 22.2789 155.351 21.1637C155.928 20.0486 156.791 19.1071 157.852 18.4361C158.914 17.765 160.135 17.3887 161.39 17.3456C162.645 17.3025 163.888 17.5943 164.993 18.1911C166.06 18.7669 166.961 19.6073 167.609 20.6317C168.257 21.6561 168.631 22.8299 168.695 24.0404C168.758 25.2509 168.509 26.4574 167.972 27.5439C167.434 28.6304 166.626 29.5605 165.626 30.2448ZM159.037 20.6199C158.209 21.1853 157.588 22.0058 157.27 22.9564C156.952 23.907 156.953 24.9356 157.274 25.8854C157.595 26.8352 158.217 27.6541 159.047 28.2174C159.876 28.7807 160.867 29.0575 161.868 29.0055C162.87 28.9536 163.826 28.5757 164.593 27.9296C165.36 27.2835 165.894 26.4045 166.115 25.4266C166.335 24.4488 166.23 23.4256 165.815 22.513C165.4 21.6005 164.698 20.8486 163.816 20.3719C163.073 19.9719 162.234 19.7834 161.392 19.8272C160.549 19.8709 159.734 20.1451 159.037 20.6199Z" fill="#F7B731"/>
<path d="M189.559 13.928C189.302 14.1027 189.035 14.2605 188.758 14.4004C187.084 15.2457 185.142 15.3915 183.361 14.8058C181.579 14.22 180.103 12.9506 179.257 11.2769C178.412 9.60317 178.266 7.66218 178.852 5.88093C179.438 4.09967 180.708 2.62407 182.382 1.77873C183.984 0.970253 185.834 0.801091 187.556 1.30553C189.279 1.80998 190.745 2.95028 191.658 4.49533C192.57 6.04037 192.861 7.87455 192.472 9.62611C192.082 11.3777 191.04 12.9155 189.559 13.928ZM182.972 4.29902C182.244 4.79782 181.675 5.49584 181.333 6.30958C180.991 7.12332 180.89 8.01834 181.044 8.88757C181.197 9.75681 181.598 10.5635 182.198 11.2111C182.798 11.8587 183.571 12.3198 184.427 12.5393C185.282 12.7588 186.182 12.7274 187.02 12.4488C187.857 12.1702 188.597 11.6562 189.15 10.9684C189.704 10.2805 190.047 9.44787 190.139 8.57005C190.232 7.69223 190.069 6.80639 189.671 6.01849C189.399 5.47993 189.024 5.00022 188.566 4.60674C188.109 4.21327 187.578 3.91373 187.005 3.72524C186.432 3.53676 185.827 3.46301 185.225 3.50821C184.624 3.55342 184.037 3.71668 183.498 3.98869C183.316 4.08055 183.141 4.18422 182.972 4.29902Z" fill="#F7B731"/>
<path d="M188.077 35.7937C187.882 35.5259 187.779 35.2017 187.786 34.8704C187.792 34.5391 187.906 34.2188 188.111 33.9585C188.088 33.9455 188.022 33.9304 188.046 33.89L186.906 34.4449C186.573 34.6157 186.19 34.6605 185.827 34.5708C185.464 34.4812 185.146 34.2632 184.931 33.9571C184.729 33.6481 184.649 33.275 184.707 32.9103C184.764 32.5455 184.955 32.215 185.242 31.9828C185.228 31.9784 185.22 31.963 185.208 31.9541L184.739 32.1822C184.425 32.3418 184.065 32.3881 183.721 32.3132C183.377 32.2383 183.069 32.0468 182.85 31.7712C182.716 31.5954 182.623 31.3922 182.577 31.1761C182.531 30.9601 182.534 30.7365 182.585 30.5216C182.636 30.3067 182.734 30.1058 182.872 29.9335C183.011 29.7611 183.185 29.6216 183.384 29.5249L184.465 28.9984C184.462 28.9933 184.455 28.9926 184.451 28.9864C184.448 28.9803 184.451 28.9703 184.449 28.9625C184.121 29.0394 183.776 29.0024 183.471 28.8576C183.166 28.7128 182.919 28.4687 182.771 28.1654C182.337 27.4064 182.978 26.5415 183.677 26.2014L185.964 25.3005C186.317 25.1617 186.698 25.1122 187.075 25.1565C187.451 25.2008 187.811 25.3375 188.122 25.5544C190.816 27.4293 197.734 32.4942 195.502 33.5804L190.005 36.2541C189.679 36.4026 189.311 36.4379 188.962 36.3545C188.613 36.2712 188.301 36.0738 188.077 35.7937Z" fill="#E98862"/>
<path d="M18.9915 212.493H219.804C219.895 212.493 219.982 212.457 220.046 212.393C220.111 212.328 220.147 212.241 220.147 212.15C220.147 212.06 220.111 211.972 220.046 211.908C219.982 211.844 219.895 211.808 219.804 211.808H18.9915C18.9007 211.808 18.8135 211.844 18.7493 211.908C18.685 211.972 18.6489 212.06 18.6489 212.15C18.6489 212.241 18.685 212.328 18.7493 212.393C18.8135 212.457 18.9007 212.493 18.9915 212.493Z" fill="#292A2E"/>
<path d="M10.6407 137.77L8.08789 138.767L11.6886 147.977L14.2414 146.979L10.6407 137.77Z" fill="#F3001F"/>
<path d="M217.706 109.563L211.107 116.929L213.149 118.757L219.748 111.391L217.706 109.563Z" fill="#F3001F"/>
<path d="M187.453 142.531L185.81 144.724L193.726 150.652L195.37 148.459L187.453 142.531Z" fill="#F7B731"/>
<path d="M68.4855 64.2272L61.2822 71.0039L63.1605 72.9995L70.3638 66.2228L68.4855 64.2272Z" fill="#F3001F"/>
<path d="M148.271 52.7323L145.895 54.098L150.824 62.671L153.2 61.3053L148.271 52.7323Z" fill="#F3001F"/>
<path d="M51.3512 170.645L46.0728 179.007L48.3907 180.47L53.6691 172.107L51.3512 170.645Z" fill="#F7B731"/>
<path d="M184.166 190.739L179.746 199.585L182.198 200.809L186.618 191.963L184.166 190.739Z" fill="#F7B731"/>
<path d="M220.039 167.464L217.414 168.251L220.254 177.723L222.879 176.936L220.039 167.464Z" fill="#F3001F"/>
<path d="M27.9969 193.543L26.4702 195.82L34.6894 201.328L36.2161 199.051L27.9969 193.543Z" fill="#F3001F"/>
<path d="M115.754 31.428L113.377 32.7937L118.307 41.3664L120.683 40.0008L115.754 31.428Z" fill="#F7B731"/>
</g>
<defs>
<linearGradient id="paint0_linear_230_2341" x1="112.139" y1="40.6938" x2="112.139" y2="212.491" gradientUnits="userSpaceOnUse">
<stop stop-color="#A8091E"/>
<stop offset="1" stop-color="#F3001F"/>
</linearGradient>
<linearGradient id="paint1_linear_230_2341" x1="112.139" y1="40.6938" x2="112.139" y2="212.491" gradientUnits="userSpaceOnUse">
<stop stop-color="#A8091E"/>
<stop offset="1" stop-color="#F3001F"/>
</linearGradient>
<linearGradient id="paint2_linear_230_2341" x1="112.139" y1="40.6938" x2="112.139" y2="212.491" gradientUnits="userSpaceOnUse">
<stop stop-color="#A8091E"/>
<stop offset="1" stop-color="#F3001F"/>
</linearGradient>
<clipPath id="clip0_230_2341">
<rect width="240" height="212.493" fill="white"/>
</clipPath>
</defs>
</svg>
